<svg xmlns="http://www.w3.org/2000/svg" width="20" height="19.999" viewBox="0 0 20 19.999">
  <g id="Grupo_7" data-name="Grupo 7" transform="translate(0 0.001)">
    <g id="Grupo_6" data-name="Grupo 6" transform="translate(0 -0.001)">
      <path id="Trazado_8" data-name="Trazado 8" d="M1008.888,157.011a1.172,1.172,0,1,0,1.172,1.172A1.173,1.173,0,0,0,1008.888,157.011Z" transform="translate(-993.594 -153.44)" fill="#fff"/>
      <path id="Trazado_9" data-name="Trazado 9" d="M996.78,159.671a4.925,4.925,0,1,0,4.926,4.925A4.931,4.931,0,0,0,996.78,159.671Zm0,8.08a3.155,3.155,0,1,1,3.155-3.155A3.159,3.159,0,0,1,996.78,167.751Z" transform="translate(-986.698 -154.597)" fill="#fff"/>
      <path id="Trazado_10" data-name="Trazado 10" d="M996.724,170.693H988.74a6.014,6.014,0,0,1-6.008-6.007V156.7a6.014,6.014,0,0,1,6.008-6.007h7.985a6.014,6.014,0,0,1,6.008,6.007v7.985A6.014,6.014,0,0,1,996.724,170.693Zm-7.985-18.118a4.13,4.13,0,0,0-4.126,4.126v7.985a4.131,4.131,0,0,0,4.126,4.126h7.985a4.131,4.131,0,0,0,4.126-4.126V156.7a4.13,4.13,0,0,0-4.126-4.126Z" transform="translate(-982.732 -150.694)" fill="#fff"/>
    </g>
  </g>
</svg>
