<svg xmlns="http://www.w3.org/2000/svg" width="245.567" height="82.433" viewBox="0 0 245.567 82.433">
  <g id="Grupo_142" data-name="Grupo 142" transform="translate(0)" opacity="0.2">
    <path id="Trazado_1" data-name="Trazado 1" d="M-1232.757,4510.292h-8.284c0-.062,0-.636,0-.7h17.441c0,.354,0,1.247,0,1.63q-.025,35.061-.05,70.128c0,2.043.011,4.256-.035,6.3-.013.58.194.749.72.749q7.149-.01,14.3,0c.629,0,.792-.227.791-.856-.017-14.666-.017-29.5.013-44.17,0-.816-.263-1.016-1.017-1.006-2.212.031-4.425,0-6.638,0h-.874c0-.086,0-.684,0-.771h17.622v46.817h8.506c0,.1,0,.718,0,.823h-50.9c0-.08,0-.672-.007-.751h8.412Z" transform="translate(1288.714 -4509.593)" fill="#fff"/>
    <path id="Trazado_2" data-name="Trazado 2" d="M-954.782,4698.062c.321.833.531,1.411.766,1.979q6.186,15.009,12.376,30.018c.3.733.528,1.5.872,2.214a1.181,1.181,0,0,0,.193.275.746.746,0,0,0,1.217-.178l0-.008c1.085-2.462,2.145-4.935,3.2-7.408q4.537-10.625,9.065-21.256c.765-1.792,1.517-3.592,2.386-5.648h-9.554c0-.113.006-.734.009-.847h29.921v46.883h8.505c0,.1,0,.717,0,.819h-26.135c-.006-.063-.011-.638-.016-.7.287-.02.573-.053.86-.055,2.269-.012,4.539-.039,6.808-.011.8.012,1.032-.233,1.03-1.067-.026-14.552-.015-29.274-.011-43.826,0-1.187,0-1.2-1.166-1.2-2.723,0-5.446.013-8.17-.006a1.092,1.092,0,0,0-1.172.825c-2.041,4.921-4.137,9.817-6.212,14.722q-3.958,9.356-7.909,18.713-2.579,6.111-5.14,12.225c-.409.984-.745,2-1.181,3.177-.557-1.416-1.037-2.67-1.542-3.913q-4.407-10.854-8.822-21.705-4.624-11.407-9.206-22.833a1.629,1.629,0,0,0-1.82-1.228c-1.727.074-3.46.022-5.19.018-.286,0-.572-.031-.858-.049,0-.088.007-.686.011-.774h26.435c0,.112,0,.733.007.846Z" transform="translate(1065.097 -4665.267)" fill="#fff"/>
    <path id="Trazado_3" data-name="Trazado 3" d="M-1491.041,4688.825a23.481,23.481,0,0,1,6.74,2.438,27.1,27.1,0,0,1,13.509,16.187c2.059,6.443.9,12.527-2.536,18.26a26.421,26.421,0,0,1-14.5,11.57,21.815,21.815,0,0,1-15.384-.256,26.1,26.1,0,0,1-15.878-15.9,21.1,21.1,0,0,1,1.821-18.64,28.081,28.081,0,0,1,17.091-13.428A21.938,21.938,0,0,1-1491.041,4688.825Zm-19.394,24.985c.163,2.687.243,4.7.507,7.38a22.529,22.529,0,0,0,3.513,10.736,9.573,9.573,0,0,0,5.69,4.3,21.948,21.948,0,0,0,9.52.35,10.388,10.388,0,0,0,7.176-4.391c2.574-3.787,3.433-7.606,3.834-12.02.285-3.142.176-5.638.221-8.8a35.871,35.871,0,0,0-1.845-12.383c-1.4-4.2-3.942-7.352-8.375-8.532a18.23,18.23,0,0,0-10.806.3,10.151,10.151,0,0,0-5.146,3.73,16.788,16.788,0,0,0-2.847,5.808A59.647,59.647,0,0,0-1510.436,4713.811Z" transform="translate(1520.47 -4658.007)" fill="#fff"/>
    <path id="Trazado_4" data-name="Trazado 4" d="M-321.321,4690.363h17.365c0,2.841-.007,5.444,0,8.213,0,.68.043,1.95.6,2,.2-.444.409-.882.591-1.335,1.681-4.166,4.285-7.526,8.451-9.443a9.742,9.742,0,0,1,2.942-.719c2.779-.312,5.5-.173,7.912,1.506a8.625,8.625,0,0,1,3.562,6.993c0,.851.016,1.7,0,2.554a3.6,3.6,0,0,1-2.558,3.615,8.447,8.447,0,0,1-5.264.133,2.626,2.626,0,0,1-1.694-3.475c.232-.7.492-1.388.759-2.074a7.993,7.993,0,0,0,.355-4.684c-.662-2.982-2.948-3.233-5.745-2.181-3.055,1.15-5.032,3.58-6.724,6.264a20.1,20.1,0,0,0-2.969,10.921c-.029,9.362-.039,18.214-.1,27.575,0,.813.247,1,1,1,2.666-.007,8.781.073,8.781.073v.765h-27.27c0-.074,0-.661,0-.734h8.464a6.8,6.8,0,0,0,0-.857c.01-14.667.011-29.5.037-44.171,0-.817-.178-1.157-1.077-1.13-2.183.064-4.369.025-6.553.022-.293,0-.587-.029-.88-.045C-321.324,4691.055-321.323,4690.454-321.321,4690.363Z" transform="translate(525.451 -4658.412)" fill="#fff"/>
    <path id="Trazado_5" data-name="Trazado 5" d="M-546.435,4709.7a65.533,65.533,0,0,0,.774,15.921,12.982,12.982,0,0,0,5.229,9,11.2,11.2,0,0,0,5.692,2.242c3.786.367,7.527.272,11.089-1.333a16.684,16.684,0,0,0,9.51-10.806c.07-.23.462.71.419.868a17.035,17.035,0,0,1-14.925,12.635,29.3,29.3,0,0,1-12.166-1.2c-8.761-2.966-13.975-9-15.808-17.912a25.124,25.124,0,0,1,5.351-21.35,24.493,24.493,0,0,1,12.172-8.476c7.473-2.2,14.28-.77,20.125,4.4,3.483,3.078,5.306,7.651,5.915,12.254.119.9.207,1.8.374,2.693.141.749-.089,1.012-.86,1.006-3.346-.018-6.693.016-10.039.018q-11.145,0-22.291,0C-546.04,4709.655-546.207,4709.679-546.435,4709.7Zm11.911-1.683s6.862,0,10.293,0c1.457,0,1.457,0,1.617-1.469.015-.14.047-.28.06-.42a23.287,23.287,0,0,0-.824-9.594c-.681-2.509-1.971-4.758-4.49-5.773a12.029,12.029,0,0,0-11.034.635,12.22,12.22,0,0,0-5.568,7.253,36.063,36.063,0,0,0-1.778,8.312c-.129,1.037-.131,1.056.921,1.057C-541.727,4708.022-538.126,4708.016-534.524,4708.016Z" transform="translate(721.145 -4657.869)" fill="#fff"/>
    <path id="Trazado_6" data-name="Trazado 6" d="M-631.184,4521.017a5.565,5.565,0,0,1-5.431-5.685,5.577,5.577,0,0,1,5.966-5.4,5.778,5.778,0,0,1,5.24,5.671A5.742,5.742,0,0,1-631.184,4521.017Z" transform="translate(787.073 -4509.863)" fill="#fff"/>
    <path id="Trazado_7" data-name="Trazado 7" d="M-1047.09,4521.039a5.557,5.557,0,0,1-5.492-5.618,5.552,5.552,0,0,1,5.888-5.463,5.783,5.783,0,0,1,5.312,5.687A5.79,5.79,0,0,1-1047.09,4521.039Z" transform="translate(1132.229 -4509.887)" fill="#fff"/>
  </g>
</svg>
