<svg xmlns="http://www.w3.org/2000/svg" width="161.635" height="43.914" viewBox="0 0 161.635 43.914"><g transform="translate(0 0)"><path d="M-234.21,540.082c.378.03.755.064,1.133.089a29.376,29.376,0,0,1,6.382,1.1,23.069,23.069,0,0,1,6.344,2.923c.044.029.087.061.143.1-.037.05-.068.1-.106.141-.87.965-1.744,1.928-2.608,2.9a.25.25,0,0,1-.363.063,29.322,29.322,0,0,0-7.946-2.7,27.441,27.441,0,0,0-6.242-.4,17.822,17.822,0,0,0-4.2.614,6.259,6.259,0,0,0-2.457,1.248,2.534,2.534,0,0,0-.47,3.389,3.839,3.839,0,0,0,1.812,1.25,11.285,11.285,0,0,0,3.036.674c1.944.182,3.893.31,5.838.472,1.688.141,3.381.253,5.061.46a19.341,19.341,0,0,1,6.526,1.809,7.318,7.318,0,0,1,2.534,2.007,6.846,6.846,0,0,1,1.336,4.512,7.863,7.863,0,0,1-4.313,6.968,15.939,15.939,0,0,1-5.042,1.779,34.85,34.85,0,0,1-7.717.511,34.7,34.7,0,0,1-7.793-1.058,20.987,20.987,0,0,1-7.448-3.511c-.09-.068-.178-.138-.283-.22l2.6-3.433c.1.057.19.108.279.162a27.369,27.369,0,0,0,9.408,3.535,28.418,28.418,0,0,0,6.746.341,17.608,17.608,0,0,0,4.624-.835,7.419,7.419,0,0,0,2.5-1.37,3.6,3.6,0,0,0,1.1-3.98,3.181,3.181,0,0,0-1.306-1.592,6.437,6.437,0,0,0-2.788-.989q-2.623-.318-5.256-.557c-1.816-.162-3.639-.254-5.455-.415a31.119,31.119,0,0,1-6.561-1.138,10.957,10.957,0,0,1-1.729-.692,5.438,5.438,0,0,1-3.069-4.155,7.051,7.051,0,0,1,1.218-5.512,8.467,8.467,0,0,1,2.5-2.2,14.823,14.823,0,0,1,4.845-1.785,25.608,25.608,0,0,1,4-.466,2.355,2.355,0,0,0,.267-.04Z" transform="translate(296.808 -540.082)" fill="#9f9f9f"/><path d="M-1253.564,557.97c.121-.059.245-.114.363-.179,1.253-.7,2.514-1.383,3.751-2.108a1.9,1.9,0,0,1,1.038-.3c1.285.018,2.57.007,3.855.007h.286V583.94h-4.714v-23.8c-.1.04-.175.065-.246.1q-2.049.881-4.1,1.761a2.2,2.2,0,0,1-.235.072Z" transform="translate(1253.564 -554.687)" fill="#9f9f9f"/><path d="M1582.641,584.031h-4.734V555.479h.255q2.692,0,5.383,0a.461.461,0,0,1,.375.16q8.831,9.488,17.668,18.971l3.808,4.087c.051.054.1.113.191.222V555.492h4.73v28.546h-.242q-2.714,0-5.429,0a.434.434,0,0,1-.354-.15q-7.571-8.137-15.15-16.269l-6.309-6.774c-.051-.054-.1-.113-.193-.223Z" transform="translate(-1448.683 -554.773)" fill="#9f9f9f"/><path d="M553.6,555.553v14.76c.109-.074.181-.119.25-.17q9.79-7.234,19.582-14.466a.64.64,0,0,1,.346-.134c2.152-.008,4.3-.006,6.456-.005.044,0,.088.005.205.013l-14.6,10.794L582,584.076c-.084.01-.138.021-.192.021-1.9,0-3.8,0-5.7,0a.4.4,0,0,1-.326-.159q-6.648-7.3-13.3-14.595c-.076-.083-.154-.165-.234-.25l-4.664,3.421c-1.262.926-2.522,1.855-3.789,2.774a.427.427,0,0,0-.195.4q.008,4.046,0,8.092v.3h-4.714V555.553Z" transform="translate(-466.625 -554.832)" fill="#9f9f9f"/><path d="M-594.168,560.284l-4.584,1.97v-.514c0-1.124,0-2.249,0-3.373a.309.309,0,0,1,.183-.317c1.428-.8,2.851-1.618,4.278-2.425a.547.547,0,0,1,.254-.077q2.224-.007,4.447,0a1.154,1.154,0,0,1,.145.02V584.09h-4.719Z" transform="translate(628.641 -554.84)" fill="#9f9f9f"/><path d="M-915.332,584.075h-4.724V560.268l-4.561,1.96c0-.1-.011-.166-.011-.231q0-1.835,0-3.67a.253.253,0,0,1,.138-.272c1.416-.8,2.824-1.605,4.239-2.4a.964.964,0,0,1,.446-.122c1.4-.009,2.8-.005,4.2-.005h.277Z" transform="translate(939.641 -554.82)" fill="#9f9f9f"/><path d="M1349.154,584.522h-4.716V555.991h4.716Z" transform="translate(-1225.869 -555.265)" fill="#9f9f9f"/><path d="M-669.184,1361.019l1.312,2.483c-.321,0-.6.009-.886-.008-.056,0-.12-.1-.157-.168-.381-.69-.754-1.385-1.138-2.074-.042-.075-.133-.171-.2-.172-.774-.012-1.549-.008-2.347-.008v2.413h-.814v-6.363h3.727a1.529,1.529,0,0,1,1.7,1.366,3.733,3.733,0,0,1,.007,1.24A1.5,1.5,0,0,1-669.184,1361.019Zm-3.421-.925c1.054,0,2.085.009,3.116-.005a.659.659,0,0,0,.673-.57,2.194,2.194,0,0,0,0-.784.757.757,0,0,0-.789-.653c-.986-.012-1.973,0-2.959,0-.012,0-.025.014-.046.027Z" transform="translate(699.894 -1319.832)" fill="#9f9f9f"/><path d="M1665.008,1357.11c.894,0,1.768,0,2.642,0a6.613,6.613,0,0,1,.911.031,2.427,2.427,0,0,1,2,1.592,4,4,0,0,1,.032,3.064,2.53,2.53,0,0,1-2.526,1.695h-3.062Zm.815.964v4.458h2.334a1.574,1.574,0,0,0,1.629-1.1,3,3,0,0,0-.018-2.244,1.687,1.687,0,0,0-1.271-1.1.36.36,0,0,0-.067-.012Z" transform="translate(-1531.809 -1319.821)" fill="#9f9f9f"/><path d="M323.332,1354.294l-.463.658c-.474-.192-.911-.4-1.37-.545a3.094,3.094,0,0,0-1.688-.029,1.431,1.431,0,0,0-.357.146.682.682,0,0,0-.373.7.611.611,0,0,0,.491.562,11.762,11.762,0,0,0,1.164.192c.473.067.955.09,1.418.2a3.189,3.189,0,0,1,.884.4,1.149,1.149,0,0,1,.517.776,1.987,1.987,0,0,1-1.532,2.57,4.685,4.685,0,0,1-2.884-.208,3.011,3.011,0,0,1-1.1-.758l.44-.758.224.159a3.685,3.685,0,0,0,3.172.629,1.051,1.051,0,0,0,.827-.735.807.807,0,0,0-.616-1.082c-.459-.1-.932-.121-1.4-.194a14.379,14.379,0,0,1-1.563-.283,1.206,1.206,0,0,1-.908-1.2,1.78,1.78,0,0,1,1.471-2.02,3.994,3.994,0,0,1,3.4.634C323.172,1354.157,323.245,1354.223,323.332,1354.294Z" transform="translate(-246.316 -1316.219)" fill="#9f9f9f"/><path d="M1157.044,1355.788a3.433,3.433,0,0,1-1.315,2.774,3.113,3.113,0,0,1-4.923-1.925,3.505,3.505,0,0,1,.73-3.186,2.947,2.947,0,0,1,3.067-.975,2.983,2.983,0,0,1,2.247,2.2A8.472,8.472,0,0,1,1157.044,1355.788Zm-.9.018c0-.091.006-.183,0-.273a2.163,2.163,0,0,0-1.347-1.978,2.235,2.235,0,0,0-2.453.368,2.357,2.357,0,0,0-.768,2.034,2.27,2.27,0,0,0,3.229,2.057A2.208,2.208,0,0,0,1156.141,1355.806Z" transform="translate(-1040.975 -1315.307)" fill="#9f9f9f"/><path d="M1910.607,1353.876a3.183,3.183,0,0,1,3.309,2.677,4.041,4.041,0,0,1-.245,2.254,3.057,3.057,0,0,1-3.215,1.82,3.091,3.091,0,0,1-2.687-2.507,3.624,3.624,0,0,1,.661-3.1A2.832,2.832,0,0,1,1910.607,1353.876Zm.229,5.788a2.1,2.1,0,0,0,2.157-1.55,3.621,3.621,0,0,0,.1-1.193,2.106,2.106,0,0,0-1.335-1.887,2.232,2.232,0,0,0-2.365.3,2.39,2.39,0,0,0-.86,2.063A2.2,2.2,0,0,0,1910.835,1359.664Z" transform="translate(-1763.402 -1316.736)" fill="#9f9f9f"/><path d="M-218.232,1357.439h4.924v.936h-4.1v1.631h2.836v.963h-2.837v1.87h4.287v.95h-5.108Z" transform="translate(265.483 -1320.136)" fill="#9f9f9f"/><path d="M1421.69,1357.133h.8v6.371c-.314,0-.624.01-.932-.008-.067,0-.141-.1-.19-.17q-1.719-2.4-3.433-4.8c-.042-.059-.089-.114-.172-.22v5.182h-.8v-6.364c.312,0,.628-.01.942.009.065,0,.135.109.185.179q1.711,2.388,3.418,4.78c.046.064.1.126.182.238Z" transform="translate(-1295.083 -1319.837)" fill="#9f9f9f"/><path d="M2172.552,1363.512c-.308,0-.6.012-.9-.008-.076-.005-.162-.1-.214-.169q-1.716-2.387-3.424-4.778l-.182-.249v5.19h-.807v-6.362c.313,0,.628-.008.943.007.061,0,.127.094.173.157q1.716,2.4,3.428,4.8c.043.061.089.121.171.231v-5.188h.809Z" transform="translate(-2010.917 -1319.843)" fill="#9f9f9f"/><path d="M-1148.673,1360.016v-2.547h.806v6.351h-.8v-2.8h-3.9v2.8h-.805v-6.348h.8v2.545Z" transform="translate(1157.948 -1320.165)" fill="#9f9f9f"/><path d="M-915.672,1363.4c-.281,0-.517.01-.751-.006a.27.27,0,0,1-.188-.138c-.16-.368-.309-.741-.451-1.117a.21.21,0,0,0-.23-.162q-1.481.008-2.963,0a.212.212,0,0,0-.233.161c-.136.362-.288.717-.421,1.08a.229.229,0,0,1-.261.185c-.225-.013-.451,0-.709,0l.6-1.476q.957-2.359,1.91-4.719c.057-.142.123-.2.279-.19a4.494,4.494,0,0,0,.615,0,.26.26,0,0,1,.3.2q1.136,2.826,2.286,5.645ZM-917.53,1361l-1.236-3.054-1.249,3.054Z" transform="translate(937.016 -1319.735)" fill="#9f9f9f"/><path d="M539.336,1363.79h-.808v-5.4H536.2v-.954h5.451v.934h-2.318Z" transform="translate(-454.52 -1320.13)" fill="#9f9f9f"/><path d="M-5.711,1363.42h-.818v-.251c0-.691.005-1.382-.005-2.073a.677.677,0,0,0-.111-.353c-.782-1.139-1.572-2.271-2.36-3.406-.056-.08-.11-.162-.192-.283.347,0,.661-.009.973.008.059,0,.121.1.167.169q.895,1.278,1.785,2.558c.047.068.1.135.158.22.052-.067.1-.122.137-.18.606-.873,1.214-1.744,1.813-2.621a.321.321,0,0,1,.316-.162c.254.011.509,0,.8,0-.067.105-.108.175-.154.241-.8,1.148-1.593,2.293-2.382,3.446a.761.761,0,0,0-.124.395c-.012.675-.006,1.351-.006,2.027Z" transform="translate(65.987 -1319.761)" fill="#9f9f9f"/><path d="M-426.673,1363.819h-4.566v-6.355h.786v5.4h3.78Z" transform="translate(468.769 -1320.16)" fill="#9f9f9f"/><path d="M954.852,1357.514v5.4h3.767v.945H954.05v-6.342Z" transform="translate(-853.298 -1320.208)" fill="#9f9f9f"/><path d="M672.342,1475.969h1.014v.943h-1.014Z" transform="translate(-584.446 -1433.256)" fill="#9f9f9f"/></g></svg>