<svg xmlns="http://www.w3.org/2000/svg" width="161.635" height="69.938" viewBox="0 0 161.635 69.938"><g transform="translate(0 0)"><g transform="translate(0 0)"><path d="M1579.277-773c.006.177.018.354.018.531q0,20.767,0,41.533v.556c-.358.1-23.807.134-24.437.036-.008-.175-.023-.362-.023-.548q0-3.816,0-7.632,0-16.906,0-33.813c0-.221.012-.443.018-.664Zm-13.4,21.48c.105-.45.089-11.624-.023-11.987-2.451,0-4.913-.008-7.4.006v11.982Zm10.425-11.945c-.72-.091-7.121-.058-7.453.038v11.906h7.453Zm-10.389,19.532c-.73-.092-7.122-.058-7.453.038v10.4h7.453Zm10.392,0c-.809-.094-7.127-.056-7.483.051,0,3.445-.011,6.9,0,10.385h7.479Zm-17.875-25.528c0,.764-.009,1.5,0,2.233a16.391,16.391,0,0,0,.045,2.177c.753.09,7.112.056,7.438-.039v-4.371Zm10.391,0c0,.764-.01,1.5,0,2.234a15.866,15.866,0,0,0,.047,2.189h7.387a29.849,29.849,0,0,0,0-4.423Zm7.461,19.541h-7.457c0,1.488-.033,2.952.02,4.427h7.409A33.77,33.77,0,0,0,1576.282-749.924Zm-10.368.007h-7.482c0,1.484-.028,2.937.021,4.411h7.462Z" transform="translate(-1487.003 773)" fill="#9f9f9f"/><path d="M1329.822-599.992a2.46,2.46,0,0,1,1.247-.152,4.2,4.2,0,0,0,.53.026q4.95,0,9.9,0h.53c.016.129.032.2.033.271q.018,2.04.031,4.079c0,.059,0,.118,0,.177,0,.138-.063.251-.2.238a.36.36,0,0,1-.262-.167,2.137,2.137,0,0,1-.1-.518,4.466,4.466,0,0,0-.53-1.9,3.437,3.437,0,0,0-2.531-1.6,15.734,15.734,0,0,0-3.359-.086.759.759,0,0,0-.185.07v7.652a4.257,4.257,0,0,0,1.952-.164,2.145,2.145,0,0,0,1.659-2.184c.011-.222.082-.367.3-.419a19.653,19.653,0,0,1,.021,6.117c-.251-.036-.333-.193-.323-.432a2.18,2.18,0,0,0-.313-1.18,2.21,2.21,0,0,0-1.4-1.012,4.93,4.93,0,0,0-1.9-.123v8.09a1.918,1.918,0,0,0,.4.077,22.6,22.6,0,0,0,3.233-.088c.481-.077.96-.171,1.431-.292a3.946,3.946,0,0,0,2.784-3.569,5.167,5.167,0,0,1,.051-.573c.037-.2.163-.265.394-.133v5.1h-.446q-4.883,0-9.766,0c-.99,0-1.979.031-2.969.051a1.537,1.537,0,0,0-.217.034v-.533a15.081,15.081,0,0,0,2.244-.073c.094-.552.068-16.044-.036-16.383-.445,0-.9,0-1.359,0a1.3,1.3,0,0,1-.849-.231Z" transform="translate(-1329.822 652.268)" fill="#9f9f9f"/><path d="M1838.038-567.156c-.161-.012-.322-.034-.483-.034q-2.108,0-4.217,0h-.5l-.022-.488h1.488c.009-.164.02-.278.02-.392q0-3.349,0-6.7a3.893,3.893,0,0,0-.321-1.636,1.638,1.638,0,0,0-1.6-1.044,2.411,2.411,0,0,0-2.315,1.416,3.406,3.406,0,0,0-.385,1.615c.009,2.07,0,4.141,0,6.211v.524h1.549v.463h-5.269v-.461h1.534v-9.5c-.452-.029-.89-.053-1.326-.086-.2-.016-.2-.023-.221-.314a14.772,14.772,0,0,1,3.716-.043v1.229a2.878,2.878,0,0,0,.291-.313,2.594,2.594,0,0,1,2.156-1.2,4.47,4.47,0,0,1,2.657.521,3.525,3.525,0,0,1,1.721,2.931c.018.221.029.443.029.664q0,2.75,0,5.5v.505a4.641,4.641,0,0,0,1.495.108Z" transform="translate(-1676.403 636.74)" fill="#9f9f9f"/><path d="M1466.272-566.72c-.363-.111-.722-.233-1.089-.332-2.081-.557-2.269-3.146-1.089-4.418a3.734,3.734,0,0,1,2.35-1.105c.7-.1,1.4-.177,2.107-.264.014,0,.029,0,.044,0,.625-.124.789-.266.847-.891a7.93,7.93,0,0,0-.13-2.284,1.458,1.458,0,0,0-1.606-1.261,4.191,4.191,0,0,0-.7.078.549.549,0,0,0-.43.7c.039.218.1.431.137.649a.838.838,0,0,1-.427,1.016,1.124,1.124,0,0,1-1.317-.109,1.314,1.314,0,0,1-.074-1.763,2.915,2.915,0,0,1,1.318-.863,4.572,4.572,0,0,1,3.083.028,3.124,3.124,0,0,1,1.872,1.772,6.385,6.385,0,0,1,.443,2.508c.006,1.581,0,3.163.007,4.745a2.484,2.484,0,0,0,.122.734c.091.281.251.325.516.184.143-.076.272-.178.412-.259.109-.064.227-.115.344-.174.143.364.121.533-.128.728a2.14,2.14,0,0,1-2.366.251,1.3,1.3,0,0,1-.585-.585c-.117-.252-.251-.5-.395-.775-.1.116-.181.2-.246.289a3.349,3.349,0,0,1-1.9,1.295,1.676,1.676,0,0,0-.234.106Zm3.092-5.776c-.9.162-1.785.309-2.662.487a1.253,1.253,0,0,0-.485.295,1.891,1.891,0,0,0-.6,1.244,3.748,3.748,0,0,0,.234,2.334,1.232,1.232,0,0,0,1.133.713,2.28,2.28,0,0,0,2.3-1.754A10.219,10.219,0,0,0,1469.364-572.5Z" transform="translate(-1423.11 636.658)" fill="#9f9f9f"/><path d="M1579.656-575.926c-.193-.055-.386-.109-.579-.165a1.765,1.765,0,0,1-1.2-1.2,6.054,6.054,0,0,1-.188-1.927c-.009-.4.023-.8.024-1.2q0-2.638,0-5.276v-.5a9.4,9.4,0,0,0-1.871-.14v-.436l1.871-.042c0-.736.017-1.414-.007-2.091a.538.538,0,0,1,.4-.624,2.661,2.661,0,0,0,.712-.437,1.3,1.3,0,0,0,.5-.712.4.4,0,0,1,.49-.317c.049,1.375.1,2.739.148,4.154.71.121,1.433-.006,2.169.076l.029.393a.494.494,0,0,1-.14.055c-.473.005-.946,0-1.419.011-.2.005-.406.044-.648.073a90.851,90.851,0,0,0,.23,9.289,1.047,1.047,0,0,0,1.394-.467c.108-.192.189-.4.283-.6.081-.173.163-.346.417-.387a1.046,1.046,0,0,1-.077.853,2.67,2.67,0,0,1-2.167,1.553,1.171,1.171,0,0,0-.2.065Z" transform="translate(-1501.68 645.864)" fill="#9f9f9f"/><path d="M1611.239-584.45l1.477.093.034.367a44.557,44.557,0,0,1-5.27.052l-.034-.432h1.514v-.495c0-2.159.005-4.319,0-6.478a7.12,7.12,0,0,0-.108-1.187,1.843,1.843,0,0,0-2.233-1.561,2.7,2.7,0,0,0-2.2,2.251,4.915,4.915,0,0,0-.065.924c-.005,2,0,3.993,0,5.99v.538h1.541v.505h-5.222a1.567,1.567,0,0,1-.045-.216,2.418,2.418,0,0,1,.016-.275h1.52V-601.4c-.472-.186-.984-.007-1.509-.113l-.031-.4h3.669l.016.018c.01.011.025.022.027.034a1.336,1.336,0,0,1,.017.176q.005,4.215.01,8.43a.4.4,0,0,0,.029.081,1.117,1.117,0,0,0,.182-.154,3.119,3.119,0,0,1,3.2-1.266,6.736,6.736,0,0,1,1.328.314,3.114,3.114,0,0,1,1.894,2.3,8.676,8.676,0,0,1,.254,2.145c.02,1.627.006,3.254.006,4.881Z" transform="translate(-1518.979 653.489)" fill="#9f9f9f"/><path d="M1675.562-584.332h2.219c.008.178.015.315.022.481h-7.429l-.025-.465h2.174c-.041-.176-.059-.308-.1-.431-.5-1.435-1-2.87-1.5-4.3-.163-.458-.178-.451-.668-.456l-4.523-.05c-.161,0-.322,0-.493,0-.578,1.721-1.234,3.388-1.714,5.186l2.635.072v.4c-.331.087-4.54.114-5.222.031l-.029-.453c.46,0,.888-.027,1.311.008a.619.619,0,0,0,.72-.482c.424-1.225.863-2.445,1.29-3.669q.693-1.985,1.375-3.974,1.454-4.228,2.906-8.456a3.233,3.233,0,0,1,.291-.643c.178-.288.4-.28.581.01a2.21,2.21,0,0,1,.2.44q.863,2.393,1.72,4.787,1.011,2.809,2.024,5.617.794,2.207,1.585,4.415C1675.129-585.641,1675.333-585.011,1675.562-584.332Zm-4.968-5.735-2.486-7.457-.1,0-2.593,7.453Z" transform="translate(-1561.095 653.371)" fill="#9f9f9f"/><path d="M1759.157-584.689l1.473.068c.034.107.071.226.122.389h-3.824c-.012-.244-.024-.471-.041-.8-.168.158-.281.261-.391.369a2.528,2.528,0,0,1-1.793.737,4.291,4.291,0,0,1-2.268-.469,5.418,5.418,0,0,1-2.233-2.275,5.463,5.463,0,0,1,.236-5.683,5.776,5.776,0,0,1,1.821-1.845,4.34,4.34,0,0,1,3.053-.645,4.367,4.367,0,0,1,1.1.431,2.8,2.8,0,0,1,.406.271c.117-.327.164-6.238.064-7.615h-1.418c-.023-.164-.041-.286-.065-.457h3.649a.9.9,0,0,1,.107.613q0,3.017,0,6.035v10.873Zm-2.136-5.178H1757c0-.148.007-.3,0-.443q-.075-1.432-.158-2.863a.876.876,0,0,0-.428-.686,3.064,3.064,0,0,0-1.353-.505,2.437,2.437,0,0,0-2.891,1.8,8.545,8.545,0,0,0-.376,2.566c0,.53.03,1.06.058,1.589a9.822,9.822,0,0,0,.4,2.433,2.035,2.035,0,0,0,.294.589,2.668,2.668,0,0,0,3.64.474,1.983,1.983,0,0,0,.72-1.594C1756.953-587.628,1756.984-588.748,1757.021-589.867Z" transform="translate(-1622.996 653.697)" fill="#9f9f9f"/><path d="M1501.27-601.414l-1.487-.092v-.42h3.626v8.146a1.339,1.339,0,0,0,.2-.093,3.537,3.537,0,0,1,4.075-.287,5.641,5.641,0,0,1,3.033,3.834,5.4,5.4,0,0,1-2.2,5.845,3.983,3.983,0,0,1-4.911-.042c-.01-.007-.028,0-.088-.01-.043.2-.087.4-.138.635h-3.592l-.04-.431,1.521-.067Zm2.153,12.151h-.029q0,1.329,0,2.658a2.119,2.119,0,0,0,.929,1.941,3.075,3.075,0,0,0,2.2.449,1.853,1.853,0,0,0,1.42-1.076,6.846,6.846,0,0,0,.683-2.631,13.121,13.121,0,0,0-.078-2.781,9.151,9.151,0,0,0-.555-2.177,1.674,1.674,0,0,0-.878-.948,3.1,3.1,0,0,0-3.188.29,1.024,1.024,0,0,0-.433.694,4.437,4.437,0,0,0-.072.788C1503.418-591.124,1503.423-590.194,1503.423-589.263Z" transform="translate(-1448.523 653.498)" fill="#9f9f9f"/><path d="M1384.107-584.366h1.468v.445h-5.247v-.453h1.521V-601.41l-1.523-.086v-.4h3.707v.52q0,8.1,0,16.2C1384.035-584.925,1384.079-584.665,1384.107-584.366Z" transform="translate(-1365.1 653.48)" fill="#9f9f9f"/><path d="M1427.658-576.918h7.848c-1.008,1.692-2.031,3.324-3.038,4.965s-2.022,3.29-3.063,4.983a2.355,2.355,0,0,0,.431.079c1.034-.023,2.069-.032,3.1-.1a2.459,2.459,0,0,0,1.529-.627,2.515,2.515,0,0,0,.715-1.669c.017-.132.022-.265.034-.4.018-.22.146-.3.4-.3v3.514c-.141.007-.285.019-.429.019-1.243,0-2.486-.006-3.729,0-1.331.009-2.661.032-3.991.049-.16,0-.321,0-.57,0,.314-.633.685-1.154.993-1.709s.663-1.082.994-1.624.674-1.11,1.01-1.665.669-1.113,1.009-1.667.677-1.075,1.007-1.618.662-1.112,1.032-1.735c-.345-.034-.631-.073-.919-.086a6.762,6.762,0,0,0-2.539.271,1.959,1.959,0,0,0-1.374,1.864c-.009.147-.026.295-.029.442s-.095.24-.218.221a.451.451,0,0,1-.256-.194.509.509,0,0,1-.028-.259c0-.74-.006-1.479,0-2.219A4.227,4.227,0,0,1,1427.658-576.918Z" transform="translate(-1397.631 636.029)" fill="#9f9f9f"/><path d="M1551.35-572.848h-7.15c0,.39-.015.753,0,1.115.017.486.052.971.083,1.456a5.481,5.481,0,0,0,.373,1.676,1.721,1.721,0,0,0,1.306,1.142,4.352,4.352,0,0,0,3.9-.925c.289-.249.533-.549.8-.822.09-.092.19-.173.285-.258.259.245.094.436-.031.608a4.812,4.812,0,0,1-2.021,1.669,4.769,4.769,0,0,1-3.908-.063,5.414,5.414,0,0,1-3.059-5.947,5.98,5.98,0,0,1,.95-2.45,4.9,4.9,0,0,1,3.267-2.083,4.064,4.064,0,0,1,3.716,1.094,4.727,4.727,0,0,1,1.256,2.207A4.826,4.826,0,0,1,1551.35-572.848Zm-2.194-.5a6.154,6.154,0,0,0-.429-2.826,1.8,1.8,0,0,0-1.37-1.078,2.741,2.741,0,0,0-.8-.021,2.14,2.14,0,0,0-1.858,1.165,4.2,4.2,0,0,0-.427,1.57,3.335,3.335,0,0,0-.038,1.19Z" transform="translate(-1477.927 636.653)" fill="#9f9f9f"/><path d="M1799.148-573h-.547c-1.908,0-3.817,0-5.725,0-.291,0-.582.04-.921.066.024.311.056.585.065.859.017.517-.006,1.036.04,1.549a8.356,8.356,0,0,0,.241,1.431,2.061,2.061,0,0,0,2.1,1.633,4.576,4.576,0,0,0,3.973-1.843,2.913,2.913,0,0,1,.326-.3.607.607,0,0,1-.184.8,9.18,9.18,0,0,1-1.166,1.014,7.653,7.653,0,0,1-1.211.633,4.142,4.142,0,0,1-1.615.191,3.685,3.685,0,0,1-1.6-.312,5.491,5.491,0,0,1-3.316-4.931,6.051,6.051,0,0,1,.838-3.3,4.8,4.8,0,0,1,4.922-2.372,4.056,4.056,0,0,1,2.56,1.458,4.694,4.694,0,0,1,1.133,2.686C1799.093-573.514,1799.116-573.3,1799.148-573Zm-2.227-.463a6.488,6.488,0,0,0-.189-2.241,2.081,2.081,0,0,0-1.613-1.694,2.939,2.939,0,0,0-.838-.031,2.021,2.021,0,0,0-1.859,1.286,8.326,8.326,0,0,0-.363,1.449,12.251,12.251,0,0,0-.1,1.232Z" transform="translate(-1651.006 636.729)" fill="#9f9f9f"/><path d="M1722.309-576.517a8.573,8.573,0,0,1,.586-.822,1.666,1.666,0,0,1,.568-.395,2.862,2.862,0,0,1,1.991-.072,1.793,1.793,0,0,1,.869,2.573,1.263,1.263,0,0,1-1.762.3.646.646,0,0,1-.277-.575,4.263,4.263,0,0,1,.087-.522,3.3,3.3,0,0,0,.085-.343c.022-.256.137-.55-.14-.733a.768.768,0,0,0-.917,0,2.224,2.224,0,0,0-.593.639,3.746,3.746,0,0,0-.578,2.149c.027.412.009.828,0,1.242-.018,1.565-.042,3.131-.055,4.7a6.325,6.325,0,0,0,.068.681h1.5v.493h-5.264l-.04-.482h1.474c.118-.337.159-8.715.052-9.5l-.591-.043c-.25-.018-.5-.022-.748-.063-.069-.011-.151-.126-.167-.206-.01-.048.087-.165.148-.174a6.447,6.447,0,0,1,.878-.085c.871-.01,1.741,0,2.656,0l.068,1.259Z" transform="translate(-1601.289 636.749)" fill="#9f9f9f"/><path d="M1404.714-576.364l-1.464-.09-.1-.426h3.734c.03,3.306.06,6.611.091,9.979h1.474v.486h-5.254l-.026-.46,1.546-.043Z" transform="translate(-1381.043 636.002)" fill="#9f9f9f"/><path d="M1408.74-598.67a1.343,1.343,0,0,1-1.368-1.469,1.4,1.4,0,0,1,1.468-1.45,1.368,1.368,0,0,1,1.368,1.533A1.394,1.394,0,0,1,1408.74-598.67Z" transform="translate(-1383.994 653.262)" fill="#9f9f9f"/><path d="M1576.2-727.437H1571.8c-.087-.313-.114-8.321-.026-8.955h4.4C1576.267-736.086,1576.3-728.047,1576.2-727.437Z" transform="translate(-1498.797 747.428)" fill="#9f9f9f"/><path d="M1606.321-736.456h4.479c.03,1,.008,2,.012,2.993s0,1.978,0,2.966v3.029h-4.491Z" transform="translate(-1522.968 747.472)" fill="#9f9f9f"/><path d="M1576.273-664.131h-4.43v-7.47h4.418C1576.359-671.286,1576.378-664.627,1576.273-664.131Z" transform="translate(-1498.884 702.169)" fill="#9f9f9f"/><path d="M1610.766-671.634v7.468h-4.455v-7.468Z" transform="translate(-1522.961 702.191)" fill="#9f9f9f"/><path d="M1571.855-756.406h4.467v1.45h-4.467Z" transform="translate(-1498.892 761.408)" fill="#9f9f9f"/><path d="M1606.3-754.952v-1.455h4.436v1.455Z" transform="translate(-1522.953 761.409)" fill="#9f9f9f"/><path d="M1610.787-691.593c0,.49,0,.956,0,1.423a32.057,32.057,0,0,1-4.468.038v-1.462Z" transform="translate(-1522.967 716.134)" fill="#9f9f9f"/><path d="M1571.819-690.207v-1.435a34.653,34.653,0,0,1,4.472-.029v1.464Z" transform="translate(-1498.867 716.229)" fill="#9f9f9f"/></g></g></svg>