<svg xmlns="http://www.w3.org/2000/svg" width="161.635" height="41.808" viewBox="0 0 161.635 41.808"><g transform="translate(0 0)"><g transform="translate(0 0)"><path d="M2075.647-1371.049a1.042,1.042,0,0,1-.162-.342,3.344,3.344,0,0,0-2.7-3.185,9.452,9.452,0,0,0-2.564-.288c-1.547.017-3.094,0-4.64.01-.291,0-.579.076-.87.1a.531.531,0,0,0-.482.451,2.734,2.734,0,0,0-.115.692c-.008,2.248,0,4.5-.012,6.745,0,.47.15.721.743.721,1.758,0,3.517,0,5.275,0a8.2,8.2,0,0,0,1.4-.076,2.051,2.051,0,0,0,1.653-1.693,3.179,3.179,0,0,1,.208-.632v5.78l-.06.012c-.049-.232-.1-.464-.147-.7a2.5,2.5,0,0,0-.658-1.32,1.705,1.705,0,0,0-1.2-.508c-2.042-.037-4.086-.066-6.128-.055-.754,0-1.077.238-1.079,1.082q-.005,4.972,0,9.945a1.983,1.983,0,0,0,0,.2c.038.417.2.582.625.589,1.726.025,3.452.061,5.177.051a16.11,16.11,0,0,0,2.385-.178,4.041,4.041,0,0,0,2.223-1.037,3.439,3.439,0,0,0,.9-1.883c.051-.258.147-.507.222-.76V-1356a1.455,1.455,0,0,0-.059.287c0,1,0,2.008,0,3.033h-17.333l-.006-.041c.238-.054.482-.091.714-.165a2.32,2.32,0,0,0,1.527-1.477,4.594,4.594,0,0,0,.287-1.636c0-5.543.011-11.087-.015-16.63a2.909,2.909,0,0,0-.86-2.211,2.849,2.849,0,0,0-1.351-.6c-.034-.008-.065-.025-.092-.108h17.055c0,.028.013.092.014.156.02,1.236.038,2.471.061,3.707a1.028,1.028,0,0,0,.059.23Z" transform="translate(-1914.011 1381.313)" fill="#9f9f9f"/><path d="M1471.745-1352.194a4.486,4.486,0,0,0,2.674-1.086,1.649,1.649,0,0,0,.505-1.218q-.009-8.664,0-17.327a2.4,2.4,0,0,0-.685-1.743,3.413,3.413,0,0,0-1.782-1.01.554.554,0,0,1-.306-.2h9.29l.015.055c-.17.052-.341.1-.511.155-.394.124-.8.222-1.179.38a2.36,2.36,0,0,0-1.444,1.868,3.868,3.868,0,0,0-.058.708c0,5.824,0,11.648-.01,17.471,0,.926.491,1.16,1.188,1.187,1.574.06,3.153.062,4.727,0a5.327,5.327,0,0,0,3.195-.965,3.774,3.774,0,0,0,1.288-1.63c.165-.439.309-.885.468-1.326.017-.048.069-.083.176-.1-.3,1.617-.606,3.235-.919,4.9h-16.628Z" transform="translate(-1471.745 1380.739)" fill="#9f9f9f"/><path d="M1869.946-1253.927c-.362-.078-.726-.15-1.086-.236a3.586,3.586,0,0,1-1.855-1.028,6.646,6.646,0,0,1-.637-1l1.561-.489a2.09,2.09,0,0,0,1.735,1.282,4.907,4.907,0,0,0,2.694-.164,1.145,1.145,0,0,0,.448-.288.6.6,0,0,0-.165-1.012,7.351,7.351,0,0,0-1.4-.406,17.961,17.961,0,0,1-2.916-.525,2.244,2.244,0,0,1-1.493-1.272,2.047,2.047,0,0,1,.643-2.255,4.044,4.044,0,0,1,2.151-.67,6.984,6.984,0,0,1,1.257-.053,4.984,4.984,0,0,1,2.571.744,2.575,2.575,0,0,1,1,1.346l-1.353.47a5.31,5.31,0,0,0-.792-.8,2.772,2.772,0,0,0-1.014-.383,4.706,4.706,0,0,0-2.294.108c-.325.1-.638.239-.712.643-.044.24.011.433.239.514a9.02,9.02,0,0,0,1.284.4c1.016.2,2.058.289,3.058.548a1.992,1.992,0,0,1,1.726,2.118,2.026,2.026,0,0,1-1.1,1.792,4.264,4.264,0,0,1-1.991.563c-.039,0-.075.038-.114.059Z" transform="translate(-1769.32 1295.735)" fill="#9f9f9f"/><path d="M1855.056-1399c.61.315,1.217.636,1.829.945q1.8.908,3.6,1.806c1.143.568,2.289,1.128,3.434,1.691a.429.429,0,0,1,.2.166c-.718-.223-1.434-.448-2.153-.667q-2.71-.824-5.423-1.644a10.251,10.251,0,0,1-1.1-.354,1.446,1.446,0,0,0-1.061-.03q-2.207.688-4.417,1.367-2.14.66-4.282,1.315c-.021.006-.048-.011-.135-.032.4-.206.758-.392,1.117-.568,1.009-.5,2.021-.987,3.03-1.484q2.29-1.128,4.577-2.262c.165-.081.329-.165.493-.248Z" transform="translate(-1753.623 1399)" fill="#9f9f9f"/><path d="M1959.515-1375.9c-.12.042-.239.088-.361.128a2.408,2.408,0,0,0-1.745,2.208,6.937,6.937,0,0,0,.124,1.629c.06.536.112,1.073.18,1.609.087.693.192,1.384.279,2.078.068.535.114,1.073.182,1.609.088.693.191,1.384.279,2.078.067.526.117,1.054.182,1.58.067.544.144,1.086.213,1.63.066.526.125,1.052.191,1.578.07.553.147,1.1.216,1.658.065.516.108,1.036.19,1.549a4.172,4.172,0,0,0,1.373,2.92,4.093,4.093,0,0,0,.918.4.556.556,0,0,1,.25.152h-7.761l-.018-.049c.181-.069.36-.14.542-.206a1.942,1.942,0,0,0,1.176-1.515,3.74,3.74,0,0,0,.114-.955,9.734,9.734,0,0,0-.114-1.188c-.085-.626-.19-1.25-.28-1.875q-.176-1.219-.341-2.44c-.065-.478-.115-.958-.18-1.435-.089-.654-.191-1.307-.281-1.962-.065-.478-.115-.958-.18-1.436-.089-.655-.191-1.307-.28-1.962-.085-.628-.155-1.257-.24-1.885-.108-.8-.224-1.595-.337-2.392l-.1-.013c-.162.353-.334.7-.486,1.059-.442,1.039-.877,2.081-1.313,3.123q-.644,1.536-1.286,3.073t-1.292,3.071l-1.3,3.1c-.42,1-.836,2-1.262,2.991-.117.274-.294.289-.434.023-.271-.517-.517-1.047-.762-1.577s-.479-1.086-.725-1.626q-1.214-2.664-2.434-5.324-.7-1.53-1.411-3.057-.91-1.964-1.824-3.926a4.937,4.937,0,0,0-.258-.432l-.1.032a4.025,4.025,0,0,0-.076.4c-.08.859-.154,1.719-.231,2.579-.057.643-.108,1.286-.177,1.927-.085.79-.191,1.577-.28,2.367-.049.434-.077.869-.123,1.3-.07.659-.151,1.316-.223,1.974-.045.415-.078.831-.123,1.246-.073.668-.155,1.335-.224,2-.047.453-.075.908-.123,1.361-.049.47-.1.941-.171,1.408a1.961,1.961,0,0,0,1.172,1.954c.313.11.633.2.944.328h-5.517a2.235,2.235,0,0,1,.35-.146,2.269,2.269,0,0,0,1.68-1.564,6.833,6.833,0,0,0,.343-1.886c.067-.6.154-1.2.222-1.8.049-.433.076-.87.123-1.3.068-.62.149-1.239.22-1.859.045-.4.081-.792.125-1.187.074-.667.153-1.335.225-2,.063-.594.115-1.189.179-1.783.068-.63.149-1.258.22-1.888.045-.4.081-.811.126-1.216.073-.658.141-1.317.228-1.973a4.569,4.569,0,0,0-.515-3.047,2.542,2.542,0,0,0-1.552-1.11c-.053-.016-.107-.032-.159-.052-.033-.013-.063-.033-.147-.079a1.272,1.272,0,0,1,.168-.033q2.3-.031,4.6-.058c.3,0,.6.01.893,0a.265.265,0,0,1,.291.2q.94,2.074,1.894,4.141t1.9,4.139c.62,1.354,1.234,2.711,1.854,4.065.262.573.534,1.141.8,1.71a.774.774,0,0,0,.085.112c.719-1.687,1.426-3.354,2.138-5.018q.995-2.323,2-4.644c.648-1.5,1.3-3.006,1.938-4.516.063-.149.125-.184.264-.184,1.345,0,2.691-.005,4.036.005.436,0,.871.053,1.307.081Z" transform="translate(-1820.068 1381.674)" fill="#9f9f9f"/><path d="M1847.28-1354.137a13.157,13.157,0,0,1-4.484-.822,10.411,10.411,0,0,1-2.953-1.7,11.9,11.9,0,0,1-3.3-4.11,12.653,12.653,0,0,1-.9-2.932,11.371,11.371,0,0,1-.229-2.837,9.5,9.5,0,0,1,.4-2.539,12.7,12.7,0,0,1,.661-1.857,15.536,15.536,0,0,1,1.287-2.057,11.2,11.2,0,0,1,1.279-1.456,12.121,12.121,0,0,1,2.276-1.677,12.152,12.152,0,0,1,3.6-1.291,13.25,13.25,0,0,1,1.636-.187c.274-.027.549-.046.825-.058a10.776,10.776,0,0,1,2.978.373,11.493,11.493,0,0,1,2.587.959,10.751,10.751,0,0,1,2.18,1.517,11.461,11.461,0,0,1,3.239,4.558,11.06,11.06,0,0,1,.72,2.8,15.151,15.151,0,0,1,.009,2.656,16.767,16.767,0,0,1-.4,2.364,7.189,7.189,0,0,1-.456,1.212,11.753,11.753,0,0,1-1.49,2.562,10.361,10.361,0,0,1-2,2.014,14.791,14.791,0,0,1-2.032,1.274,9.34,9.34,0,0,1-3.192.991C1848.773-1354.281,1848.026-1354.215,1847.28-1354.137Zm7.221-11.543.12-.005c-.078-.977-.162-1.953-.232-2.931a10.983,10.983,0,0,0-.526-2.569,9.277,9.277,0,0,0-1.818-3.425,6.109,6.109,0,0,0-4.079-2,6.109,6.109,0,0,0-3.992.83,6.747,6.747,0,0,0-1.916,1.724,10.191,10.191,0,0,0-1.544,3.462,18.591,18.591,0,0,0-.6,3.767c-.042.858.027,1.722.047,2.583a.782.782,0,0,0,.006.086c.075.571.119,1.148.232,1.711a13.174,13.174,0,0,0,.526,2.069,20.854,20.854,0,0,0,1.007,2.053,5.751,5.751,0,0,0,2.073,2.243,5.954,5.954,0,0,0,2.3.906,6.578,6.578,0,0,0,2.3-.048,6.354,6.354,0,0,0,1.873-.766,6.652,6.652,0,0,0,2.665-2.76c.26-.491.469-1.009.7-1.515a10.56,10.56,0,0,0,.847-3.35A20.508,20.508,0,0,0,1854.5-1365.68Z" transform="translate(-1745.972 1382.912)" fill="#9f9f9f"/><path d="M1653.114-1372.585a2.194,2.194,0,0,0-.07.362c0,5.6-.016,11.206.012,16.809a2.033,2.033,0,0,0,1.358,1.969c.279.078.572.107.859.16a.212.212,0,0,1,.143.084h-5.978l-.014-.043c.167-.052.335-.1.5-.157a2.6,2.6,0,0,0,1.4-.787,1.707,1.707,0,0,0,.4-1.039q.034-8.932.055-17.865a2.877,2.877,0,0,0-.848-2.179,3.889,3.889,0,0,0-1.6-.8c-.033-.01-.064-.027-.163-.069a1.421,1.421,0,0,1,.181-.036c1.688-.02,3.376-.043,5.064-.057.888-.008.872.011,1.406.729.44.592.925,1.15,1.388,1.724q.891,1.1,1.781,2.211.687.85,1.379,1.7c.519.64,1.041,1.277,1.558,1.919s1.025,1.286,1.54,1.928q1.057,1.317,2.118,2.631c.608.75,1.222,1.5,1.833,2.244.077.094.151.191.265.334.01-.131.022-.209.022-.287,0-4,.008-8-.006-11.994a3.81,3.81,0,0,0-.49-1.956,2.475,2.475,0,0,0-1.6-1.075,1.764,1.764,0,0,1-.314-.1h6.189l.014.04c-.2.076-.406.164-.615.226a2.634,2.634,0,0,0-1.781,1.833,3.614,3.614,0,0,0-.135,1.125q-.011,9.774-.011,19.548a1.64,1.64,0,0,1-.137.451,1.533,1.533,0,0,1-.47-.267c-.7-.865-1.386-1.747-2.074-2.625-.74-.945-1.474-1.894-2.216-2.837-.615-.781-1.239-1.554-1.857-2.331q-.8-1-1.586-2-.94-1.191-1.877-2.383-.906-1.147-1.815-2.291-.941-1.19-1.878-2.383C1654.412-1370.93,1653.783-1371.732,1653.114-1372.585Z" transform="translate(-1605.53 1381.835)" fill="#9f9f9f"/><path d="M1572.444-1353.4h-7.711l-.01-.038c.242-.076.485-.15.725-.23a1.419,1.419,0,0,0,.976-1.323,4.273,4.273,0,0,0-.466-1.849c-.538-1.315-1.072-2.632-1.616-3.944-.324-.781-.668-1.554-1-2.333a.488.488,0,0,0-.5-.3c-1.97,0-3.94-.011-5.91.005a.89.89,0,0,0-.888.625c-.663,1.69-1.363,3.366-2.048,5.047-.287.705-.588,1.406-.851,2.121a1.426,1.426,0,0,0,.074,1.41,1.647,1.647,0,0,0,1.09.542,3.638,3.638,0,0,1,.745.2h-5.4l-.01-.042c.152-.046.309-.08.456-.138a2.737,2.737,0,0,0,1.463-1.364c.431-.866.8-1.764,1.183-2.653.4-.933.791-1.873,1.184-2.81q.738-1.757,1.475-3.514c.387-.92.78-1.837,1.167-2.756.439-1.041.873-2.083,1.312-3.124.447-1.058.9-2.113,1.346-3.171s.87-2.1,1.324-3.149c.072-.165.234-.386.375-.4a.536.536,0,0,1,.533.349c.2.477.416.948.618,1.425q.6,1.4,1.186,2.809l1.295,3.07,1.184,2.81,1.47,3.486,1.173,2.784q.74,1.756,1.481,3.512a7.343,7.343,0,0,0,1.359,2.272,1.657,1.657,0,0,0,1.07.582C1572.331-1353.489,1572.36-1353.455,1572.444-1353.4Zm-12.41-11.226h2.363c.406,0,.448-.075.312-.452-.67-1.856-1.332-3.715-2-5.571a6.855,6.855,0,0,0-.355-.86c-.16-.307-.373-.293-.543.009a2.991,2.991,0,0,0-.2.342q-1.177,2.946-2.346,5.895c-.191.48-.089.637.436.638Z" transform="translate(-1530.487 1382.104)" fill="#9f9f9f"/><path d="M1764.464-1376.768v6.055l-.056.032c-.159-.287-.313-.576-.478-.859-.383-.66-.729-1.347-1.165-1.97a7.288,7.288,0,0,0-3.328-2.607,6.667,6.667,0,0,0-3.212-.444,6.893,6.893,0,0,0-3.62,1.464,11.152,11.152,0,0,0-2.9,3.668,11.559,11.559,0,0,0-1.119,3.421,15.928,15.928,0,0,0-.23,2.259,12.713,12.713,0,0,0,.462,3.708,11.193,11.193,0,0,0,1.486,3.342,8.328,8.328,0,0,0,4.94,3.447,7.219,7.219,0,0,0,3.014.042,10.552,10.552,0,0,0,3.479-1.278,11.522,11.522,0,0,0,2.676-2.2,2.207,2.207,0,0,1,.249-.2l.074.061c-.162.264-.3.544-.489.789a9.611,9.611,0,0,1-4.633,3.387,10.462,10.462,0,0,1-2.745.514,13.809,13.809,0,0,1-5.667-.9,9.9,9.9,0,0,1-4.1-2.937,10.929,10.929,0,0,1-2.352-4.618,12.779,12.779,0,0,1-.25-1.823,7.991,7.991,0,0,1-.05-1.573,17.853,17.853,0,0,1,.431-2.562,11.609,11.609,0,0,1,1.838-3.823,12.465,12.465,0,0,1,2.6-2.664,12.04,12.04,0,0,1,4.458-2.133,8.72,8.72,0,0,1,2.6-.261,13.775,13.775,0,0,1,3.977.688c.6.217,1.186.48,1.791.686a9.71,9.71,0,0,0,1.2.29.509.509,0,0,0,.524-.274l.529-.756Z" transform="translate(-1677.368 1382.744)" fill="#9f9f9f"/><path d="M1792.862-1261.361c1.8,0,3.578-.021,5.356.012a3.008,3.008,0,0,1,1.662.479,1.767,1.767,0,0,1,.779,1.292,2.5,2.5,0,0,1-.5,2.065,2.6,2.6,0,0,1-1.584.848l2.349,3.137c-.665,0-1.263,0-1.861-.006-.055,0-.12-.072-.161-.125-.635-.846-1.279-1.685-1.891-2.547a.728.728,0,0,0-.7-.387c-.63.032-1.263.009-1.917.009v3.036h-1.531Zm1.538,3.4c1.108,0,2.183.012,3.257-.008a3.23,3.23,0,0,0,.878-.167.869.869,0,0,0,.589-.949.755.755,0,0,0-.6-.787,4.11,4.11,0,0,0-.968-.165c-.95-.022-1.9-.008-2.851-.008h-.3Z" transform="translate(-1713.891 1295.215)" fill="#9f9f9f"/><path d="M1700.945-1261.364c1.781,0,3.54-.024,5.3.014a2.73,2.73,0,0,1,1.683.5,1.856,1.856,0,0,1,.767,1.418,8.015,8.015,0,0,1-.056,1.226,1.6,1.6,0,0,1-.865,1.16,2.715,2.715,0,0,1-1.4.4c-1.187.032-2.376.043-3.564.062-.1,0-.206,0-.331,0v2.979h-1.531Zm1.537,3.4c1.278,0,2.524.005,3.771-.006a1.057,1.057,0,0,0,.481-.139,1,1,0,0,0,.333-1.185.632.632,0,0,0-.45-.5,2.959,2.959,0,0,0-.717-.135c-1.036-.015-2.073-.006-3.109-.006h-.31Z" transform="translate(-1644.579 1295.217)" fill="#9f9f9f"/><path d="M1749.005-1253.589h-1.628c-.255-.537-.5-1.075-.768-1.6a.347.347,0,0,0-.25-.166c-1.411-.01-2.822-.007-4.236-.007-.247.56-.487,1.111-.735,1.657a.23.23,0,0,1-.158.124c-.515.009-1.029.006-1.592.006.055-.126.089-.211.129-.292q1.367-2.771,2.734-5.542c.288-.584.578-1.168.853-1.759a.272.272,0,0,1,.3-.187c.46.01.922.011,1.382,0a.274.274,0,0,1,.293.194c.6,1.232,1.212,2.457,1.814,3.688s1.2,2.48,1.8,3.721C1748.968-1253.709,1748.981-1253.656,1749.005-1253.589Zm-3.085-3.1-1.578-3.358-1.554,3.358Z" transform="translate(-1673.756 1295.209)" fill="#9f9f9f"/><path d="M1845.3-1253.521h-1.565v-7.751h1.565Z" transform="translate(-1752.253 1295.143)" fill="#9f9f9f"/></g></g></svg>