<svg xmlns="http://www.w3.org/2000/svg" width="101.836" height="59.036" viewBox="0 0 101.836 59.036"><g transform="translate(0)"><path d="M733.647-1679.805l1.083-.8a2.724,2.724,0,0,1,.289.654,15.635,15.635,0,0,1,.032,4.026.883.883,0,0,0,.2.612,9.886,9.886,0,0,0,2.638,2.014l.355.2-.2.24c.433-.126.781-.251,1.14-.323a1.89,1.89,0,0,1,.548.05,2.207,2.207,0,0,1-.475.219c-1.09.218-2.181.433-3.277.616-.389.064-.5.243-.465.609a.766.766,0,0,1-.076.472,3.639,3.639,0,0,0-.345,2.9c.158.747.485,1.457.657,2.2a17.647,17.647,0,0,1,.214,1.792,2.209,2.209,0,0,0,1.157,1.786c.279.157.42.557.7.948-.3.027-.436.052-.577.052q-9.455,0-18.91.01c-.391,0-.528-.19-.646-.542h3.585c-.221-.241-.361-.391-.5-.544-.312-.345-.288-.548.123-.77.269-.146.329-.3.13-.548a.947.947,0,0,1-.2-.4,2.209,2.209,0,0,0-1.12-1.5c-.379-.246-.721-.548-1.088-.812a.376.376,0,0,1-.1-.6,6.146,6.146,0,0,1,.711-.729c.632-.559,1.283-1.1,1.913-1.658a1.788,1.788,0,0,0,.266-.421l-.095-.1a6.205,6.205,0,0,0-.693.458,11.731,11.731,0,0,1-1.383,1.228,7.4,7.4,0,0,0-2,2.147,4.183,4.183,0,0,0-.105,4.33,2.026,2.026,0,0,1,.152.428H709.64a.773.773,0,0,1,.755-.542c1.442.018,2.884,0,4.325.014.363,0,.448-.111.4-.455a3.38,3.38,0,0,1,.085-.62.392.392,0,0,0-.1-.3.4.4,0,0,1-.148-.5c.273-1.175.529-2.353.807-3.527a2.216,2.216,0,0,1,.258-.493l.17.053c-.075.546-.124,1.1-.232,1.637-.12.6-.3,1.2-.441,1.8-.082.347-.254.682-.016,1.058.083.133.014.375-.016.563-.082.505.109.762.622.762a.344.344,0,0,0,.221-.255c-.045-.346-.145-.68-.6-.779.166-.866.325-1.7.486-2.535.034-.175.08-.348.11-.524.086-.5.2-1,.24-1.5.047-.6.745-.663.908-1.285-.923.281-1.81.5-2.653.828a1.54,1.54,0,0,0-1.061,1.56.624.624,0,0,1-.419.687c-.375.106-.779.249-1.114-.121a2.641,2.641,0,0,0-.2-.2.782.782,0,0,0-1.016-.2,5.642,5.642,0,0,1-.835.325,3.3,3.3,0,0,1-.171,3.341,3.039,3.039,0,0,1-2.181,1.409,3.2,3.2,0,0,1-2.8-.876,3.2,3.2,0,0,1-.959-2.764l-1.512-.352a2.208,2.208,0,0,1,.309-.287,2.884,2.884,0,0,1,.522-.241,3.633,3.633,0,0,0,1.741-1.073,5.989,5.989,0,0,1,1.339-.874c-.733.056-1.426.091-2.113.171-.264.031-.43-.019-.513-.265-.324-.959-.874-1.273-1.964-1.133a15.053,15.053,0,0,1-6.741-.994,3.5,3.5,0,0,0-2.864.084c-.7.384-.906.9-.576,1.532a3.906,3.906,0,0,1,2.216-.111,3.966,3.966,0,0,1,1.9,1.172,1.481,1.481,0,0,0,.606.357c.452.146.92.246,1.381.365l.014.124-1.3.339a3.619,3.619,0,0,1-1.335,4.155,3.437,3.437,0,0,1-3.849.3,3.638,3.638,0,0,1-1.87-4.262l-1.357-.292-.009-.117c.45-.142.9-.3,1.352-.42a1.3,1.3,0,0,0,.737-.463,11.751,11.751,0,0,1,.868-.811.44.44,0,0,0,.14-.32,1.655,1.655,0,0,1,.874-1.9,1.827,1.827,0,0,1,.373-.174,1.381,1.381,0,0,0,1.068-1.387c.012-.233.025-.466.048-.7.085-.835-.069-1.5-1.024-1.762a1.9,1.9,0,0,1-.853-.554,3.076,3.076,0,0,1-.624-1.031c-.164-.477.135-.781.64-.7a5.737,5.737,0,0,1,.863.281l.178-.424c.176.084.352.165.525.254a.184.184,0,0,1,.074.1c.244.687.82.811,1.443.858,1.273.1,2.551.148,3.817.3a9.093,9.093,0,0,1,2.1.55,3.706,3.706,0,0,1,1.777,1.651c.561.91,1.153,1.8,1.774,2.673a4.1,4.1,0,0,0,7.005-.7c.474-1.005.972-2,1.482-2.987a8.237,8.237,0,0,1,2.027-2.622c.137-.113.284-.216.431-.316.04-.027.1-.03.209.013-.077.094-.159.185-.229.284-.682.958-1.367,1.916-2.042,2.879a.866.866,0,0,0-.085.961,12.111,12.111,0,0,0,.587,1.171,1.949,1.949,0,0,0,2.035.869c.284-.04.355-.143.344-.42a6.564,6.564,0,0,1,.78-3.654,3.278,3.278,0,0,1,1.537-1.378c.31-.139.588-.351.89-.51a5.032,5.032,0,0,1,4.451-.173l-.405.442a13.247,13.247,0,0,0-3.016,5.555.548.548,0,0,1-.268.348c-.612.2-1.237.358-1.854.53v-1.454l-.7.389-.147-.317-.227.38c.641.141.27.7.6,1.062l-1.5.284-.142-.771c-1.89.367-2.7-.792-3.287-2.394-.129.283-.221.486-.314.688-.343.748-.661,1.509-1.036,2.24a3.684,3.684,0,0,1-2.732,2.1c-.133.024-.263.066-.451.114a1.671,1.671,0,0,0,1.371.231,37.887,37.887,0,0,1,5.349-1.311c4.306-.549,8.285-2.1,12.28-3.646a.52.52,0,0,1,.084-.026l1.786,2.357a1.338,1.338,0,0,1-.217.075,5.686,5.686,0,0,1-3.708-.254,2.949,2.949,0,0,0-2.512-.162c-.074.032-.145.07-.235.114a1.251,1.251,0,0,1-.5,1.312c-.478.433-.986.833-1.466,1.262a.9.9,0,0,0-.222,1.371,7.9,7.9,0,0,0,.948,1.13,1.419,1.419,0,0,1,.545,1.272,8.963,8.963,0,0,0,.143,1.918c.087.006.206.021.325.021H734.42c.205,0,.433.043.452-.268.015-.239.277-.536-.188-.662-.086-.023-.141-.24-.17-.375a4.72,4.72,0,0,0-.34-1.543,19.811,19.811,0,0,1-1.515-3.658.614.614,0,0,0-.483-.421,13.025,13.025,0,0,1-1.529-.473,4.051,4.051,0,0,1-2.471-2.884.512.512,0,0,1,.322-.725c1.229-.607,2.456-1.227,3.624-1.94.5-.308.893-.583,1.518-.344a3.062,3.062,0,0,0,1.1-.036l-.209-.5.347.089a14.935,14.935,0,0,0-.094-4.492c-.29.207-.546.383-.793.57-.146.11-.262.158-.333-.066Zm-32.262,6.214.049-.091a2.039,2.039,0,0,0-.153-.175,4.923,4.923,0,0,0-3.1-1.149c-.766-.057-1.535-.1-2.3-.08a7.079,7.079,0,0,1-3.862-1.09c-.155-.094-.4-.044-.6-.061.014.215-.042.47.055.638a3.043,3.043,0,0,0,1.956,1.321,9.036,9.036,0,0,0,3.108.119C698.188-1674.272,699.851-1674.531,701.385-1673.591Zm34.964,11.448a.383.383,0,0,0,0-.117c-.013-.037-.043-.093-.07-.1-.628-.056-.558-.547-.613-.964a1.14,1.14,0,0,0-.088-.316c-.236-.527-.517-1.036-.712-1.578-.4-1.121-.762-2.258-1.142-3.388a.689.689,0,0,0-.144-.291.934.934,0,0,0-.305-.123c-.025.093-.084.193-.068.278.039.2.122.392.172.592.4,1.579,1.28,2.995,1.54,4.62.01.061.074.111.106.17a3.416,3.416,0,0,1,.309.609C735.534-1662.046,735.618-1661.986,736.349-1662.143Zm-18.992-9.365c.755-.293.762-.3.692-.994a4.35,4.35,0,0,1,.74-3.307C717.686-1675.381,717.1-1673.585,717.358-1671.508Zm20.415-1.436-2.44-1.688c-.275.749.569,1.3.28,2.081Zm-26.712,5.567.019.115c.249.162.5.32.746.489a2.734,2.734,0,0,0,1.58-.155.381.381,0,0,0,.06-.106c.133-.326.266-.653.431-1.061Zm-18.506,3.355c-.04-.063-.068-.145-.126-.183a.2.2,0,0,0-.178.027c-.45.338-.9.672-1.332,1.036a.4.4,0,0,0-.056.382,4.6,4.6,0,0,0,.758.557c.048.029.229-.049.257-.116C692.113-1662.874,692.326-1663.438,692.555-1664.022Zm.75.058c.111.6.2,1.151.325,1.7.023.1.206.265.255.245a5.714,5.714,0,0,0,.874-.435c.046-.028.055-.227.006-.287-.372-.455-.759-.9-1.151-1.335a.235.235,0,0,0-.215-.034C693.345-1664.089,693.323-1663.994,693.305-1663.964Zm14.258,2.169c.457-.2.842-.351,1.206-.541.052-.027.064-.281,0-.355-.294-.36-.615-.7-.937-1.034a.277.277,0,0,0-.237-.068.264.264,0,0,0-.152.2C707.472-1663.039,707.516-1662.484,707.563-1661.8Zm-14.676-.079c.442.017.548-.088.478-.523-.076-.472-.167-.941-.268-1.407-.019-.089-.113-.163-.173-.244-.069.071-.169.129-.2.214-.154.394-.29.8-.432,1.195-.229.644-.182.713.514.76Zm-2.983-3.264c-.017.486.09.589.573.51.459-.075.917-.164,1.373-.26.077-.016.14-.1.21-.15-.061-.076-.107-.193-.186-.222-.4-.148-.8-.272-1.206-.406C690.026-1665.879,689.927-1665.811,689.9-1665.139Zm20.085.5c-.006-.052-.032-.187-.039-.323-.018-.372-.163-.475-.521-.309s-.743.275-1.108.43c-.092.039-.21.157-.209.238s.13.187.224.22c.335.116.679.207,1.02.305C709.927-1663.913,709.992-1663.963,709.988-1664.638Zm-14.173-5.632-1.826-1.76-.523,1.316Zm8.88,6.662c.6-.26,1.12-.475,1.628-.706a.284.284,0,0,0,.136-.217.258.258,0,0,0-.156-.191c-.541-.115-1.086-.212-1.739-.336Zm2.581.845c-.021-.249-.035-.523-.073-.792a.319.319,0,0,0-.146-.2c-.036-.021-.15.039-.189.092-.29.4-.576.8-.848,1.205a.305.305,0,0,0,.006.247c.384.12.775.221,1.164.326.029-.242.057-.485.085-.728A1.441,1.441,0,0,0,707.276-1662.764Zm-15.046-1.821c-.149-.041-.244-.1-.326-.085-.512.09-1.024.184-1.531.3-.3.068-.408.256-.252.551.057.109.11.22.161.333.122.271.29.292.513.109.393-.32.792-.631,1.186-.95A3.359,3.359,0,0,0,692.23-1664.584Zm2.985,1.751c.143-.188.278-.365.412-.543.209-.277.158-.475-.177-.592-.466-.163-.928-.335-1.4-.489a.749.749,0,0,0-.286.028.759.759,0,0,0,.092.249c.346.391.7.774,1.056,1.154A1.814,1.814,0,0,0,695.215-1662.834Zm-1.3-2.14-.021.156c.114.053.225.116.344.159.334.122.671.237,1.006.355.743.262.833.2.825-.609,0-.041.016-.1,0-.121-.067-.084-.156-.232-.22-.224C695.2-1665.178,694.561-1665.072,693.918-1664.974Zm39.506-4.365c-.126-.423-.3-.643-.75-.558a4,4,0,0,1-2.413-.294.978.978,0,0,0-.311-.028C731.019-1669.574,732.083-1668.954,733.424-1669.339Zm-28.628,5.966.886,1.011c.364-.525.679-.969.979-1.423a.264.264,0,0,0,0-.246.264.264,0,0,0-.242-.059C705.91-1663.874,705.4-1663.643,704.8-1663.373Zm4.379.812.73-1.146c-.621-.163-1.157-.309-1.7-.439a.329.329,0,0,0-.238.077c-.022.017.015.152.059.2C708.383-1663.454,708.745-1663.049,709.175-1662.561Zm-15.121-2.656c.6-.1,1.125-.172,1.645-.289.1-.024.169-.219.252-.334-.116-.074-.226-.195-.348-.21a2.925,2.925,0,0,0-.571.048c-.394.031-.8.024-1.077.384-.056.074-.12.194-.1.262S694.012-1665.244,694.054-1665.216Zm12.464-.148a4.777,4.777,0,0,1-.442-.566.552.552,0,0,0-.89-.178c-.188.126-.268.414-.4.63a1.911,1.911,0,0,0,.538.183C705.694-1665.284,706.062-1665.334,706.518-1665.365Zm2.1-1.368-.064-.088c-.321.045-.645.075-.96.145a.372.372,0,0,0-.241.242,7.373,7.373,0,0,0-.012.843C708.193-1665.6,708.24-1666.332,708.622-1666.732Zm-16.912.666.054-.093-.435-.474c-.383-.416-.8-.344-1.051.167-.117.24-.036.331.2.343Zm3.436-.861c-1.149-.275-1.414-.122-1.511.787C694.339-1665.976,694.624-1666.575,695.146-1666.927Zm-3.727-.053c.457.788.744.972,1.27.814l-.195-.913Zm14.6.623c.251.306.438.556.652.78a.362.362,0,0,0,.311.092c.074-.026.136-.177.143-.277.02-.262.006-.526.006-.828Zm-13.284-1a7.5,7.5,0,0,0,.84-.011.355.355,0,0,0,.249-.234.424.424,0,0,0-.167-.344,1.323,1.323,0,0,0-.519-.079C692.6-1668.051,692.526-1667.928,692.736-1667.362Zm17.053,1.632c-.139-.07-.226-.153-.283-.135-.5.146-.988.3-1.473.477-.07.026-.089.19-.132.29.1.02.207.082.288.054.452-.151.9-.32,1.344-.491A1.4,1.4,0,0,0,709.789-1665.73Zm-17.037-1.342c.05.29.082.545.143.793a.259.259,0,0,0,.187.16.33.33,0,0,0,.258-.128c.115-.253.195-.523.3-.826Zm17.276.72.965-.368-.016-.13-1.427-.1Zm-1.716.448.055.078,1.111-.346-.577-.593Zm-2.483-.768,1.265-.287C706.942-1667.329,706.355-1667.219,705.83-1666.672Zm-11.124.507,1.041-.125C695.492-1666.878,695.271-1666.853,694.706-1666.166Zm8.656.632.007.1.742.13.16-.569Zm-12.186-.3c.347.144.667.411,1.126.321C692.012-1666.071,691.547-1665.778,691.176-1665.831Zm2.834-1.516.99.1C694.432-1667.828,694.234-1667.85,694.01-1667.347Zm-2.963.112.924-.07C691.556-1667.79,691.481-1667.787,691.047-1667.235Zm-2.206.836c.7.259.724.252.825-.252Zm8.208-.219-.813-.185C696.414-1666.336,696.482-1666.318,697.05-1666.618Z" transform="translate(-667.195 1685.002)" fill="#9f9f9f"/><path d="M811.515-1593.3h-1.994v10.964h1.993v2.153h-6.192c0-.661-.009-1.313.013-1.965,0-.065.186-.173.288-.177.531-.018,1.063-.008,1.615-.008v-10.453l-.059-.02c-.065.167-.125.336-.194.5-1.335,3.191-2.676,6.378-4,9.573a.533.533,0,0,1-.594.408c-.808-.024-.809,0-1.13-.773q-2-4.786-4-9.572a1.853,1.853,0,0,0-.12-.19v10.522h1.913v2.155h-6.238v-2.144h2.006V-1593.3H792.82v-2.187a2.712,2.712,0,0,1,.29-.032c1.648,0,3.3,0,4.944-.007a.438.438,0,0,1,.487.316c1.208,2.989,2.428,5.974,3.629,8.921l2.54-6.154c.382-.926.756-1.855,1.155-2.774a.53.53,0,0,1,.36-.292c1.717-.018,3.433-.011,5.15-.008a.605.605,0,0,1,.139.042Z" transform="translate(-741.204 1624.887)" fill="#9f9f9f"/><path d="M630.312-1582.32h1.982c0,.7.009,1.364-.016,2.03,0,.055-.233.144-.358.145-1.565.01-3.131.007-4.7.007h-1.133v-2.171h1.9v-5.039h-6.842v5.008h1.816v2.162h-6.048v-2.133h1.88v-10.956h-1.91c0-.72-.006-1.388.01-2.055,0-.063.135-.176.208-.176,1.947-.01,3.893-.008,5.868-.008v2.207h-1.824v3.735c.138.008.283.022.428.022,1.991,0,3.982-.009,5.974.011.388,0,.482-.116.474-.488-.024-1.068-.009-2.137-.009-3.256h-1.928v-2.2h6.175v2.191h-1.949Z" transform="translate(-616.885 1624.87)" fill="#9f9f9f"/><path d="M735.889-1593.278h-1.9v-2.212c.146-.008.28-.021.413-.021h7.909a6.376,6.376,0,0,1,2.694.468,3.943,3.943,0,0,1,1,6.392,8.132,8.132,0,0,1-.971.6,3.186,3.186,0,0,1,1.683,3.025c-.018.889,0,1.779,0,2.705h1.958v2.146H744.55c-.013-.235-.031-.464-.039-.693-.047-1.483-.081-2.965-.142-4.447a1.693,1.693,0,0,0-1.674-1.791c-1.492-.069-2.989-.018-4.52-.018v4.795h1.89v2.157h-6.077v-2.136h1.9Zm2.267,3.993c1.692,0,3.337.039,4.977-.026a2.505,2.505,0,0,0,1.287-.561,1.776,1.776,0,0,0,.569-2.079,1.61,1.61,0,0,0-1.57-1.283c-1.727-.033-3.454-.029-5.181-.039-.022,0-.045.028-.081.053Z" transform="translate(-699.632 1624.875)" fill="#9f9f9f"/><path d="M877.052-1591.188v-2.013h-6.1v3.652h5.18v2.153h-5.17v5.105H877v-2.916c.7,0,1.361-.007,2.017.01a.31.31,0,0,1,.2.224c.012,1.605.009,3.21.009,4.852H866.624v-2.143h2v-10.95h-2v-2.218h12.517v4.243Z" transform="translate(-793.353 1624.818)" fill="#9f9f9f"/><path d="M681.183-1593.2h-2.011v-2.194h12.572v4.234h-2.125v-2.014h-6.1v3.646h5.172v2.158h-5.166v5.106h6v-2.887h2.225v5.058H679.178v-2.126h2.006Z" transform="translate(-660.898 1624.792)" fill="#9f9f9f"/><path d="M924.461-1582.051v1.083h-2.094v-5.33h2.017c.06.248.115.5.183.746a3.737,3.737,0,0,0,3.626,2.932,5.771,5.771,0,0,0,2.591-.326,2.383,2.383,0,0,0,1.574-2.25,2.209,2.209,0,0,0-1.588-2.175c-1.04-.333-2.131-.5-3.193-.773a21.944,21.944,0,0,1-2.482-.722,3.845,3.845,0,0,1-.767-6.678,6.241,6.241,0,0,1,6.727-.165c.2.135.378.3.626.5v-1.061h2.133v4.485c-.692,0-1.359,0-2.025-.009-.06,0-.154-.111-.171-.184a3.216,3.216,0,0,0-2.435-2.381,3.777,3.777,0,0,0-3,.189,2.135,2.135,0,0,0-1.107,1.37,1.661,1.661,0,0,0,.7,1.764,5.2,5.2,0,0,0,2.265.806c.8.151,1.606.227,2.391.416a9.221,9.221,0,0,1,1.895.661,4.031,4.031,0,0,1,2.254,4.1,4.439,4.439,0,0,1-3.689,4.353,6.939,6.939,0,0,1-5.662-.791C924.976-1581.635,924.751-1581.833,924.461-1582.051Z" transform="translate(-832.745 1625.652)" fill="#9f9f9f"/><path d="M746.467-1613.276H689.613v-1.04h1.423a6.876,6.876,0,0,1,2.112.217,3.859,3.859,0,0,0,2.312-.093,2.521,2.521,0,0,1,.722-.118q5.108-.012,10.217,0a2.671,2.671,0,0,1,.722.115,4.076,4.076,0,0,0,2.627-.041,1.4,1.4,0,0,1,.481-.075q17.9-.005,35.8-.01c.333,0,.486.078.443.432A5.408,5.408,0,0,0,746.467-1613.276Z" transform="translate(-668.276 1638.167)" fill="#9f9f9f"/><path d="M836.213-1693.076l.376.221-.587.331.516.474c-.781-.128-1.037.619-1.625.95a6.4,6.4,0,0,1-.3-.615c-.083-.229-.128-.472-.19-.715l-1.218.068a3.584,3.584,0,0,0,.423,1.964l.009-.013-.594.418.047.089.642-.255a4.253,4.253,0,0,1,.479,3.438,8.122,8.122,0,0,1-1.193-.536c-.583-.382-1.123-.831-1.677-1.257a2.636,2.636,0,0,0-1.424-.763,9,9,0,0,1-.327-1.033,1.246,1.246,0,0,1,.063-.665,10.382,10.382,0,0,0,.335-1.436c.064-.27.306-.517.285-.845a.142.142,0,0,1,.043-.112c.576-.333.59-1.112,1.156-1.453l-.49-.578.06-.094c.563.389,1.347.174,1.85.759a.831.831,0,0,0,.478.167.512.512,0,0,0,.3-.095c.024-.014-.018-.2-.03-.2a1.27,1.27,0,0,0-.349.046c-.033.01-.046.092-.068.139l-.727-.519a1.315,1.315,0,0,1,1.922.036,2.16,2.16,0,0,0,1.335.868,4.611,4.611,0,0,1,.883.331.882.882,0,0,1,.314.417c.112.251-.019.339-.272.35a1.9,1.9,0,0,0-.444.127,1.108,1.108,0,0,1-.174-.077c-.14-.09-.275-.187-.412-.281l-.107.169.632.381Zm-1.353,1.718c.293-.276.539-.49.761-.728a.411.411,0,0,0,.094-.314c-.082-.4-.242-.467-.682-.361-.337.081-.551.206-.378.613A5.768,5.768,0,0,1,834.861-1691.357Z" transform="translate(-767.161 1695.596)" fill="#9f9f9f"/><path d="M862.534-1652.131c.032-.086.035-.154.07-.181a2.16,2.16,0,0,0,.58-2.224,11.3,11.3,0,0,0-.546-1.963.519.519,0,0,0-.4-.28c-.226.011-.432.461-.357.676.09.259.214.508.28.772.14.555.252,1.116.374,1.675.018.08.028.162.037.244.033.275.189.7.072.8a1.963,1.963,0,0,1-1.058.469c-.9.064-1.81.009-2.715.025-.371.006-.491-.2-.6-.562h2.263c.151,0,.3.008.453,0a.707.707,0,0,0,.712-.91c-.273-.861-.585-1.711-.929-2.546a1.768,1.768,0,0,1,.028-1.579c.223-.44.392-.907.613-1.348a2.944,2.944,0,0,0,.309-1.552,4.3,4.3,0,0,1,.454-2.066,2.652,2.652,0,0,1,.938-1.4c.071-.042.1-.153.165-.254-.515-.243-.3-.727-.4-1.108a3.816,3.816,0,0,1-.068-.516c-.018-.169-.1-.385-.026-.5s.308-.066.47-.1a5.28,5.28,0,0,0,.542-.155c.059-.021.095-.1.151-.137.236-.153.357-.559.735-.4a1.583,1.583,0,0,1,.917.948.451.451,0,0,1-.1.328,4.2,4.2,0,0,1-.4.471.665.665,0,0,0-.214.692c.077.29.014.6-.492.526a1.718,1.718,0,0,0,.258.438,3.972,3.972,0,0,1,1,2.285,1.037,1.037,0,0,1-.531,1.3.719.719,0,0,0-.379.947c.223.731.379,1.482.574,2.264-.176.024-.308.043-.439.06-.322.039-.7-.061-.792.437-.059.325-.256.6-.1.983a3.5,3.5,0,0,1,.147,1.052c.039.462.059.926.083,1.389a.505.505,0,0,1-.028.241A1.906,1.906,0,0,1,862.534-1652.131Zm1.18-4.19.1.007.4-1.65c-.486.078-.533-.146-.523-.48a3.636,3.636,0,0,0-.164-.781,1.305,1.305,0,0,0,.2-.366c.029-.113-.053-.256-.085-.385-.132.039-.318.039-.384.127a1.5,1.5,0,0,0-.123.467c-.04.141-.1.277-.165.473-.33-.564-.33-.564-1.027-.837-.347.79-.686,1.583-1.042,2.369a1.318,1.318,0,0,0,.167,1.25.265.265,0,0,0,.216.121.417.417,0,0,0,.225-.195,2.7,2.7,0,0,0,.143-.437l-.136-.148c.6-.436.6-1.125.854-1.729a4.883,4.883,0,0,1,.265.8c.164.593.323,1.187.5,1.776.063.2.189.376.419.233-.033-.318-.064-.612-.094-.907l.111-.018Zm-.884-7.085.087.037a8.847,8.847,0,0,0,.8-.493,1.214,1.214,0,0,0,.441-.5c.138-.422.371-.894-.175-1.242-.062-.039-.041-.228-.1-.254-.186-.08-.482-.226-.573-.151a1.018,1.018,0,0,0,.308,1.636Zm.314,3.235-.564-.615-.518.737C862.453-1660.091,862.851-1659.616,863.143-1660.171Zm-1.949,4.578c.174.226.314.422.477.6.017.018.259-.112.253-.146a6.142,6.142,0,0,0-.2-.677Zm1.957.483.446.434c.072-.092.2-.182.2-.278.007-.191.007-.446-.3-.416C863.412-1655.36,863.329-1655.245,863.152-1655.11Z" transform="translate(-787.45 1675.599)" fill="#9f9f9f"/><path d="M786.356-1519.576v3.769h-1.3v-8.761a13,13,0,0,1,3.669.224,2.19,2.19,0,0,1,1.627,2.016,2.2,2.2,0,0,1-1.274,2.254l-.218.118c1.449,1.079,2.113,2.71,3.2,4.169-.546,0-.98.02-1.409-.013-.113-.009-.234-.167-.315-.282-.608-.864-1.193-1.745-1.813-2.6A2.022,2.022,0,0,0,786.356-1519.576Zm0-3.978v2.88a13.666,13.666,0,0,0,1.824-.236c.6-.157.832-.64.8-1.322a1.1,1.1,0,0,0-.907-1.16A16,16,0,0,0,786.359-1523.554Z" transform="translate(-735.722 1574.757)" fill="#9f9f9f"/><path d="M753.963-1515.922c-.434,0-.8.024-1.169-.014a.524.524,0,0,1-.324-.289q-.449-.993-.852-2.006a.415.415,0,0,0-.46-.3q-1.585.018-3.169,0a.432.432,0,0,0-.485.32c-.251.667-.537,1.321-.788,1.987a.4.4,0,0,1-.453.308c-.325-.019-.652,0-1.033,0,.056-.164.086-.277.133-.383q1.772-4.028,3.543-8.058c.112-.257.215-.443.555-.416.31.025.539.017.7.386,1.193,2.7,2.42,5.375,3.635,8.061C753.846-1516.219,753.888-1516.106,753.963-1515.922Zm-4.487-7.228-1.319,3.411h2.807Z" transform="translate(-707.575 1574.893)" fill="#9f9f9f"/><path d="M721.513-1524.469c1.2,0,2.37-.088,3.523.021a2.353,2.353,0,0,1,2.171,2.975,2.044,2.044,0,0,1-1.414,1.629,6.515,6.515,0,0,1-1.528.273c-.486.044-.979.009-1.506.009v3.81h-1.246Zm1.255,3.841a21.513,21.513,0,0,0,2.278-.186,1.181,1.181,0,0,0,.885-1.24,1.111,1.111,0,0,0-.847-1.212,22.863,22.863,0,0,0-2.316-.186Z" transform="translate(-690.817 1574.698)" fill="#9f9f9f"/><path d="M799.372-1661.542c.056-.251.083-.426.134-.594a13.1,13.1,0,0,1,2.668-4.959,1.043,1.043,0,0,1,1.271-.434,8.5,8.5,0,0,0,1.666.252,5.534,5.534,0,0,0,.613,3.492A46.748,46.748,0,0,1,799.372-1661.542Z" transform="translate(-745.834 1675.818)" fill="#9f9f9f"/><path d="M839.03-1518.345c.3.246.532.457.786.632a2.837,2.837,0,0,0,2.339.514,1.17,1.17,0,0,0,.963-.857,1.076,1.076,0,0,0-.478-1.15c-.448-.336-.946-.6-1.415-.913a12,12,0,0,1-1.589-1.091,2.028,2.028,0,0,1,.393-3.292,3.791,3.791,0,0,1,3.816.045.445.445,0,0,1,.189.315c.024.353.009.709.009,1.14-.2-.127-.357-.228-.514-.322a3.045,3.045,0,0,0-2.36-.456,1.036,1.036,0,0,0-.887.76,1.021,1.021,0,0,0,.5,1.094c.538.352,1.114.646,1.665.979a8.2,8.2,0,0,1,.956.64,2.319,2.319,0,0,1,.864,2.6,2.3,2.3,0,0,1-2.106,1.653,4.543,4.543,0,0,1-2.753-.5.6.6,0,0,1-.387-.64C839.055-1517.549,839.03-1517.915,839.03-1518.345Z" transform="translate(-773.81 1575.047)" fill="#9f9f9f"/><path d="M825.568-1686.552a2.025,2.025,0,0,1,1.412.68c.554.547,1.113,1.089,1.694,1.656a20.393,20.393,0,0,1-4.344,2.573c-.013-.292-.037-.528-.031-.765.022-.848.037-1.7.095-2.543a.8.8,0,0,1,.289-.553c.674-.43.651-1.1.667-1.757,0-.067-.072-.139-.118-.2-.062-.09-.19-.178-.187-.263.02-.557-.306-1.106-.035-1.671a.583.583,0,0,0,.06-.37.746.746,0,0,1,.2-.861c.038-.033.089-.1.077-.133-.177-.458.134-.748.392-1.081l-.564-.477,2.049-.116a4.325,4.325,0,0,0-1.747,3.639A18.711,18.711,0,0,0,825.568-1686.552Z" transform="translate(-763.447 1693.364)" fill="#9f9f9f"/><path d="M820.658-1524.465h1.223v8.745h-1.223Z" transform="translate(-760.875 1574.672)" fill="#9f9f9f"/><path d="M884.736-1601.207h-1.143c-.975,0-1.95,0-2.925,0-.131,0-.307,0-.384-.078-.374-.375-.721-.778-1.127-1.224.168-.016.256-.033.345-.033,1.263,0,2.527-.012,3.789.01a.877.877,0,0,1,.546.257C884.14-1601.971,884.4-1601.618,884.736-1601.207Z" transform="translate(-802.212 1629.848)" fill="#9f9f9f"/><path d="M722.682-1616.982h-9.521a1.165,1.165,0,0,1,1-.551q3.741.037,7.484,0A.993.993,0,0,1,722.682-1616.982Z" transform="translate(-684.915 1640.435)" fill="#9f9f9f"/><path d="M820.864-1667.683v3.541l-.074.038a1.851,1.851,0,0,1-.241-.336,4.028,4.028,0,0,1-.266-2.833C820.338-1667.451,820.659-1667.546,820.864-1667.683Z" transform="translate(-760.504 1675.873)" fill="#9f9f9f"/><path d="M689.583-1617.018v-.537c.693.14,1.476-.306,2.01.537Z" transform="translate(-668.255 1640.451)" fill="#9f9f9f"/><path d="M879.612-1617.463v.488h-1.543C878.158-1617.561,878.681-1617.557,879.612-1617.463Z" transform="translate(-801.443 1640.419)" fill="#9f9f9f"/></g></svg>