<svg xmlns="http://www.w3.org/2000/svg" width="106.803" height="59.036" viewBox="0 0 106.803 59.036"><g transform="translate(0 0)"><path d="M3957.738-2011.912c-.74-.085-1.485-.138-2.218-.262a6.161,6.161,0,0,1-3.067-1.446l1.5-1.143c.162.181.31.358.47.523a4.882,4.882,0,0,0,5.2,1.038,2.1,2.1,0,0,0,.395-3.745,6.231,6.231,0,0,0-2.619-1.044,10.589,10.589,0,0,1-2.777-.828,3.006,3.006,0,0,1-1.826-2.774,3.472,3.472,0,0,1,2.46-3.487,7.221,7.221,0,0,1,7.166.843.485.485,0,0,1,.06.075l-1.293,1.021a12.559,12.559,0,0,0-1.533-1.136,3.68,3.68,0,0,0-3.672.065,1.87,1.87,0,0,0-.211,3.267,6.2,6.2,0,0,0,2.625,1.028,12.657,12.657,0,0,1,3.267.971,2.865,2.865,0,0,1,1.767,2.3,3.927,3.927,0,0,1-2.3,4.058,6.715,6.715,0,0,1-2.37.608c-.148.012-.294.041-.441.062Z" transform="translate(-3904.657 2070.949)" fill="#9f9f9f"/><path d="M4746.13-2021.168H4740v5.242h4.864v.748H4740v5.464a1.776,1.776,0,0,0,.212.025q2.88,0,5.759,0a1.59,1.59,0,0,0,.159-.017v.832h-8.748V-2022h8.748Z" transform="translate(-4639.327 2067.526)" fill="#9f9f9f"/><path d="M3206-2022c.8,0,1.6.013,2.4,0a.329.329,0,0,1,.381.274q1.833,5.653,3.684,11.3c.019.059.043.116.092.249.171-.467.32-.866.463-1.269q1.827-5.132,3.648-10.266a.351.351,0,0,1,.407-.287c.307.019.617,0,.972,0l-4.892,13.121c-.764,0-1.521.008-2.278-.011-.079,0-.189-.145-.225-.244q-1.274-3.531-2.534-7.067-.974-2.723-1.95-5.444a1.027,1.027,0,0,0-.171-.235Z" transform="translate(-3206 2067.526)" fill="#9f9f9f"/><path d="M3760.058-2733c.439.063.878.131,1.318.189a18.438,18.438,0,0,1,11.067,5.557,18.447,18.447,0,0,1,4.947,9.266,18.238,18.238,0,0,1-2.7,14.246,18.26,18.26,0,0,1-12.266,8.292,18.267,18.267,0,0,1-16.354-4.623,18.149,18.149,0,0,1-5.8-10.534,18.4,18.4,0,0,1,4.848-16.321,18.161,18.161,0,0,1,10.367-5.718c.7-.129,1.415-.187,2.122-.281a2.177,2.177,0,0,0,.272-.072Zm-1.176,37.576a18.664,18.664,0,0,0,18.563-19.016,18.6,18.6,0,0,0-19.21-18.175,18.686,18.686,0,0,0-17.888,19.8A18.6,18.6,0,0,0,3758.881-2695.423Z" transform="translate(-3705.76 2733)" fill="#9f9f9f"/><path d="M3711.565-2008.759c-.878,0-1.7.009-2.513-.011-.1,0-.223-.139-.288-.243-1.067-1.721-2.132-3.444-3.181-5.177a.572.572,0,0,0-.584-.321c-.629.021-1.26.021-1.888,0-.29-.01-.38.066-.378.369.016,1.664.008,3.329.008,4.994v.368h-2.589v-13.1h.378c1.835.013,3.67,0,5.5.046a8.009,8.009,0,0,1,3.14.664,3.186,3.186,0,0,1,.857,5.156,5.451,5.451,0,0,1-1.836,1.135c-.1.038-.193.081-.316.133C3709.1-2012.759,3710.313-2010.791,3711.565-2008.759Zm-8.8-12.545v6.2c.715,0,1.405.014,2.095,0a3.82,3.82,0,0,0,1.764-.5,3.106,3.106,0,0,0,1.656-3.158,2.852,2.852,0,0,0-2.372-2.334C3704.888-2021.261,3703.837-2021.241,3702.766-2021.3Z" transform="translate(-3668.512 2067.414)" fill="#9f9f9f"/><path d="M4195.128-2008.85c-.781,0-1.535.008-2.289-.011-.084,0-.2-.135-.239-.232q-.842-2.02-1.662-4.049a.4.4,0,0,0-.434-.312q-2.911.016-5.825,0a.407.407,0,0,0-.43.283c-.627,1.353-1.271,2.7-1.9,4.052a.383.383,0,0,1-.431.273c-.263-.02-.531,0-.851,0,.282-.611.547-1.187.814-1.763q2.563-5.539,5.124-11.079a.394.394,0,0,1,.423-.285c.629.018,1.259.011,1.888,0a.3.3,0,0,1,.336.211q2.689,6.339,5.388,12.673C4195.075-2009.025,4195.093-2008.954,4195.128-2008.85Zm-7.336-11.914-3.069,6.572h5.789C4189.606-2016.381,4188.713-2018.535,4187.792-2020.765Z" transform="translate(-4118.639 2067.506)" fill="#9f9f9f"/><path d="M4466.612-2021.753c-.06-.318-.09-.628-.176-.923a3.058,3.058,0,0,0-3-2.241,3.375,3.375,0,0,0-3.374,2.119,8.7,8.7,0,0,0-.673,2.88,13.655,13.655,0,0,0,.225,4.356,4.387,4.387,0,0,0,1.618,2.676c1.058.776,3.538,1.088,4.811-.04a3.132,3.132,0,0,0,1.036-1.94h1.777a7.481,7.481,0,0,1-.343,1.108,3.269,3.269,0,0,1-2.036,1.641,10.436,10.436,0,0,1-4.174.4,9.106,9.106,0,0,1-1.968-.381,4.8,4.8,0,0,1-3.292-3.344,10.275,10.275,0,0,1-.005-6.11,4.731,4.731,0,0,1,3.338-3.33,9.964,9.964,0,0,1,6.224.087,3.16,3.16,0,0,1,2.212,3.045Z" transform="translate(-4376.499 2070.653)" fill="#9f9f9f"/><path d="M3480.369-2020.776v5.246h4.893v.76h-4.883v5.469h6.09v.807h-8.683v-13.079h8.688v.8Z" transform="translate(-3460.384 2067.125)" fill="#9f9f9f"/><path d="M3752.7-2697.1c.395-.029.744-.048,1.093-.08.192-.017.256.054.273.247.036.414.116.823.153,1.237.028.316.195.361.452.289.1-.028.2-.06.31-.092-.1-1-.2-1.993-.312-3.042-.535,0-1.086-.021-1.636.008-.331.017-.442-.094-.41-.411.053-.519.095-1.04.14-1.56.016-.183.08-.362-.156-.49-.168-.092-.136-.265-.015-.412a.718.718,0,0,0,.153-.628,2.079,2.079,0,0,1,.188-.953c.125-.336.332-.64.488-.966.2-.421.387-.85.578-1.276.183-.407.364-.814.56-1.254a7.509,7.509,0,0,0,.733.356.591.591,0,0,0,.4-.012,7.684,7.684,0,0,0,.723-.4l-1.37-.781a14.812,14.812,0,0,1,2.076-2.937l1,.873-1.044,1.4a6.163,6.163,0,0,0,2.118-1.507l-1.456-1.384a12.175,12.175,0,0,1,2.743-2.383c.214.311.428.626.647.938.115.165.012.245-.107.336-.371.284-.737.574-1.14.889l.468.531,1.874-1.41-1.09-1.792,2.945-1.517.519,1.311-1.451.69.332.61,1.995-.853-.661-2,3-.752.237,1.372c-.358.071-.7.133-1.042.208a.437.437,0,0,0-.237.73.175.175,0,0,0,.139.05c.646-.12,1.291-.246,1.975-.377-.073-.694-.145-1.368-.223-2.1h3.126c-.026.431-.052.859-.077,1.3-.319,0-.624,0-.928,0-.612-.005-.689.1-.493.754h1.533c.142-.149-.064-.672.492-.449l.186-1.615,3.118.6c-.134.474-.251.885-.377,1.331-.383-.085-.743-.167-1.1-.244-.435-.092-.435-.09-.5.337-.013.083-.026.167-.045.281l2.084.547.649-1.953a15.006,15.006,0,0,1,3.024,1.284l-.651,1.194-1.407-.687-.3.658,1.871.972,1.119-1.805,2.66,1.957c-.312.353-.563.654-.838.932-.044.045-.218.025-.286-.027-.33-.25-.646-.52-.991-.8l-.425.559,1.7,1.485,1.445-1.568,2.264,2.695-1.047.721c.277.171.529.341.8.479.067.034.195-.021.282-.062.144-.066.277-.155.412-.233.989,1.051,2.9,5.941,2.838,7.268l-.314-.05c.011.2.021.393.035.639l-1.321.082c-.029-.268-.052-.485-.075-.691l-.748-.071c.055.685.11,1.382.169,2.124.562,0,1.113,0,1.665,0,.409,0,.433.017.394.406-.1,1.058-.219,2.114-.334,3.211l-1.4-.278c.09-.557.176-1.087.269-1.661l-.682-.078c-.162.791-.322,1.538-.458,2.291-.011.062.123.2.211.223.509.156,1.024.291,1.537.434.06.017.116.043.249.094l-1.277,3.31-1.247-.612c.205-.489.405-.963.6-1.437a.631.631,0,0,0-.088-.072c-.539-.268-.531-.265-.782.285s-.514,1.076-.79,1.649l1.776,1.006a14.808,14.808,0,0,1-2.075,2.935l-1-.871,1.033-1.376-.547-.389-1.547,1.857,1.491,1.417a17.267,17.267,0,0,1-2.773,2.394c-.237-.345-.47-.661-.67-1-.034-.057.043-.23.117-.293.357-.3.73-.583,1.133-.9l-.465-.534-1.874,1.411,1.091,1.795-2.95,1.514-.515-1.314,1.452-.684-.338-.611-1.991.852.664,2.005-3.006.751-.231-1.367c.328-.069.649-.134.967-.205.472-.106.471-.108.354-.584-.015-.061-.028-.122-.052-.222l-.877.158c-.325.059-.648.132-.976.17-.2.023-.252.1-.231.289.058.5.107,1,.159,1.495.01.1.02.21.036.389h-3.126c.026-.436.052-.858.079-1.3h.953c.588,0,.671-.123.462-.756h-1.971l-.234,2.076-3.122-.6.385-1.325c.426.093.841.172,1.249.277.223.058.33,0,.333-.228,0-.191.208-.427-.193-.506-.6-.118-1.2-.3-1.831-.461l-.665,2.019-3.025-1.31.672-1.235,1.413.677.3-.649-1.875-.972-1.119,1.8-2.658-1.958.939-1.055,1.168.947.432-.554-1.664-1.449-1.471,1.542-2.278-2.7,1.149-.791,1.011,1.277.531-.459-1.393-1.95-1.843,1.069-1.514-3.171,1.307-.476c.168.4.315.761.475,1.119.2.439.244.451.651.21.063-.037.122-.083.171-.117-.266-.7-.534-1.385-.782-2.075-.07-.2-.176-.168-.321-.124-.56.17-1.122.336-1.721.515A15.848,15.848,0,0,1,3752.7-2697.1Zm20.576-16.67.146-1.438c.388.082.708.152,1.028.217.59.12.591.119.7-.482a.8.8,0,0,0-.031-.14c-.7-.125-1.426-.262-2.156-.377-.054-.008-.178.126-.191.207-.066.409-.1.824-.157,1.235-.07.51.136.752.672.77a.721.721,0,0,0,.154.092,1.93,1.93,0,0,1,1.112.643.244.244,0,0,0,.2.055,2.559,2.559,0,0,1,1.874.58c.554.392,1.118.771,1.681,1.15a.825.825,0,0,0,.362.183,2.613,2.613,0,0,1,1.748.941,15.085,15.085,0,0,0,1.568,1.252.4.4,0,0,0,.589-.057c.239-.252.517-.467.81-.726.3.393.6.757.873,1.133.113.153.219.185.368.066.113-.09.226-.178.391-.307l-1.706-2.081-1.525,1.478-2.133-1.817.779-1.115,1.264.94.453-.561-2.023-1.5-1.143,1.784-2.387-1.271.5-1.256,1.467.69a2.381,2.381,0,0,1,.166-.293c.188-.243.115-.392-.149-.507-.361-.158-.71-.34-1.072-.5-.287-.125-.583-.226-.894-.345l-.7,1.921Zm-3.973,13.995a.512.512,0,0,1-.535.407,9.745,9.745,0,0,1-1.587-.038,1.829,1.829,0,0,0-2.225,1.192,7.611,7.611,0,0,0,.841-.515,1.886,1.886,0,0,1,1.625-.369c.172.048.349.108.256.385-.939-.454-1.573.135-2.235.625a5.4,5.4,0,0,0,.675-.261,2.445,2.445,0,0,1,2.668.345c.311.245.288.429-.088.561a8.554,8.554,0,0,1-1.4.423,2,2,0,0,1-1.932-.673.868.868,0,0,0-.427-.252c-.368-.088-.429-.184-.246-.525.1-.187.215-.366.35-.595-.112.021-.161.016-.192.038-.312.218-.735.378-.9.679a2.728,2.728,0,0,0-.074,1.117,1.35,1.35,0,0,0,.015.159,11.356,11.356,0,0,0,1.047,3.9,6.352,6.352,0,0,0,1.049,1.733c.883.918,1.873,1.734,2.838,2.57a1.209,1.209,0,0,0,.634.244,6.676,6.676,0,0,0,1.15.011,2.852,2.852,0,0,0,1.925-.815c.5-.505,1.062-.954,1.6-1.422a7.725,7.725,0,0,0,2.254-3.247,12.047,12.047,0,0,0,.667-4.435,3.191,3.191,0,0,0-.27-1.515,4.069,4.069,0,0,0-2.058-2,11.963,11.963,0,0,0-3.912-.71,2.406,2.406,0,0,1-1.47-.35c-.382.292-.739.56-1.089.836a.9.9,0,0,0-.2.229,2.249,2.249,0,0,1-.317.536c-.3.262-.65.471-.977.7a1.961,1.961,0,0,0-.782,1.133c.393,0,.748-.009,1.1,0,.5.014,1,.062,1.5.057A3.579,3.579,0,0,0,3769.3-2699.777Zm11.043,5.478c-.034.355-.056.722-.109,1.084a3.238,3.238,0,0,1-.165.5c-.058.181-.114.363-.167.545-.023.078-.076.169-.055.235a2.594,2.594,0,0,1-.434,2.3,2.137,2.137,0,0,0-.3.893c-.053.462-.018.933-.034,1.4-.007.2-.05.4-.087.681a14.753,14.753,0,0,0,5.3-7.019,13.55,13.55,0,0,0,.643-6.969,2.464,2.464,0,0,1-.551-.349c-.181-.15-.421-.144-.435.039a3.165,3.165,0,0,1-.421,1.2c-.246.49-.476.888-1.092.96a2.2,2.2,0,0,1,.089,1.573c-.15.465-.342.916-.532,1.366-.2.471-.332.927.095,1.351.029.03.049.123.036.132a.369.369,0,0,1-.189.077C3781.4-2694.3,3780.854-2694.3,3780.348-2694.3Zm-24.154-4.917-.105.031a14.211,14.211,0,0,0,1.63,7.355,14.613,14.613,0,0,0,4.4,5.125c.111-.712.231-1.391.316-2.074a.715.715,0,0,0-.29-.812,1.382,1.382,0,0,1-.6-1.871.491.491,0,0,0-.007-.315c-.1-.3-.226-.593-.346-.886-.034-.082-.07-.192-.136-.225a2.322,2.322,0,0,1-.939-1.124,1.258,1.258,0,0,1,.006-1.105,6.241,6.241,0,0,1-1.729-2.309,1.781,1.781,0,0,1-2.1-1.558C3756.293-2699.061,3756.228-2699.139,3756.194-2699.216Zm29.549-2.092-.136.04c-.03.273-.328.4-.266.766a12.435,12.435,0,0,1-.059,4.485,15.02,15.02,0,0,1-6.267,9.748.741.741,0,0,0-.208.228c-.261.453-.513.912-.8,1.424l.523,1.032c-.358.169-.693.331-1.03.486-.451.206-.464.24-.216.671a1.861,1.861,0,0,0,.156.2l2.192-1.114-1.084-1.8,2.405-1.769.9,1.01-1.375,1.13.44.583,2.174-1.85-1.537-1.442,1.975-2.385,1.129.73-1.072,1.458a2.351,2.351,0,0,1,.243.179c.208.2.37.219.552-.053.36-.54.75-1.06,1.121-1.594a3.767,3.767,0,0,0,.22-.419l-1.737-1.026,1.291-2.7,1.286.454c-.2.457-.362.873-.556,1.274-.111.229-.007.306.178.371.165.058.338.244.46-.062.232-.583.477-1.161.706-1.745a6.378,6.378,0,0,0,.175-.615l-1.92-.589c.165-.979.324-1.932.5-2.883a.226.226,0,0,1,.176-.129c.39.019.779.057,1.219.093-.071.5-.119.969-.206,1.425-.063.331.18.3.357.354.195.063.308-.009.333-.211q.139-1.141.275-2.282c.025-.21-.079-.284-.278-.285-.469,0-.939-.032-1.407-.02-.3.007-.391-.08-.4-.393-.018-.691-.075-1.383-.157-2.07A2.993,2.993,0,0,0,3785.743-2701.308Zm-26.384,13.581,2.232,1.905-.78,1.115-1.265-.948a2.079,2.079,0,0,1-.183.223c-.232.212-.242.375.044.569.494.335.967.7,1.438,1.064.2.158.327.157.47-.085.3-.511.636-1,.958-1.507l.457.254c-.147-.287-.261-.534-.4-.769a1.6,1.6,0,0,0-.356-.491,15.6,15.6,0,0,1-2.858-2.692,14.746,14.746,0,0,1-3.36-10.175.51.51,0,0,0-.016-.216c-.137-.313-.285-.621-.456-.989a1.792,1.792,0,0,0-.125.422c-.011.2-.084.267-.274.249-.358-.034-.716-.061-1.125-.095.052-.468.1-.9.149-1.348-.724.236-.727.236-.834.948a5.631,5.631,0,0,0-.058.6c-.01.251,0,.5,0,.818h1.961c.133,1.271.258,2.472.383,3.684l-1.308.256-.323-1.9-.746.116c.2.942.386,1.845.576,2.749.035.169.141.182.289.141.522-.147,1.051-.277,1.57-.434.19-.058.247-.021.314.168.26.731.547,1.452.827,2.176.06.154.139.3.219.474l-1.251.628-.74-1.59-.633.243a9.664,9.664,0,0,0,1.117,2.322c.03.049.211.054.287.014.536-.284,1.062-.586,1.574-.873l1.739,2.447-1.008.891-1.052-1.32-.6.417,1.777,2.167Zm-6.211-14.532c.026-.03.053-.059.077-.092a8.081,8.081,0,0,1,2.547-2.294,7.671,7.671,0,0,1,1.315-.645,3.6,3.6,0,0,1,2.323.047.688.688,0,0,0,.45-.033c.427-.185.833-.417,1.261-.6a2.937,2.937,0,0,1,.706-.168c.057-.009.13.092.2.142-.054.047-.1.116-.165.138-.179.064-.373.091-.547.165a3.429,3.429,0,0,0-1.874,2.187c-.063.18-.024.278.142.352a1.866,1.866,0,0,0,1.89-.042c.491-.32.954-.682,1.443-1a2.776,2.776,0,0,1,2.741-.258c.42.177.811.425,1.217.636a2.2,2.2,0,0,0,2.4-.246,2.625,2.625,0,0,0,.906-1.533c.083-.268.012-.38-.273-.38a.663.663,0,0,0-.39.1,6.465,6.465,0,0,0-.772.707c-.445.49-.917.941-1.64.779a5.567,5.567,0,0,1-1.436-.51c-.436-.238-1.047-.17-1.311-.72-.011-.022-.054-.03-.083-.042-.335-.137-.664-.293-1.008-.4a2.311,2.311,0,0,0-.595-.046c-.175-.006-.385.25-.5.009-.049-.1.11-.34.225-.473a2.491,2.491,0,0,1,1.618-.995c.515-.053,1.03-.092,1.611-.144a7.309,7.309,0,0,0-.49-.955,1.851,1.851,0,0,0-1.22-.855c-.455-.073-.673.209-.882.45a2.525,2.525,0,0,1,.17.728,2.051,2.051,0,0,1-1.352,1.845,4.356,4.356,0,0,1-1.937.333c-.681-.043-1.36-.12-2.041-.144a3.048,3.048,0,0,0-1.66.217,6.8,6.8,0,0,0-2.485,2.2A2.941,2.941,0,0,0,3753.148-2702.259Zm9.667,4.243c-.545-.171-.794-.369-.833-.691a1.324,1.324,0,0,1,.87-1.551v-1.587a2.888,2.888,0,0,1-2.364-.039.378.378,0,0,0-.233.018,1.256,1.256,0,0,1-1.46-.577c-.041-.066-.088-.127-.149-.216a.939.939,0,0,0-.092.176.945.945,0,0,0,.258.818,2.8,2.8,0,0,1,.27,3.5c-.33.573-.387.784,0,1.321a6.293,6.293,0,0,0,.99,1.154,1.307,1.307,0,0,0,.86.184c.131-.009.244-.288.412-.5-.2-.013-.3-.015-.391-.026a1.076,1.076,0,0,1-.885-.852.508.508,0,0,1,.638-.566c.288.066.377.285.453.524.087.275.165.59.494.64.369.057.532-.254.7-.515a1.4,1.4,0,0,0,.115-.262C3762.581-2697.38,3762.694-2697.688,3762.815-2698.015ZM3776.3-2684.1l-.019-.046c-.332-.042-.663-.092-1-.12a1.4,1.4,0,0,0-.5.026,15.2,15.2,0,0,1-8.394.019,1.076,1.076,0,0,0-.4-.011c-.368.044-.733.13-1.1.147a.336.336,0,0,0-.36.268c-.109.319-.244.629-.378.969l-1.469-.693-.318.585a1.185,1.185,0,0,0,.21.164c.592.268,1.188.522,1.778.8.229.106.319.028.391-.188.188-.563.394-1.12.589-1.669l2.681.686-.23,1.347-1.537-.317-.195.706,2.378.468.282-2.07h2.615v1.411h-1.48c-.023.114-.043.195-.055.278-.06.406-.009.479.4.476.565,0,1.129-.037,1.694-.046.233,0,.322-.086.292-.33-.063-.519-.093-1.042-.16-1.559-.028-.218.041-.282.247-.3a8.833,8.833,0,0,0,.886-.121c.49-.089.977-.193,1.5-.3l.373,1.329-1.444.342c.058.243.109.454.174.724l2.235-.572c-.047-.178-.073-.291-.107-.4-.148-.478-.292-.957-.453-1.431-.06-.174-.017-.251.153-.305C3775.821-2683.908,3776.059-2684.007,3776.3-2684.1Zm-3.861-20.443.055-.082a1.143,1.143,0,0,0-.273-.189,1.521,1.521,0,0,1-.9-.674,3.323,3.323,0,0,1-.485-1.572c-.01-.412,0-.824,0-1.26-.068-.006-.181-.021-.3-.026a.952.952,0,0,1-.758-.515,4.345,4.345,0,0,0-.33-.391c-.219.159-.368.28-.528.383a1.181,1.181,0,0,1-1.472-.275,1.178,1.178,0,0,0-.362-.267c-.352-.194-.718-.405-.8-.82-.068-.36-.3-.454-.572-.592-.652-.335-1.419-.5-1.828-1.2a1.2,1.2,0,0,0-.663,1.395c.044.225,0,.326-.23.391a1.862,1.862,0,0,0-.919.621l.718.348a1.3,1.3,0,0,1,1.827-.335,2.752,2.752,0,0,1,1.3,1.819.6.6,0,0,0,.222.3,10.938,10.938,0,0,0,1.01.657,1.981,1.981,0,0,0,.716.246c.109.012.24-.174.361-.27.74-.588,2.168-.586,2.3.6a1.853,1.853,0,0,0,.856,1.264A1.564,1.564,0,0,0,3772.439-2704.539Zm15.856,3.24a.628.628,0,0,0,.05-.14,4.452,4.452,0,0,0-1.3-3,15.434,15.434,0,0,0-1.263-1.174,6.794,6.794,0,0,0-2.338-1.4,13,13,0,0,0-2.644-.4,5.612,5.612,0,0,1-3.436-1.183.412.412,0,0,0-.358-.015,1.691,1.691,0,0,1-1.272.144,2.454,2.454,0,0,0-1.947.187,4.137,4.137,0,0,1-2.041.652,1.088,1.088,0,0,0,.49.286c.44.054.887.056,1.331.083a9.551,9.551,0,0,1,1.607.12,1.365,1.365,0,0,0,.846-.024,4.762,4.762,0,0,1,2.49-.4c.689.122,1.392.155,2.086.253.492.069.981.17,1.466.278.182.041.346.183.529.207a2.875,2.875,0,0,1,1.69.891,11.265,11.265,0,0,1,1.62,2.152,7.3,7.3,0,0,0,1.011,1.306C3787.326-2702.054,3787.812-2701.705,3788.3-2701.3Zm-23.741,8.213-.091.019a6.632,6.632,0,0,0,.181,1.063,7.939,7.939,0,0,0,.612,1.4,8.734,8.734,0,0,0,2.575,2.884.914.914,0,0,0,.747.14,2.564,2.564,0,0,1,1.034-.044c.338.078.691.057,1,.139a2.481,2.481,0,0,0,1.4-.172c.143-.04.295-.05.437-.091a1.366,1.366,0,0,0,.494-.188,17.246,17.246,0,0,0,1.713-1.521c.68-.744,1.278-1.565,1.905-2.357.054-.069.115-.188.091-.253-.1-.258-.226-.5-.314-.69-.539.665-1.034,1.344-1.6,1.955-.521.559-1.115,1.051-1.688,1.56a3.9,3.9,0,0,1-.889.7,4.658,4.658,0,0,1-2.69.33,1.858,1.858,0,0,1-.828-.354c-.692-.547-1.34-1.149-2.022-1.709a5.549,5.549,0,0,1-1.61-1.952C3764.874-2692.524,3764.707-2692.8,3764.554-2693.087Zm-11.447-8.294a2.841,2.841,0,0,0,1.423-.995,13.211,13.211,0,0,1,1.265-1.342,3.893,3.893,0,0,1,.847-.562,3.24,3.24,0,0,1,.738-.26c.052-.013.168.1.2.182.015.039-.082.153-.151.188-.132.066-.284.088-.42.147a.834.834,0,0,0-.407,1.24,1.959,1.959,0,0,0,.949.77,1.6,1.6,0,0,1,.217,2.625,5.585,5.585,0,0,1-1.056.484,1.314,1.314,0,0,0,1.144,1.1.782.782,0,0,0,.726-.313,2.424,2.424,0,0,0-.057-3.317,1.289,1.289,0,0,1-.313-1.244c.063-.224.2-.383.438-.281a1,1,0,0,1,.415.334.848.848,0,0,0,.953.351,5.978,5.978,0,0,0-.627-.442c-.274-.144-.428-.3-.275-.627.1-.221.169-.46.27-.682.112-.245.246-.481.371-.721a6.387,6.387,0,0,0-.778-.191,5.669,5.669,0,0,0-1.2-.065,5.23,5.23,0,0,0-2.382,1.1A7.24,7.24,0,0,0,3753.107-2701.381Zm29.3-.294a2.344,2.344,0,0,1,.145-2.191.411.411,0,0,0-.093-.374,2,2,0,0,0-1.965-.565,3.293,3.293,0,0,1-2.632-.407,11.8,11.8,0,0,1-1.419-1.179c-.135-.112-.289-.2-.434-.3l-.05.07a2.075,2.075,0,0,0,.174.223,2.907,2.907,0,0,1,.811,1.563c.034.176.107.344.158.517.1.333.191.667.29,1a.565.565,0,0,0,.1.252,1.554,1.554,0,0,0,1.509,0,.4.4,0,0,1,.547-.057,2.6,2.6,0,0,0,1.217.607c.23.022.444.36.638.579A.86.86,0,0,0,3782.412-2701.675Zm-15.7-10.026c.01.041.02.081.03.123a1.534,1.534,0,0,0,.333.129,1.531,1.531,0,0,1,1.352,1.054.675.675,0,0,0,.653.468.881.881,0,0,1,.777.48,2.493,2.493,0,0,0,.281.425.609.609,0,0,0,.962.008,3.453,3.453,0,0,0,.4-2.431.331.331,0,0,0-.277-.286.909.909,0,0,1-.693-1.038,3.024,3.024,0,0,1,.158-.42,1.767,1.767,0,0,0-1.44.047C3768.381-2712.7,3767.553-2712.185,3766.709-2711.7Zm9.752,4.686c.3.331.6.685.919,1.027a3.1,3.1,0,0,0,2.669.956,6.914,6.914,0,0,1,2.014.078,1.631,1.631,0,0,0,1.541-.315c-.228-.25-.451-.477-.652-.722a2.4,2.4,0,0,0-1.392-.894c-.363-.072-.734-.108-1.1-.149-.621-.07-1.252-.086-1.862-.21A3.7,3.7,0,0,0,3776.461-2707.015Zm-4.881,19.936-.01.1a.87.87,0,0,0,.246.039,2.389,2.389,0,0,1,1.891.59,4.436,4.436,0,0,0,2.267,1.107,13.347,13.347,0,0,0,1.346.008,2.042,2.042,0,0,1-.212.243,1.449,1.449,0,0,1-1.227.133,5.392,5.392,0,0,1-2.561-1.3,2.294,2.294,0,0,0-1.2-.479,8.648,8.648,0,0,1,1.231.873,4.013,4.013,0,0,0,2.584,1.182,2.141,2.141,0,0,0,2.321-1.211,5.028,5.028,0,0,0,.476-2.579,2.575,2.575,0,0,1,.417-1.6,3.216,3.216,0,0,0,.249-.446,1.631,1.631,0,0,0,.122-1.138c-.433.35-.863.645-.942,1.225a1.233,1.233,0,0,1-.163.414,3.69,3.69,0,0,0-.382,1.627,6.641,6.641,0,0,1-.271,1.659c-.241.736-.549.985-1.405.721a7.888,7.888,0,0,1-.961-.421c-.569-.265-1.129-.55-1.705-.8A2.344,2.344,0,0,0,3771.58-2687.08Zm.089-26.938h-1.763v-1.389h1.513v-.7h-2.1c-.252,0-.285.138-.257.357.066.518.1,1.039.164,1.558.018.159-.019.24-.192.252a5.587,5.587,0,0,0-.6.08c-.6.111-1.207.229-1.842.351l-.376-1.324,1.427-.338a2.851,2.851,0,0,1-.047-.308c-.012-.334-.187-.405-.484-.326-.36.1-.726.166-1.086.264-.8.217-.8.221-.53,1.018.024.071.049.141.071.212l.307,1.023c-.467.185-.886.339-1.3.516-.592.256-.572.15-.223.731,0,.008.018.01.048.026.073-.029.158-.07.246-.1.97-.318,1.935-.65,2.913-.942a9.9,9.9,0,0,0,1.557-.44,2.248,2.248,0,0,1,1.656-.1C3771.2-2713.463,3771.39-2713.542,3771.669-2714.018Zm-8.9,25.187c-.091.562-.207,1.115-.265,1.674a2.271,2.271,0,0,0,1.379,2.517,2.725,2.725,0,0,0,2.6-.168c.653-.354,1.3-.727,1.972-1.036.285-.131.474-.236.389-.63-.444.229-.867.469-1.308.672-.672.311-1.349.613-2.039.883a1.531,1.531,0,0,1-.583-.022l-.007-.13c.155-.051.312-.1.466-.152a11.051,11.051,0,0,0,1.07-.393c.614-.292,1.212-.618,1.814-.934a1.76,1.76,0,0,1,1.382-.21,1.2,1.2,0,0,0,.338,0c.054-.314-.064-.509-.355-.545a2.381,2.381,0,0,0-.782-.01,9.853,9.853,0,0,0-2.581,1.158,14.3,14.3,0,0,1-1.712.773.809.809,0,0,1-1.05-.414,3.84,3.84,0,0,1-.178-1.056c-.031-.784.015-1.573-.05-2.353a1.4,1.4,0,0,0-.437-.783,11.769,11.769,0,0,0-1.16-.889,3.522,3.522,0,0,0,.31.724c.117.162.349.235.507.374a5.353,5.353,0,0,1,.609.62c.054.067.009.215.009.326Zm14.708-10.135c.838-.943,1.55-.41,2.248.071a4.575,4.575,0,0,1,.493-.647,1.128,1.128,0,0,1,1.368-.015,3.475,3.475,0,0,0,.883.331.452.452,0,0,0,.549-.338,1.25,1.25,0,0,1-1.234-.49,2.783,2.783,0,0,1-.577-1.5.776.776,0,0,0-.688-.644,4.679,4.679,0,0,1,.082.812.79.79,0,0,1-.428.7c-.167-.507-.3-.992-.793-1.239-.635.717-1.364.585-2.2.24C3777.284-2700.776,3777.376-2699.925,3777.481-2698.966Zm-6.34-8.77a2.971,2.971,0,0,0,.462,2.055,1.169,1.169,0,0,0,.891.563,6.6,6.6,0,0,0,1.3.006,4.244,4.244,0,0,1,1.74-.009c.373.11.735.26,1.138.406a3.167,3.167,0,0,0-1.354-2.022,2.387,2.387,0,0,0-1.673-.225C3772.717-2706.9,3771.789-2706.826,3771.141-2707.735Zm5.673,6.921a2.279,2.279,0,0,0-1.121-2.264,7.5,7.5,0,0,0-1.239-.375,3.362,3.362,0,0,1-1.9-.717c-.035-.037-.115-.035-.175-.042a2.266,2.266,0,0,1-1.5-.75c-.108-.123-.207-.254-.315-.388l-.934,2.042a3.673,3.673,0,0,0,.561.164c1.076.138,2.159.229,3.229.4a4.992,4.992,0,0,1,2.94,1.412C3776.5-2701.181,3776.631-2701.02,3776.814-2700.814Zm-14.11-12.616c.416-.195.813-.373,1.2-.569.085-.043.2-.159.192-.236-.027-.413-.246-.538-.615-.377-.078.034-.16.061-.235.1-.535.275-1.069.553-1.632.845l1.08,1.793-2.4,1.764-.9-1.005c.336-.277.634-.534.942-.777.479-.377.482-.373.069-.827a.694.694,0,0,0-.137-.058l-2.113,1.8c.489.469.918.868,1.33,1.285a1.22,1.22,0,0,1,.167.372c.258-.075.585-.164.907-.269a1.511,1.511,0,0,0,.421-.194c.569-.412,1.131-.834,1.691-1.258a.813.813,0,0,0,.239-.243c.156-.3.29-.607.435-.918Zm14.9,20.272a10.3,10.3,0,0,1-1.817,2.953c-.765.877-1.6,1.7-2.394,2.539a.676.676,0,0,0,.943-.114c.263-.278.561-.522.845-.78.087-.079.18-.151.271-.226l.088.087c-.238.6-.823.9-1.251,1.341.258.212.488.32.754.026a7.038,7.038,0,0,1,.553-.482,16.8,16.8,0,0,0,2.829-3.369,2.624,2.624,0,0,0,.142-.312c-.59.754-1.125,1.443-1.671,2.121-.057.071-.192.078-.291.114.02-.1.01-.217.065-.288.366-.472.768-.917,1.113-1.4a12.048,12.048,0,0,0,.635-1.122l-.072-.04c-.224.2-.284.564-.649.635a1.3,1.3,0,0,1,.156-.428c.387-.681.389-.68-.157-1.228C3777.694-2693.141,3777.68-2693.14,3777.608-2693.158Zm-10.978,8.655a15.456,15.456,0,0,0,7.777.042l-1.48-1.1c-.547.7-.677.576-1.59.41a.478.478,0,0,0-.324.046,1.393,1.393,0,0,1-1.85-.327c-.1-.2-.224-.21-.414-.167A7.725,7.725,0,0,0,3766.631-2684.5Zm7.009-24.876c.2-.174.389-.35.586-.521a2.076,2.076,0,0,1,1.818-.555,2.988,2.988,0,0,0,1.9-.46c-.595-.467-1.153-.923-1.732-1.352a2.886,2.886,0,0,0-.733-.381,1.141,1.141,0,0,0-1.374.518A6.974,6.974,0,0,0,3773.64-2709.38Zm-16.693,2.762c.053.007.091.015.129.017.862.042,1.724.073,2.584.128a4.808,4.808,0,0,0,2.215-.372,1.922,1.922,0,0,0,.968-1A5.408,5.408,0,0,0,3756.947-2706.618Zm8.535,18.922.1-.165a1.467,1.467,0,0,1,.372.143c.273.2.522.438.793.643a.408.408,0,0,0,.307.1,5.339,5.339,0,0,0,.65-.338,9.426,9.426,0,0,1-2.126-2.083,8.524,8.524,0,0,1-1.355-2.576c-.579.446-.58.447-.342,1.043.145.365.3.725.439,1.093a1.03,1.03,0,0,1,.005.336l-.173.032-.753-1.682-.094.007a1.41,1.41,0,0,0-.015.392,6.7,6.7,0,0,0,1.638,2.884,15.978,15.978,0,0,0,1.19,1.1.956.956,0,0,0,.325.117l.1-.158Zm21.893-16.836.055-.037a3.269,3.269,0,0,0-.144-.337,7.269,7.269,0,0,0-4.432-3.413,9.507,9.507,0,0,0-2.529-.149c-.9-.034-1.854.3-2.691-.343a.531.531,0,0,0,.137.212,3.438,3.438,0,0,0,1.95.786c.941.106,1.893.161,2.822.339a8.429,8.429,0,0,1,1.957.655,8.459,8.459,0,0,1,2.439,1.882C3787.077-2704.795,3787.229-2704.667,3787.375-2704.532Zm-3.978-.243a3.17,3.17,0,0,1,1.472,1.54,6.109,6.109,0,0,0,1.454,2.077c.154.125.376.323.51.286.353-.1.607.116.907.156.129.017.275-.081.413-.126-.061-.106-.1-.247-.186-.312a8.8,8.8,0,0,1-2.476-2.758,7.272,7.272,0,0,0-1.73-2.154,8.135,8.135,0,0,0-.788-.489l-.08.107,1.177,1.141Zm-2.005,10.062a5.453,5.453,0,0,1,.129-.8c.139-.422.316-.831.479-1.244.524-1.328.374-2.121-.9-2.6a.714.714,0,0,0-.954.526,1.846,1.846,0,0,1-.381,1.191c.093.039.138.063.187.076a1.308,1.308,0,0,1,1.026,1.13c.045.326.042.661.11.982A4.711,4.711,0,0,0,3781.392-2694.714Zm-1.321-15.347a1.492,1.492,0,0,0-1.634-.61,6.382,6.382,0,0,0-.755.249,3.007,3.007,0,0,1-1.806.26,1.275,1.275,0,0,0-1.091.242c-.576.466-1.117.973-1.713,1.5.111.027.135.042.15.036.079-.031.155-.069.233-.1a3.314,3.314,0,0,1,2.32-.313,1.619,1.619,0,0,0,1.4-.292c.151-.1.24-.193.134-.387-.029-.053.026-.227.063-.233q1.035-.19,2.076-.344A4.719,4.719,0,0,1,3780.071-2710.061Zm-19.689,7.656a1.482,1.482,0,0,0,1.089.415,3.865,3.865,0,0,0,2.2-.745,3.221,3.221,0,0,1,1.035-.452,13.626,13.626,0,0,1,1.556-.152c.086-.008.172-.024.276-.038-.033-.058-.039-.082-.055-.092-.126-.079-.255-.154-.382-.232a2.634,2.634,0,0,0-3.308.153A3.729,3.729,0,0,1,3760.382-2702.405Zm18.543,10.78c.9-.693,1.1-1.373.467-2.186a6.354,6.354,0,0,0-.821-.895,2.873,2.873,0,0,1-1.1-1.88c0-.011-.031-.02-.063-.037-.089.459-.209.91-.253,1.368a1.577,1.577,0,0,0,.112.886,9.047,9.047,0,0,0,1.007,1.351A2.378,2.378,0,0,1,3778.924-2691.626Zm-16.793.443c.043-.03.072-.038.076-.053a3.546,3.546,0,0,1,1.627-2.009.678.678,0,0,0,.347-.674c-.062-.41-.187-.811-.277-1.186-.368.193-.7.336-1,.533a5.5,5.5,0,0,0-1.043.813,1.413,1.413,0,0,0,.057,1.89.693.693,0,0,1,.134.31C3762.089-2691.442,3762.1-2691.318,3762.131-2691.183Zm5.815-14.775c-1.2-.924-2.139-.208-2.71.582.481.195.954.384,1.425.576a1.391,1.391,0,0,0,1.751-.5,2.4,2.4,0,0,1,1.678-1.118,1.008,1.008,0,0,0-.47-.365,1.387,1.387,0,0,0-1.417.528C3768.122-2706.155,3768.037-2706.063,3767.946-2705.958Zm3.89-5.737a3.811,3.811,0,0,1-.506,3.078c-.159.266-.1.418.185.539a1.017,1.017,0,0,0,1.358-.537,4.015,4.015,0,0,0,.418-1.618A1.488,1.488,0,0,0,3771.836-2711.7Zm5.072,9.358a1.525,1.525,0,0,0-.339-1.961,2.673,2.673,0,0,0-1.6-.567c-.731.044-1.459.127-2.2.194a.511.511,0,0,0,.384.533c.271.093.549.166.828.232q.59.141,1.185.259A2.78,2.78,0,0,1,3776.908-2702.338Zm-4.743-11.752a1.7,1.7,0,0,1-.883.93.6.6,0,0,0-.354.687c.078.3.356.356.639.373a2.062,2.062,0,0,1,.688.089c.395.172.761.408,1.116.6l.787-1.522a1.162,1.162,0,0,0-.784-.45A1.671,1.671,0,0,1,3772.165-2714.09Zm9.374,12.722a1.776,1.776,0,0,0,.4,1.024.879.879,0,0,0,1.413.211.886.886,0,0,0,.294-.772.545.545,0,0,1,.355-.579c.277-.116.426.045.608.21.106.1.342.2.416.15a.651.651,0,0,0,.294-.461c-.074-.694-.531-1.162-1.272-.7-.126.079-.237.181-.358.267C3783.051-2701.565,3782.469-2700.956,3781.539-2701.368Zm-6.327,14.494c.279.145.577.331.9.46.924.372,1.292.186,1.444-.786.13-.833.186-1.679.261-2.391Zm-11.531-1.929c0,.252,0,.5,0,.757,0,.565-.029,1.131-.006,1.7a.66.66,0,0,0,.991.6c.293-.127.586-.251.875-.387.155-.073.3-.167.478-.267A12.286,12.286,0,0,1,3763.681-2688.8Zm14.775-8.71,1.035.6a1.185,1.185,0,0,0,0-.328.759.759,0,0,1,.138-.825.373.373,0,0,0,0-.327,1.406,1.406,0,0,0-1.005-.714.673.673,0,0,0-.847.881,1.126,1.126,0,0,1,.04.283c.007.393-.005.786.015,1.179a5.974,5.974,0,0,0,.11.678l.091-.009A2.637,2.637,0,0,1,3778.457-2697.514Zm2.533,2.909a6.68,6.68,0,0,1-.286-.8,6.6,6.6,0,0,1-.072-.793.972.972,0,0,0-.731-.988,1.089,1.089,0,0,0-.011.157c.024.32-.11.469-.433.378-.29-.081-.574-.184-.862-.277a1.259,1.259,0,0,0,.483,1.127c.332.308.625.655.94.981a.367.367,0,0,0,.182.118C3780.459-2694.661,3780.721-2694.636,3780.99-2694.6Zm-17.789-6.587c.075-.134.151-.269.227-.4a1.373,1.373,0,0,1,1.136-.822,11.313,11.313,0,0,1,1.488.113c.251.026.5.118.749.126a2.82,2.82,0,0,0,2.089-1.008l-2.227.194-1.906.17a1.958,1.958,0,0,0-1.259.693A1.046,1.046,0,0,0,3763.2-2701.191Zm21.485-1.659c-.118-.244-.2-.447-.31-.637-.349-.622-.648-.728-1.393-.287a1.472,1.472,0,0,0-.206,1.956C3783.409-2702.124,3783.827-2702.811,3784.686-2702.851Zm-21.709-3.663a15.1,15.1,0,0,0,1.454.557,1.2,1.2,0,0,0,.807-.054,10.682,10.682,0,0,0,1.2-.85,1.652,1.652,0,0,0-1.288-.346,2.756,2.756,0,0,1-.847.127A1.6,1.6,0,0,0,3762.977-2706.514Zm-7.181,6.251a.967.967,0,0,0,.906.784,1.143,1.143,0,0,0,1.272-1.062c.121-.708-.14-.935-1.068-1.3C3757.158-2700.906,3756.826-2700.427,3755.8-2700.262Zm21.844-9.117a1.222,1.222,0,0,0,1.1.618c.743.016,1.487,0,2.231-.013.138,0,.276-.024.449-.04A3.239,3.239,0,0,0,3777.64-2709.38Zm-12.591,9.956c.29.011.434-.177.542-.406a2.828,2.828,0,0,1,1.459-1.483,2.693,2.693,0,0,0,.608-.525,9.329,9.329,0,0,0-1.242.01A2.076,2.076,0,0,0,3765.05-2699.424Zm-8.453-8.481,1.045-1.418-.579-.454-1.6,2.289,1.029.6.4-.787Zm6.248-.378c-.17-.427-.335-.759-.732-.845a4.313,4.313,0,0,0-1.012-.11,6.34,6.34,0,0,0-3.046,1.139,3.625,3.625,0,0,0-.442.362A6.3,6.3,0,0,1,3762.844-2708.283Zm.576,11.9a3.349,3.349,0,0,1-.36.434c-.447.391-.915.756-1.36,1.149a5.318,5.318,0,0,0-.751.772.492.492,0,0,0,.262.767c.189-.977.937-1.4,1.756-1.759a2.081,2.081,0,0,0,.542-.324A.651.651,0,0,0,3763.42-2696.386Zm3.15-14.73a1.092,1.092,0,0,0,.751,1.312.981.981,0,0,1,.409.3.779.779,0,0,0,1.312-.01.983.983,0,0,1-.977-.752,1.1,1.1,0,0,0-.9-.725C3766.975-2711.018,3766.783-2711.07,3766.57-2711.116Zm5.97,25.319c-.465-.377-.877-.734-1.314-1.057a1.544,1.544,0,0,0-.6-.258c-.264-.053-.346.073-.263.336a1.868,1.868,0,0,0,1.518,1.337A.487.487,0,0,0,3772.54-2685.8Zm-6.876-16.23c-.21-.01-.425-.029-.639-.03a1.747,1.747,0,0,0-1.685,1.656c0,.07.1.206.121.2a1.258,1.258,0,0,0,.513-.2C3764.539-2700.919,3765.082-2701.463,3765.664-2702.027Zm11.746-.625c-.187.428-.179.466.142.685a1.085,1.085,0,0,0,1.621-.361,2.171,2.171,0,0,0,.1-.232l.153.029.841.744c.009-.251-.233-.514-.487-.773a.52.52,0,0,0-.818-.071.85.85,0,0,1-.546.115C3778.081-2702.535,3777.749-2702.6,3777.41-2702.652Zm-9.442,4.543a1.847,1.847,0,0,0-1.621.054c-.146.072-.282.128-.259.344.021.2.059.349.281.394a1.559,1.559,0,0,0,.431.1,4.145,4.145,0,0,0,1.1-.225c.1-.042.063-.413.088-.633C3767.989-2698.081,3767.978-2698.091,3767.968-2698.109Zm-11.365-3.986c-.366-.523-.453-.53-.973-.211-.372.228-.366.559-.323.919a.69.69,0,0,0,.531.639.674.674,0,0,0,.706-.375,1.087,1.087,0,0,0,0-.429c-.124.046-.248.091-.372.138-.072.028-.158.1-.21.08a.224.224,0,0,1-.11-.193.753.753,0,0,1,.208-.388A2.032,2.032,0,0,1,3756.6-2702.095Zm6.386,4.857c-.063.149-.112.275-.168.4-.2.436-.439.832-.992.883-.06.005-.132.108-.161.18-.169.4-.4.706-.9.638a.292.292,0,0,0-.222.073.88.88,0,0,0-.061.871c.436-.381.877-.769,1.323-1.153.329-.283.676-.547.993-.843A.848.848,0,0,0,3762.99-2697.238Zm.639-2.5c-.737-.241-1.019-.052-1.286.429a.421.421,0,0,0,.074.6.762.762,0,0,0,.8.03C3763.579-2698.96,3763.4-2699.418,3763.629-2699.741Zm1.116-12.115c.006.038.011.076.017.114.582.441,1.989-.037,2.872-1.063Zm6.01,26.372c-.173-.24-.344-.482-.52-.72a.938.938,0,0,0-.975.035.312.312,0,0,0-.007.213A1.022,1.022,0,0,0,3770.754-2685.483Zm7.69-10.453c.083,1.074,1.089,1.482,1.5,2.283C3780.019-2694.762,3779.138-2695.252,3778.444-2695.937Zm-14.454-2.681c.251-.271.557-.458.628-.711a6.183,6.183,0,0,0,.1-1.291A1.842,1.842,0,0,0,3763.99-2698.618Zm-1.365,7.919c.232-.334.462-.7.726-1.03a5.09,5.09,0,0,1,.516-.474.692.692,0,0,0,.224-.739C3763.14-2692.47,3762.417-2691.31,3762.625-2690.7Zm14.286-3.515c-.4.841-.385,1.383.057,1.719.132-.285.266-.56.385-.841a.268.268,0,0,0-.015-.208C3777.211-2693.761,3777.069-2693.969,3776.911-2694.214Zm7.2-13.883.057-.049-.811-1.028-.593.524Zm-29.215,7.277v-1.29c-.542.5-.618.7-.426,1.08C3754.571-2700.829,3754.72-2700.755,3754.9-2700.82Zm-.593-4.305.048.03.8-.687-.45-.19Zm-.183,4.91c.227.022.4.046.582.051.04,0,.094-.062.116-.108.008-.019-.046-.083-.083-.1-.182-.1-.367-.2-.565-.3C3754.155-2700.545,3754.139-2700.4,3754.12-2700.215Zm9.456,3.517c-.026-.449-.047-.824-.069-1.214-.242.016-.34.08-.255.3C3763.358-2697.339,3763.448-2697.06,3763.576-2696.7Zm19.869-7.664c0-.026,0-.052.008-.078l-.793-.194-.02.075.375.345Zm-22.674,7.9.089-.046a4.2,4.2,0,0,0-.11-.486c-.019-.055-.115-.083-.176-.124-.035.07-.119.164-.1.206A4.208,4.208,0,0,0,3760.771-2696.459Zm-5.3-6.413.035.044.612-.219c-.014-.131-.026-.238-.042-.39Zm30.715-3.869c-.145-.495-.285-.613-.48-.416Z" transform="translate(-3717.5 2717.482)" fill="#9f9f9f"/><path d="M4061.448-2449.417c-.061.5-.344.685-1.241.8l.282.233c-.023.051-.033.111-.068.14a2.492,2.492,0,0,1-2.325.657c-.257-.069-.515-.133-.771-.205-.172-.048-.323-.12-.28-.356l.462.183c-.013-.185-.023-.337-.036-.515l-.314.248-.073-.057a.887.887,0,0,1,.433-.531,2.1,2.1,0,0,1,2.288-.027,1.44,1.44,0,0,0-1.3-.523,10.642,10.642,0,0,0-1.412.423,2.047,2.047,0,0,1,1.131-.692,1.959,1.959,0,0,1,1.647.411c.738.515.911.49,1.5-.161C4061.378-2449.4,4061.4-2449.4,4061.448-2449.417Zm-3.818.823a1.848,1.848,0,0,0,.116.386c.087.148.183.359.317.4a1.7,1.7,0,0,0,1.392-.1c.147-.087.4-.127.317-.364a.75.75,0,0,0-.335-.407A1.918,1.918,0,0,0,4057.63-2448.595Z" transform="translate(-4002.544 2467.828)" fill="#9f9f9f"/><path d="M4016.812-2441.485a2.569,2.569,0,0,1,.162,1.3,4.734,4.734,0,0,0-.041.7,5.384,5.384,0,0,1-.114,1.894c-.143.524,0,1.068.789,1.07a2.043,2.043,0,0,1,.214.03c-.08.075-.119.137-.173.157a.82.82,0,0,1-1.081-.6,2.425,2.425,0,0,1,.013-1.006,4.948,4.948,0,0,0,.105-1.513c-.036-.633.026-1.271.048-1.908C4016.736-2441.392,4016.765-2441.415,4016.812-2441.485Z" transform="translate(-3964.625 2460.151)" fill="#9f9f9f"/><path d="M3991.839-2336.692l.469.468c-.4.078-.7.133-1,.2a1.408,1.408,0,0,1-.994-.076.594.594,0,0,0-.6.031.733.733,0,0,1-.556.053,1.4,1.4,0,0,0-1.024-.034,1.419,1.419,0,0,1-1.116.029c-.09-.042-.243.047-.43.018l.383-.492c.25.472.631.324.926.263a1.976,1.976,0,0,1,1.427.014.25.25,0,0,0,.208-.033,1.2,1.2,0,0,1,.952-.06,3.841,3.841,0,0,0,.966.033c.12-.01.23-.163.344-.251Z" transform="translate(-3936.605 2362.068)" fill="#9f9f9f"/><path d="M4051.968-2461.444c.294-.256.582-.519.882-.769a1.633,1.633,0,0,1,1.546-.365,4.606,4.606,0,0,1,.605.2,2.628,2.628,0,0,0,1.782.313,1.085,1.085,0,0,1-1.145.189c-.4-.134-.8-.284-1.209-.4a1.606,1.606,0,0,0-1.59.408,3.982,3.982,0,0,1-.495.4,1.278,1.278,0,0,1-.364.1C4051.976-2461.395,4051.973-2461.419,4051.968-2461.444Z" transform="translate(-3997.8 2479.953)" fill="#9f9f9f"/><path d="M3999.365-2320.577a16.47,16.47,0,0,0,3.856-.129l.024.1c-.092.056-.177.151-.274.164-.49.065-.983.122-1.476.158-.326.024-.655.012-.982.008a4.454,4.454,0,0,1-.757-.041C3999.625-2320.344,3999.514-2320.474,3999.365-2320.577Z" transform="translate(-3948.565 2347.105)" fill="#9f9f9f"/><path d="M4010.114-2345.459a2.524,2.524,0,0,1-.517-.083c-.273-.1-.532-.231-.815-.043-.008.006-.023.011-.03.008-.459-.244-.853.072-1.277.142a.5.5,0,0,1-.348-.115c.544.048.942-.588,1.527-.288a.074.074,0,0,0,.062,0c.557-.383.936.172,1.407.241C4010.12-2345.551,4010.117-2345.5,4010.114-2345.459Z" transform="translate(-3955.831 2370.753)" fill="#9f9f9f"/><path d="M3998.976-2364.615c-.389.044-.778.089-1.167.131a.416.416,0,0,1-.474-.567c.11.1.2.259.328.292s.28-.064.424-.092A.873.873,0,0,1,3998.976-2364.615Z" transform="translate(-3946.643 2388.611)" fill="#9f9f9f"/><path d="M4039.95-2371.432c.134.424.046.657-.3.729a8.572,8.572,0,0,1-1.039.094l-.026-.123c.2-.04.4-.082.6-.119.254-.047.55-.009.65-.348A1.453,1.453,0,0,1,4039.95-2371.432Z" transform="translate(-3985.27 2394.584)" fill="#9f9f9f"/><path d="M4049.968-2428.084a1.264,1.264,0,0,1-.584-1.331C4049.57-2428.991,4049.755-2428.567,4049.968-2428.084Z" transform="translate(-3995.356 2448.854)" fill="#9f9f9f"/><path d="M4027.607-2350.913l.676-.051C4028.2-2350.666,4028.019-2350.635,4027.607-2350.913Z" transform="translate(-3974.999 2375.427)" fill="#9f9f9f"/></g></svg>