<svg xmlns="http://www.w3.org/2000/svg" width="56.722" height="59.036" viewBox="0 0 56.722 59.036"><g transform="translate(0 0)"><path d="M-518.147-1694.931c-.306-.027-.613-.052-.919-.081a17.051,17.051,0,0,1-4.5-1.051,17.3,17.3,0,0,1-10.439-11.415,16.768,16.768,0,0,1-.62-5.633,16.99,16.99,0,0,1,5.824-12,16.758,16.758,0,0,1,7.075-3.761,17.2,17.2,0,0,1,5.675-.493,16.984,16.984,0,0,1,6.154,1.656.246.246,0,0,0,.241,0,16.092,16.092,0,0,1,4.593-1.46,16.969,16.969,0,0,1,14.229,3.97,16.778,16.778,0,0,1,5.621,9.611,16.874,16.874,0,0,1,.22,5.422,17.252,17.252,0,0,1-9.323,13.37,16.964,16.964,0,0,1-5.848,1.749c-.354.039-.71.059-1.066.089-.057,0-.113.015-.17.023h-1.446a1.125,1.125,0,0,0-.141-.023,16.761,16.761,0,0,1-3.083-.431,16.5,16.5,0,0,1-3.564-1.276.287.287,0,0,0-.293,0c-.161.085-.329.158-.5.232a17.142,17.142,0,0,1-5.691,1.444c-.2.015-.391.035-.587.052Zm11.854-4.1a13.759,13.759,0,0,0,15.848-5.7,13.807,13.807,0,0,0-1.819-17.149,13.7,13.7,0,0,0-4.119-2.887,14.17,14.17,0,0,0-4.89-1.226,14.465,14.465,0,0,0-4.98.627,17.1,17.1,0,0,1,5.49,8.548.521.521,0,0,1-.065.011c-1.133,0-2.266,0-3.4,0-.1,0-.119-.057-.144-.126a13.621,13.621,0,0,0-3.972-5.749c-.444-.382-.923-.724-1.378-1.078-.076.048-.121.076-.165.106a13.638,13.638,0,0,0-5.195,6.692.2.2,0,0,1-.225.157c-1.075-.007-2.15,0-3.225,0h-.175a17.425,17.425,0,0,1,5.507-8.6,13.847,13.847,0,0,0-15.451,5.185,13.781,13.781,0,0,0,1.012,17.288,13.728,13.728,0,0,0,14.358,3.925,17.083,17.083,0,0,1-6-11.8h8.2v3.361l-3.974.063a.277.277,0,0,0,0,.054c.012.036.024.073.038.109a13.852,13.852,0,0,0,5.134,6.466.2.2,0,0,0,.263,0,13.85,13.85,0,0,0,5-6.144c.065-.153.122-.309.193-.486l-4-.062v-3.363h8.2A17.209,17.209,0,0,1-506.293-1699.028Z" transform="translate(539.118 1753.967)" fill="#9f9f9f"/><path d="M-545.872-1835.9l.362.086a6.381,6.381,0,0,1,2.675,1.272.724.724,0,0,1,.31.617c-.009.476.029.954.043,1.431a.365.365,0,0,1-.044.122c-.035-.03-.085-.054-.1-.092a4.978,4.978,0,0,0-2.216-2.321,4.751,4.751,0,0,0-2.611-.484,4.491,4.491,0,0,0-3.939,2.88,6.008,6.008,0,0,0,.462,5.97,4.4,4.4,0,0,0,4.2,2.02,6.581,6.581,0,0,0,2.551-.621.216.216,0,0,0,.139-.23c0-1-.013-2,0-2.994a.668.668,0,0,0-.364-.662.565.565,0,0,1-.109-.07.484.484,0,0,1-.065-.093.348.348,0,0,1,.1-.022,15.731,15.731,0,0,0,2.829,0,.309.309,0,0,1,.1.026.5.5,0,0,1-.057.082.288.288,0,0,1-.075.043.674.674,0,0,0-.407.695c.023.616,0,1.234.009,1.851a.482.482,0,0,1-.108.316,5.818,5.818,0,0,1-3.936,2.328,7.235,7.235,0,0,1-5.322-1.211,5.64,5.64,0,0,1-2.531-4.5c0-.062-.015-.123-.022-.184V-1830c.008-.081.02-.161.025-.242a5.3,5.3,0,0,1,.343-1.661,6.159,6.159,0,0,1,4.209-3.764c.3-.091.612-.156.919-.233Z" transform="translate(554 1835.901)" fill="#9f9f9f"/><path d="M-430.737-1835.9l.36.087a6.282,6.282,0,0,1,2.738,1.333.6.6,0,0,1,.237.5c0,.486.033.973.047,1.459a.45.45,0,0,1-.05.145c-.037-.036-.086-.066-.108-.109a4.665,4.665,0,0,0-2.529-2.441,4.665,4.665,0,0,0-4.97.779,5.1,5.1,0,0,0-1.665,2.971,6.108,6.108,0,0,0,.8,4.662,4.405,4.405,0,0,0,3.879,2.119,6.218,6.218,0,0,0,2.38-.393,4.582,4.582,0,0,0,2.023-1.647.451.451,0,0,1,.068-.093.13.13,0,0,1,.094-.028c.019,0,.043.048.043.074-.007.337-.015.675-.033,1.011a.283.283,0,0,1-.1.15,5.441,5.441,0,0,1-2.409,1.341,7.547,7.547,0,0,1-5.539-.476,5.769,5.769,0,0,1-3.245-3.983,5.97,5.97,0,0,1,3.59-6.938,8.124,8.124,0,0,1,1.671-.5.488.488,0,0,0,.079-.028Z" transform="translate(465.419 1835.901)" fill="#9f9f9f"/><path d="M-373-1835.9c.237.058.476.109.711.176a6.092,6.092,0,0,1,2.4,1.251.583.583,0,0,1,.226.478c0,.491.033.982.048,1.474a.487.487,0,0,1-.046.148c-.037-.036-.087-.064-.108-.107a4.979,4.979,0,0,0-2.211-2.307,4.75,4.75,0,0,0-2.611-.482,4.51,4.51,0,0,0-3.975,2.96,6.031,6.031,0,0,0,.552,5.964,4.3,4.3,0,0,0,3.619,1.951,6.332,6.332,0,0,0,2.431-.356,4.543,4.543,0,0,0,2.124-1.7.4.4,0,0,1,.059-.082.111.111,0,0,1,.082-.029.089.089,0,0,1,.051.068c-.007.346-.015.693-.033,1.04,0,.043-.051.089-.087.124a5.434,5.434,0,0,1-2.463,1.362,7.515,7.515,0,0,1-5.753-.629,5.684,5.684,0,0,1-3.041-4.135,5.9,5.9,0,0,1,3.032-6.349,7.577,7.577,0,0,1,2.266-.793.737.737,0,0,0,.093-.031Z" transform="translate(420.987 1835.901)" fill="#9f9f9f"/><path d="M-317.966-1823.307c-.317-.012-.635-.036-.952-.034-.63,0-1.26.023-1.891.035h-.131l-.013-.038a1.137,1.137,0,0,1,.122-.079.752.752,0,0,0,.433-.737c.005-.6.026-1.2.027-1.793q.005-3.253,0-6.506c0-.554-.026-1.108-.025-1.662a.814.814,0,0,0-.447-.78.662.662,0,0,1-.093-.065c-.005,0,0-.018,0-.049.07.008.136.019.2.024a14.414,14.414,0,0,0,2.6-.02c.057-.006.115-.006.173-.009v.058c-.055.031-.109.062-.164.091a.706.706,0,0,0-.384.649c-.009.265-.03.53-.03.794.007,3.084.02,6.167.023,9.251a.779.779,0,0,0,.554.814Z" transform="translate(374.689 1835.225)" fill="#9f9f9f"/><path d="M-482.709-1834.982c.3.021.6.059.9.059s.593-.037.924-.061c-.039.047-.058.09-.089.1a.831.831,0,0,0-.483.856c-.012,2.024-.035,4.048-.058,6.073a6.451,6.451,0,0,1-.392,2.323,3.934,3.934,0,0,1-2.5,2.377,6.081,6.081,0,0,1-3.558.048,4.234,4.234,0,0,1-2.149-1.232,4.188,4.188,0,0,1-1.084-2.454c-.039-.378-.048-.76-.05-1.14-.009-1.706-.01-3.413-.016-5.119,0-.323-.021-.646-.016-.969a.74.74,0,0,0-.431-.737.258.258,0,0,1-.107-.122,18.434,18.434,0,0,0,2.97.009c-.026.03-.046.073-.079.087a.761.761,0,0,0-.473.784c0,.53-.029,1.06-.031,1.59q-.007,2.372,0,4.743a5.879,5.879,0,0,0,.215,1.7,2.734,2.734,0,0,0,2.011,1.963,4.94,4.94,0,0,0,2.672-.005,3.155,3.155,0,0,0,2.286-2.467,5.645,5.645,0,0,0,.142-1.332c0-1.812-.028-3.624-.048-5.436,0-.255-.026-.511-.026-.766a.756.756,0,0,0-.44-.749.686.686,0,0,1-.119-.093Z" transform="translate(506.154 1835.195)" fill="#9f9f9f"/></g></svg>