<svg xmlns="http://www.w3.org/2000/svg" width="125.318" height="32.681" viewBox="0 0 125.318 32.681"><g transform="translate(0)"><path d="M2476.9-736.339h-1.437v.482h1.058v10.736c0,1.474,0,2.021-.571,2.189h-1.876a1.188,1.188,0,0,1-1.129-1.288c-.031-.666-.027-1.336-.007-2,.044-1.5-.3-2.785-1.838-3.473.132-.108.2-.171.278-.224a3.368,3.368,0,0,0,1.587-4.06,3.513,3.513,0,0,0-3.219-2.359c-.975,0-1.746.005-2.472.01v-.01h-2.587v.482h.43a.306.306,0,0,0,.064.009c.4.005.634.073.632.567-.013,3.933-.011,7.732,0,11.665,0,.412-.14.687-.551.685h-.611v.482h4.544v-.482h-1.161c-.368-.025-.5-.206-.492-.685.035-1.631.013-3.265.012-4.9v-1c.508,0,.893-.008,1.278,0a2.064,2.064,0,0,1,2.292,2.339c.014.667.031,1.335.1,2,.141,1.4,1.152,2.684,2.31,2.722,1.068.036,2.14.022,3.21,0h2.569v-.482h-.817c-.278-.135-.272-.5-.271-.9.012-3.711.006-7.422.006-11.133v-.889h1.082v-.482H2478.3C2477.832-736.35,2477.367-736.352,2476.9-736.339Zm-8.571,6.374c-.214-.024-.433,0-.775,0,0-1.886-.01-3.661.02-5.437,0-.144.268-.389.432-.409a2.791,2.791,0,0,1,3.225,2.634C2471.387-731.649,2470.15-729.764,2468.334-729.965Z" transform="translate(-2376.137 740.59)" fill="#9f9f9f"/><path d="M2460.262-736.09a11.182,11.182,0,0,0-2.463-.248h-2.921v.482h.988a.991.991,0,0,1,.026.14c.009,4.051.011,8.251.026,12.3,0,.405-.191.464-.537.482-.181.009-.357.168-.535.243l.081.187h3.738c.021-.088-.594-.343-.574-.43-.292,0-.437-.244-.437-.69,0-1.661.051-2.745.051-4.5.632,0,1.211.031,1.787-.005a4.018,4.018,0,0,0,3.872-3.632A3.767,3.767,0,0,0,2460.262-736.09Zm.8,5.981a2.889,2.889,0,0,1-3.364,1.464v-7.113c2.047-.285,3.268.567,3.64,2.527A5.3,5.3,0,0,1,2461.058-730.109Z" transform="translate(-2375.129 740.589)" fill="#9f9f9f"/><path d="M0,0,24.18-.134l0,.476L0,.476Z" transform="matrix(0.368, -0.93, 0.93, 0.368, 65.735, 22.531)" fill="#9f9f9f"/><path d="M2419.462-711.852a10.75,10.75,0,0,0-1.61.123v5.862a12.126,12.126,0,0,0,1.375.07,3.574,3.574,0,0,0,2.592-.857,3.181,3.181,0,0,0,.844-2.316,2.766,2.766,0,0,0-.826-2.139A3.322,3.322,0,0,0,2419.462-711.852Zm-.087,5.437a4.708,4.708,0,0,1-.767-.045v-4.7a4.192,4.192,0,0,1,.888-.08,2.108,2.108,0,0,1,2.375,2.3A2.272,2.272,0,0,1,2419.375-706.415Z" transform="translate(-2371.328 738.433)" fill="#9f9f9f"/><path d="M2430.959-708.277c0,1.318-.556,1.9-1.425,1.9-.784,0-1.367-.566-1.367-1.9V-711.8h-.765v3.51c0,1.848.905,2.546,2.1,2.546,1.271,0,2.219-.752,2.219-2.582V-711.8h-.766Z" transform="translate(-2372.309 738.429)" fill="#9f9f9f"/><path d="M2439.276-709.042v-.017a1.413,1.413,0,0,0,.992-1.309,1.257,1.257,0,0,0-.487-1.052,2.393,2.393,0,0,0-1.609-.433,7.265,7.265,0,0,0-1.383.123v5.862a8.672,8.672,0,0,0,1.175.07,2.918,2.918,0,0,0,2.027-.556,1.622,1.622,0,0,0,.5-1.194A1.53,1.53,0,0,0,2439.276-709.042Zm-1.731-2.166a3.214,3.214,0,0,1,.67-.053c.765,0,1.287.274,1.287.973,0,.574-.47,1-1.271,1h-.687Zm.635,4.81a3.977,3.977,0,0,1-.635-.036V-708.7h.626c.826,0,1.513.336,1.513,1.149C2439.685-706.689,2438.963-706.4,2438.18-706.4Z" transform="translate(-2373.274 738.433)" fill="#9f9f9f"/><path d="M2446.643-711.8l-1.992,5.959h.784l.608-1.874h2.079l.627,1.874h.808l-2-5.959Zm-.443,3.484.574-1.724c.113-.362.208-.725.295-1.078h.018c.087.345.174.7.3,1.087l.574,1.715Z" transform="translate(-2374.082 738.429)" fill="#9f9f9f"/><rect width="0.757" height="5.959" transform="translate(79.121 26.625)" fill="#9f9f9f"/><rect width="8.033" height="0.594" transform="translate(117.285 4.203)" fill="#9f9f9f"/><path d="M2504.094-735.148h-8.545v.482h.9l.118.011v11.79h-1.027v.482h9.023v-4.033h-.474v.963a2.337,2.337,0,0,1-1.773,2.347,15.633,15.633,0,0,1-1.814.24h-2.116V-729.2s1.545-.08,2.1.446a2.536,2.536,0,0,1,.67,1.8h.49v-4.792h-.49a2.1,2.1,0,0,1-.694,1.836,5.127,5.127,0,0,1-2.071.354v-5.1h3.342l.351.015a2.146,2.146,0,0,1,1.98,2.03c.009.065.016.13.022.2v1.161h.474v-3.884h-.474Z" transform="translate(-2379.311 740.485)" fill="#9f9f9f"/><path d="M2490.955-735.856h1.133c-1.188,3.449-2.384,6.886-3.538,10.237l-.2-.03c-1.195-3.354-2.389-6.731-3.628-10.207h1.657v-.482h-4.858v.482H2482c.886,0,.955.338,1.155.912.972,2.794,1.962,5.582,2.944,8.372.531,1.507,1.061,3.015,1.65,4.691.2-.49.333-.8.443-1.119q2.047-5.983,4.081-11.97c.187-.552.253-.878,1.092-.878a.112.112,0,0,0,.038-.007h.276v-.482h-2.724Z" transform="translate(-2377.87 740.589)" fill="#9f9f9f"/><path d="M2420.48-735.9h.489a.3.3,0,0,0,.094.016c.293,0,.52.047.52.343v9.04l-.161.111a1.5,1.5,0,0,0-.108-.275c-1.97-3.09-3.937-6.184-5.93-9.26a1.107,1.107,0,0,0-.732-.435,14.492,14.492,0,0,0-1.971-.009h-.527v.218l-.01,0,.01,0v.289h.8c.2.071.285.245.284.566-.012,3.91-.005,7.82-.011,11.73a.8.8,0,0,1-.108.485.376.376,0,0,1-.141.1h-.918c-.406-.1-.782-.3-.86-.529-1.01-3.018-2.008-6.04-3.023-9.057-.466-1.388-.962-2.766-1.486-4.267-.157.42-.273.716-.379,1.015q-2.161,6.182-4.316,12.366a1.075,1.075,0,0,1-.29.472h-1.622a2.25,2.25,0,0,1-.042-.753q-.011-5.717,0-11.433c0-.214.03-.43.046-.659.134-.015.245-.019.344-.032h.764v-.516h-.609c-.509-.035-1.025.021-1.533-.022s-.769.144-.941.665c-.838,2.528-1.723,5.04-2.587,7.559-.241.7-.469,1.413-.7,2.119a32.857,32.857,0,0,1-1.548-3.811c-.725-2.045-1.436-4.094-2.182-6.13a.716.716,0,0,0-.519-.374l-.041,0v0h-.09c-.606-.035-1.218-.022-1.827,0h-.421v.516h.581c.145.016.3.02.482.037v11.1c0,1.279,0,1.648-.641,1.74h-1.3v.008a1.292,1.292,0,0,1-1.294-1.447c-.024-.668,0-1.336-.009-2-.017-1.429-.359-2.683-1.862-3.344a3.69,3.69,0,0,0,2-2.417,3.363,3.363,0,0,0-3.232-4.1c-.529-.042-1.058-.065-1.589-.077v-.011h-.741c-.584,0-1.169,0-1.753,0h-1.01v.516h.438a.474.474,0,0,1,.532.46v12.418h-1.11c-.185,0-.366-.006-.548-.006a.858.858,0,0,1-.594-.478c-1.258-3.739-2.484-7.49-3.723-11.236-.227-.685-.485-1.36-.781-2.188-.158.408-.261.654-.349.906q-2.108,6.121-4.206,12.246c-.114.336-.221.638-.494.756h-1v.482h2.922v-.482h-.112c-1.2,0-.963-.375-.92-.494.384-1.059.762-2.112,1.163-3.156a.524.524,0,0,1,.411-.218q1.824-.026,3.651,0c.146,0,.384.087.423.193.384,1.055.744,2.12,1.113,3.2.046.135-.033.479-.617.479h-.876v.482h9.2v-.482h-1.165c-.435.013-.612-.113-.593-.575.028-.766.007-1.534.007-2.3v-3.706c.4,0,.71,0,1.019,0,1.912.012,2.582.707,2.605,2.644a11.42,11.42,0,0,0,.161,2.136,2.7,2.7,0,0,0,2.817,2.288c.779,0,1.559,0,2.338,0h1.25v0h.032v-.258l0-.043,0,0v-.18h-.682l-.333-.089v-10.922l.085-.021,4.255,11.646,3.991-11.864.15.044v11.206h-1.039v.482h6.281v-.31l0-.011h0v-.161h-1.1c.394-1.161.827-2.518,1.22-3.608a.5.5,0,0,1,.374-.256c1.265-.02,2.531-.023,3.8,0a.567.567,0,0,1,.43.292c.375,1.091.844,2.459,1.2,3.572h-1.687v.482h7.058v-.482h-.89c-.284-.131-.3-.485-.3-.9.015-3.415.007-6.83.009-10.245,0-.245.021-.49.034-.735l.177-.023,8.038,12.559.19-.07v-11.992a6.634,6.634,0,0,1,.02-1.037c.027-.165.217-.474.344-.482h1.819c.15,0,.391.063.391.508.009,4.058.021,7.885,0,11.942a.627.627,0,0,1-.415.476h-.62v.482h3.9v-.482h-.34c-.291,0-.728-.1-.728-.542v-12.025c0-.3.144-.359.385-.359h.695v-.482h-7.07Zm-51.2,8.478c.666-1.959,1.311-3.856,1.957-5.753l.181-.037,1.916,5.79Zm11.36-2.666v-5.644a3.068,3.068,0,0,1,3.1.9,3.3,3.3,0,0,1,.233,3.3C2383.229-730.208,2382.407-729.841,2380.642-730.091Zm23.307,2.649c.648-1.945,1.288-3.865,1.927-5.785l.212,0,1.876,5.79Z" transform="translate(-2366 740.638)" fill="#9f9f9f"/></g></svg>