<svg xmlns="http://www.w3.org/2000/svg" width="62.313" height="56.393" viewBox="0 0 62.313 56.393"><g transform="translate(0 0)"><g transform="translate(0 0)"><path d="M75.867-1935a1.973,1.973,0,0,0,.259.055c.463.036.927.063,1.39.1a20.43,20.43,0,0,1,3.32.564,22.452,22.452,0,0,1,10.518,5.941,22.459,22.459,0,0,1,6.188,11.214,22.542,22.542,0,0,1,.5,3.652,21.529,21.529,0,0,1-.026,3.056,22.46,22.46,0,0,1-6.241,13.961,22.4,22.4,0,0,1-11.065,6.406,18.661,18.661,0,0,1-3.056.517c-.788.06-1.579.138-2.367.128a22.463,22.463,0,0,1-16.491-7.1,22.225,22.225,0,0,1-5.706-10.646,21.948,21.948,0,0,1-.47-3.065,22.457,22.457,0,0,1-.079-2.688,22.321,22.321,0,0,1,2.051-8.746A22.627,22.627,0,0,1,66.057-1933a21.758,21.758,0,0,1,5.533-1.656,25.847,25.847,0,0,1,2.819-.29,2.7,2.7,0,0,0,.332-.057Zm19.384,22.825a19.938,19.938,0,0,0-19.9-19.939,19.947,19.947,0,0,0-19.976,19.682,19.969,19.969,0,0,0,19.744,20.186A19.961,19.961,0,0,0,95.25-1912.175Z" transform="translate(-44.147 1935)" fill="#9f9f9f"/><path d="M42.084-1699.351c-.086-.022-.17-.05-.257-.064a2.834,2.834,0,0,1-1.47-.669,2.293,2.293,0,0,1,.132-3.516,2.887,2.887,0,0,1,1.607-.584,3.375,3.375,0,0,1,1.514.2,2.268,2.268,0,0,1,1.5,1.673,2.251,2.251,0,0,1-.936,2.424,2.843,2.843,0,0,1-1.245.474c-.088.012-.173.041-.259.062Zm.325-3.851c-.152.024-.308.036-.456.074a1.349,1.349,0,0,0-1.028,1.326,1.359,1.359,0,0,0,.978,1.341,1.708,1.708,0,0,0,.821.043,1.374,1.374,0,0,0,1.1-1.635A1.4,1.4,0,0,0,42.409-1703.2Z" transform="translate(-34.105 1755.744)" fill="#9f9f9f"/><path d="M276.458-1699.285l-1-.015c-.087,0-.174-.008-.29-.013v-1.841a2.35,2.35,0,0,0-.282-.038q-.954,0-1.908,0c-.26,0-.277.018-.279.279,0,.432,0,.864,0,1.3,0,.1-.014.19-.022.3h-1.2c-.067-.194-.077-4.367-.01-4.631h1.207a2.463,2.463,0,0,1,.028.258c0,.391,0,.783,0,1.174,0,.1.013.192.02.28a14.164,14.164,0,0,0,2.435.009c0-.28,0-.57.007-.86s-.006-.566.007-.867l1.293-.031Z" transform="translate(-214.146 1755.58)" fill="#9f9f9f"/><path d="M180.622-1699.144c-.086-.021-.17-.05-.257-.063a2.492,2.492,0,0,1-1.152-.44,1.577,1.577,0,0,1-.673-1.249c-.026-.953-.013-1.908-.015-2.862a.72.72,0,0,1,.017-.117,4.8,4.8,0,0,1,1.268-.026c.008.086.024.18.024.273,0,.775,0,1.549,0,2.324a1.989,1.989,0,0,0,.027.34.864.864,0,0,0,.588.692,1.49,1.49,0,0,0,.983.026.889.889,0,0,0,.676-.906c0-.824,0-1.647,0-2.471,0-.088.007-.175.013-.3.438-.01.855,0,1.295,0,.008.107.018.186.018.265,0,.823,0,1.647,0,2.47a1.823,1.823,0,0,1-.656,1.515,2.185,2.185,0,0,1-.928.417c-.182.038-.365.074-.547.111Z" transform="translate(-142.001 1755.537)" fill="#9f9f9f"/><path d="M241.684-1699.357l-.5-.112a2.967,2.967,0,0,1-1.045-.457,2.3,2.3,0,0,1,.042-3.767,3.085,3.085,0,0,1,3.606.147,2.906,2.906,0,0,1,.731,1.033c-.115.009-.192.021-.269.021-.3,0-.6-.013-.9-.011a.317.317,0,0,1-.287-.139,1.356,1.356,0,0,0-1.524-.49,1.388,1.388,0,0,0-1.035,1.2,1.405,1.405,0,0,0,1.2,1.512,1.353,1.353,0,0,0,1.378-.537.247.247,0,0,1,.151-.1c.381,0,.761,0,1.154.009a1.043,1.043,0,0,1-.289.681,2.925,2.925,0,0,1-1.615.948,2.108,2.108,0,0,0-.205.065Z" transform="translate(-189.112 1755.75)" fill="#9f9f9f"/><path d="M15-1703.984c.1.006.194.017.292.017q1.847,0,3.694,0h.3a7.683,7.683,0,0,1,.01.978c-.1.008-.176.02-.255.021-.293,0-.587,0-.881,0-.316,0-.324.008-.324.335q0,1.5,0,3.009c0,.1-.009.191-.015.318-.423.011-.826.006-1.257,0-.008-.11-.022-.2-.022-.3q0-1.517,0-3.033v-.281a.5.5,0,0,0-.121-.042c-.473,0-.945,0-1.418,0Z" transform="translate(-15 1755.58)" fill="#9f9f9f"/><path d="M150.833-1701.644l.241.106a1.079,1.079,0,0,1,.691.88,1.134,1.134,0,0,1-.449,1.123,1.406,1.406,0,0,1-.843.288c-1.109.011-2.219.005-3.328.005a.522.522,0,0,1-.092-.016c-.057-.174-.071-4.341-.013-4.632.064-.005.135-.017.205-.017.954,0,1.909,0,2.863,0a1.949,1.949,0,0,1,1.012.235,1.089,1.089,0,0,1,.509,1.282,1,1,0,0,1-.5.6C151.047-1701.744,150.966-1701.709,150.833-1701.644Zm-2.529,1.368a.669.669,0,0,0,.119.034c.522,0,1.043.006,1.565,0a.6.6,0,0,0,.235-.06.384.384,0,0,0,.238-.368.368.368,0,0,0-.244-.363,1.109,1.109,0,0,0-.356-.067c-.326-.009-.652,0-.978,0-.139,0-.277,0-.416,0-.1,0-.16.04-.161.141C148.3-1700.734,148.3-1700.508,148.3-1700.276Zm.893-1.82c.212,0,.423.006.635,0a.922.922,0,0,0,.306-.064.344.344,0,0,0,.218-.35.338.338,0,0,0-.224-.321,1.146,1.146,0,0,0-.356-.068c-.342-.009-.684,0-1.025,0-.09,0-.179,0-.269,0a.156.156,0,0,0-.181.177c0,.138,0,.277,0,.415.006.191.026.211.212.215C148.742-1702.094,148.97-1702.1,149.2-1702.1Z" transform="translate(-117.521 1755.52)" fill="#9f9f9f"/><path d="M74.448-1699.26c-.052-.2-.064-4.317-.013-4.625a1.883,1.883,0,0,1,.2-.02c.856,0,1.711,0,2.567,0a2.349,2.349,0,0,1,.951.193,1.484,1.484,0,0,1,.377,2.443,6.051,6.051,0,0,1-.538.339,3.177,3.177,0,0,0,.306.532c.111.19.23.375.345.562l.35.567a1.858,1.858,0,0,1-.211.028c-.35,0-.7,0-1.051,0a.3.3,0,0,1-.308-.183c-.212-.4-.442-.78-.647-1.178a.354.354,0,0,0-.386-.22c-.217.016-.436,0-.687,0v1.521A4.783,4.783,0,0,1,74.448-1699.26Zm1.268-3.62v1.027a1.1,1.1,0,0,0,.193.036c.374,0,.748.006,1.122,0a1.008,1.008,0,0,0,.33-.074.481.481,0,0,0,.334-.463.487.487,0,0,0-.35-.477,1.44,1.44,0,0,0-.405-.069c-.325-.01-.65,0-.975,0C75.885-1702.9,75.807-1702.89,75.716-1702.88Z" transform="translate(-61.135 1755.52)" fill="#9f9f9f"/><path d="M215.73-1699.241h-.316c-.318,0-.636-.01-.953,0a.31.31,0,0,1-.323-.2c-.207-.388-.436-.765-.636-1.156a.37.37,0,0,0-.4-.229c-.21.015-.421,0-.655,0a2.886,2.886,0,0,0-.036.3c0,.326,0,.652,0,.978,0,.087-.011.175-.018.278h-1.231a2.433,2.433,0,0,1-.028-.261q0-2.054,0-4.108c0-.08.01-.16.017-.254a1.715,1.715,0,0,1,.2-.025c.864,0,1.728-.006,2.591,0a2.1,2.1,0,0,1,1.014.233,1.409,1.409,0,0,1,.777,1.339,1.356,1.356,0,0,1-.8,1.272l-.245.125Zm-2.553-2.579v0c.171,0,.343.012.512,0a1.57,1.57,0,0,0,.425-.092.459.459,0,0,0,.3-.437.469.469,0,0,0-.3-.462.907.907,0,0,0-.327-.087c-.4-.011-.8-.006-1.2-.008a.159.159,0,0,0-.182.178c0,.244,0,.488,0,.732a.159.159,0,0,0,.182.178Z" transform="translate(-167.323 1755.522)" fill="#9f9f9f"/><path d="M106.149-1703.917c-.07.11-.11.177-.155.241-.531.753-1.057,1.508-1.6,2.254a.985.985,0,0,0-.21.652c.017.407.005.815,0,1.222,0,.088-.007.175-.012.279h-1.26c-.006-.086-.017-.172-.017-.258,0-.448-.006-.9,0-1.345a.71.71,0,0,0-.142-.452c-.557-.774-1.105-1.554-1.656-2.332-.05-.071-.1-.144-.176-.263h.381c.293,0,.587.007.88,0a.3.3,0,0,1,.3.162c.289.453.587.9.883,1.35.048.073.1.142.174.239.069-.1.123-.163.171-.236.284-.437.573-.871.847-1.315a.378.378,0,0,1,.377-.2C105.323-1703.909,105.705-1703.917,106.149-1703.917Z" transform="translate(-81.738 1755.531)" fill="#9f9f9f"/><path d="M119.092-1890.434v6.753a.378.378,0,0,1-.115.041c-.432-.006-.867.015-1.294-.033a1.973,1.973,0,0,1-1.682-1.346c-.03-.074-.054-.15-.082-.229-.124.041-.108.15-.136.227a2.007,2.007,0,0,1-1.439,1.311,2.463,2.463,0,0,1-.6.072q-3.242.008-6.485,0a2.067,2.067,0,0,1-2.051-1.473.987.987,0,0,0-.138-.323c-.023.083-.046.165-.067.248a2.027,2.027,0,0,1-1.727,1.517,4.1,4.1,0,0,1-.487.031q-3.157,0-6.313,0a2.139,2.139,0,0,1-1.542-.57,2.011,2.011,0,0,1-.527-.813c-.026-.075-.055-.148-.088-.237-.111.053-.1.153-.133.229a2,2,0,0,1-1.435,1.314,2.832,2.832,0,0,1-.6.073c-.34.011-.681,0-1.012,0-.065-.2-.086-6.4-.029-6.8.512-.04,1.031-.013,1.548-.018s1.06,0,1.59,0H97.4c-.056.085-.086.139-.123.187a2.814,2.814,0,0,0,1.575,4.479,2.327,2.327,0,0,0,1.666-.169,3.237,3.237,0,0,0,1.73-2.109,1.715,1.715,0,0,0-.513-1.805c-.143-.134-.3-.255-.446-.382-.067-.058-.133-.117-.221-.2.088-.094.166-.175.24-.257.181-.2.366-.395.542-.6a1.825,1.825,0,0,0,.354-1.851,2.87,2.87,0,0,0-2.635-2.025c-.432-.012-.865,0-1.3,0-.087,0-.175-.008-.277-.013v-2.235c.075-.007.145-.02.214-.02,1.607,0,3.214-.005,4.821,0a2.036,2.036,0,0,1,1.97,1.569c.019.076.046.149.087.282.04-.125.066-.191.082-.259a2.039,2.039,0,0,1,1.977-1.592c1.6-.005,3.2,0,4.8,0,.071,0,.143.009.249.017,0,.744,0,1.474,0,2.232-.1.008-.19.019-.275.02-.408,0-.816,0-1.223,0a2.857,2.857,0,0,0-2.782,2.276,1.652,1.652,0,0,0,.291,1.435c.2.257.423.5.638.74.08.091.166.176.263.279-.081.074-.143.136-.209.193-.154.133-.315.259-.465.4a1.666,1.666,0,0,0-.526,1.691,3.085,3.085,0,0,0,2.132,2.354,2.52,2.52,0,0,0,2.572-.666,2.79,2.79,0,0,0,.31-3.754c-.043-.056-.083-.115-.143-.2Z" transform="translate(-74.079 1905.838)" fill="#9f9f9f"/><path d="M112.206-1819.393v2.232a2.059,2.059,0,0,1-.218.023c-1.615,0-3.23.006-4.845,0a2.035,2.035,0,0,1-1.942-1.543.644.644,0,0,0-.107-.249c-.023.076-.05.151-.069.228a2.024,2.024,0,0,1-1.971,1.564c-1.6.005-3.2,0-4.8,0-.072,0-.143-.008-.209-.012a14.686,14.686,0,0,1,0-2.244c.073,0,.152-.012.231-.012.416,0,.832,0,1.248,0a2.857,2.857,0,0,0,2.773-2.286,1.669,1.669,0,0,0-.306-1.432c-.2-.257-.425-.494-.64-.739-.074-.084-.15-.167-.24-.266.077-.076.137-.14.2-.2.141-.123.288-.24.428-.366a1.676,1.676,0,0,0,.555-1.726,3.065,3.065,0,0,0-2.161-2.355,2.541,2.541,0,0,0-2.7.836,2.776,2.776,0,0,0-.149,3.6c.039.051.075.1.11.151a.182.182,0,0,1-.015.033.031.031,0,0,1-.019.013l-6.019.009c-.065,0-.129-.007-.223-.012-.008-.106-.022-.207-.022-.309q0-2.9,0-5.8c0-.147,0-.294,0-.441,0-.214.016-.231.219-.233.359,0,.719-.016,1.076.008a1.984,1.984,0,0,1,1.806,1.353c.03.074.054.15.083.232.125-.036.11-.146.137-.22a2.063,2.063,0,0,1,1.135-1.217,1.885,1.885,0,0,1,.785-.157q3.353,0,6.705,0a2.035,2.035,0,0,1,1.992,1.6,2.452,2.452,0,0,0,.078.247c.037-.117.065-.183.079-.253a2.029,2.029,0,0,1,1.9-1.591c.082,0,.163,0,.245,0h6.387a2.259,2.259,0,0,1,.934.152,2.042,2.042,0,0,1,1.151,1.231c.022.061.043.122.068.182,0,.011.026.016.062.036.028-.074.058-.145.083-.218a2.026,2.026,0,0,1,1.842-1.377c.351,0,.7-.007,1.052,0,.189,0,.206.026.215.215,0,.057,0,.114,0,.172v6.386c-.541.047-1.059.016-1.577.021s-1.06,0-1.591,0h-3.167c.073-.1.117-.168.164-.23a2.82,2.82,0,0,0-1.861-4.48,2.3,2.3,0,0,0-1.425.222,3.214,3.214,0,0,0-1.727,2.139,1.7,1.7,0,0,0,.493,1.745c.153.146.321.277.481.416.066.057.128.118.209.193-.1.1-.183.191-.264.28-.181.2-.365.4-.539.6a1.8,1.8,0,0,0-.352,1.741,2.864,2.864,0,0,0,2.7,2.1c.424,0,.848,0,1.273,0C112.024-1819.406,112.1-1819.4,112.206-1819.393Z" transform="translate(-74.1 1854.18)" fill="#9f9f9f"/></g></g></svg>