<svg xmlns="http://www.w3.org/2000/svg" width="117.374" height="59.087" viewBox="0 0 117.374 59.087"><g transform="translate(-728.577 -121.857)"><g transform="translate(728.577 121.857)"><path d="M850.649,137.42v.361c.181-.01.373-.076.5-.012s.291.3.255.385c-.176.4-.412.78-.627,1.166-.027.048-.089.111-.076.14.37.809-.307.878-.77,1.1.15-.348.68-.632.21-1.022l.8-1.1a3.859,3.859,0,0,0-2.471,1.76c-.656.983-1.44,1.879-2.159,2.82-.169.221-.3.469-.452.7l.137.1c.336-.354.654-.727,1.012-1.057s.75-.571,1.094-.891c.324-.3.913-.261,1.15-.9-.282.1-.436.145-.587.2s-.319.137-.593.256a2.023,2.023,0,0,1,1.777-.839v.358c.409.048.92-.24,1.176.3l-1.566,1.308c.2.452-.069.7-.577.807-.163-.028-.323-.06-.568-.107l.9-.4-.017-.129-.442-.108,1.329-.916-.161-.292a6.517,6.517,0,0,0-1.32.6,6.687,6.687,0,0,0-1.867,1.713,10.983,10.983,0,0,1-1.719,1.71,2.982,2.982,0,0,0-.3.413,9.023,9.023,0,0,1,2.795-1.8c.352-.1.317-.434.029-.688l.1-.1.564.4.691-.305c.087.1.17.2.262.292.132.132.272.256.4.376l-.894.447c1.382,1.155,1.854,2.726,2.58,4.144a1.194,1.194,0,0,1,.043.416,2.675,2.675,0,0,1-.417,0,2.462,2.462,0,0,1-.372-.117c-.015,0-.035.006,0,0a13.478,13.478,0,0,1-.325,1.784,3.319,3.319,0,0,1-3.308,2.258,1.732,1.732,0,0,1-1.75-1.932,1.326,1.326,0,0,1,.59-.8c.142-.087.606.087.716.269.184.3-.1.515-.4.6a3.254,3.254,0,0,1-.549.068c.052,1.649,1.839,1.7,2.835,1.07a2.711,2.711,0,0,0,1.239-2.63l-.877.234a3.932,3.932,0,0,0-.224-4.779l-.9.245c.08.719-.082.934-.8.94a2.62,2.62,0,0,0-1.838.882,10.188,10.188,0,0,0-.856.979,2.285,2.285,0,0,0-.473,2.751,4.631,4.631,0,0,1,.383,3.2c-.154.652-.5.984-1.053.993a1.014,1.014,0,0,1-1.142-.95,11.938,11.938,0,0,1,.094-2.352,3.2,3.2,0,0,1,.37-1.124,1.594,1.594,0,0,0-.3-2.071c-.071.132-.154.267-.22.41-.7,1.525-1.393,3.054-2.106,4.574a2.959,2.959,0,0,1-.437.55,2.927,2.927,0,0,1-.428-.534c-.766-1.62-1.513-3.248-2.268-4.873-.078-.169-.162-.334-.287-.592-.288.524-.558.956-.758,1.418a.92.92,0,0,0,.091.576,8.036,8.036,0,0,1,.741,3.4,3.363,3.363,0,0,1-.151.83,1.055,1.055,0,0,1-1.147.734.907.907,0,0,1-.94-.823,15.514,15.514,0,0,1,.024-2.408,2.551,2.551,0,0,1,.335-1.131,1.779,1.779,0,0,0-.278-2.25,9.8,9.8,0,0,0-1.439-1.585,3.322,3.322,0,0,0-1.48-.583c-.707-.119-.868-.231-.806-.966l-.89-.248a3.876,3.876,0,0,0-.226,4.754l-.865-.194a2.679,2.679,0,0,0,.935,2.4,2.234,2.234,0,0,0,2.331.437,1.339,1.339,0,0,0,.815-1.274c-.206-.033-.451,0-.595-.111a2.158,2.158,0,0,1-.4-.576c.231-.111.481-.342.688-.308a.852.852,0,0,1,.675.868,1.793,1.793,0,0,1-1.814,1.9,3.436,3.436,0,0,1-3.506-3.339c-.012-.224,0-.45,0-.667-.06-.021-.095-.048-.125-.042-.246.041-.491.088-.737.134a4.924,4.924,0,0,1,.211-.763,22.651,22.651,0,0,1,1.032-2.138,20.577,20.577,0,0,1,1.252-1.72l-.763-.4c.211-.21.438-.435.667-.658.293.088.585.173.878.259.121-.723.51-.069.764-.1h-.516l-.1.142a3.523,3.523,0,0,0,.5.468c.551.351,1.136.653,1.677,1.018a9.366,9.366,0,0,1,.947.853c-.048-.186-.043-.273-.085-.317-.961-1.011-1.917-2.029-2.9-3.018a4.5,4.5,0,0,0-1.037-.777,8.275,8.275,0,0,0-1.2-.435l-.133.273,1.343.9-.478.113-.007.125.879.4-.525.11c-.656-.207-.728-.321-.575-.8l-1.583-1.312c.228-.54.736-.281,1.167-.29,0-.139,0-.264,0-.389.964.1,1.268.245,1.67.8l-.956-.36-.042.1,3.389,2.655c-.255-.361-.437-.639-.639-.9a23.358,23.358,0,0,1-2.037-2.7,5.314,5.314,0,0,0-2.306-1.876l-.178.163.725.935a2.482,2.482,0,0,0,.013.714,2.093,2.093,0,0,0,.374.486,6.734,6.734,0,0,1-.706-.337c-.118-.072-.286-.248-.264-.332.193-.719-.388-1.156-.6-1.724-.1-.28-.068-.438.252-.45.148-.005.3.018.49.032l.02-.368a1.9,1.9,0,0,1,1.57,1.207,4.06,4.06,0,0,0,.671.772l.152-.126c-.092-.154-.192-.3-.274-.461-.3-.585-.61-1.165-.88-1.762-.205-.453-.354-.932-.528-1.4-.072-.194-.448-.351-.072-.6l-.41-.491c-.267.436-.5-.076-.771-.049-.184.731.267,1.216.623,1.739-.41.061-.483.268-.156.608a.427.427,0,0,1,.086.57c-.288-.507-.811-.879-.546-1.649.11-.32-.311-.817-.476-1.239a2.093,2.093,0,0,1-.075-.418,2,2,0,0,1,.473-.04c.269.041.532.124.831.149-.789-.784-.478-1.7-.36-2.567.06-.446-.006-.717-.429-.894-.529-.223-1.047-.472-1.7-.767a3.123,3.123,0,0,1,.554-.248,2.8,2.8,0,0,1,.564-.021c1.623,0,1.623,0,2.2-1.691-.59.386-.958,1.1-1.921.96.212-.187.33-.3.456-.4a29.1,29.1,0,0,0,2.3-1.882,10.842,10.842,0,0,1,3.355-2.64,6.182,6.182,0,0,1,6.276.521,17.535,17.535,0,0,1,2.735-.987,6.888,6.888,0,0,1,6.346,2.229c.387.386.719.832,1.13,1.189.607.528,1.261,1,1.9,1.5.156.12.332.216.53.343-.483.247-.483.247-1.921-.891.292.621.516,1.135.781,1.628.044.083.263.1.4.1.613.01,1.227,0,2,0-.17.215-.223.328-.311.385-.205.131-.438.22-.642.353-.635.413-1.2.861-.883,1.765a1.244,1.244,0,0,1,.05.616c-.089.466-.225.923-.348,1.405.154-.036.417-.115.685-.154a2.12,2.12,0,0,1,.475.037,2.038,2.038,0,0,1-.073.416c-.166.423-.594.929-.479,1.239.291.779-.269,1.14-.54,1.653-.068-.19-.166-.334.06-.548.336-.317.257-.574-.126-.663a1.967,1.967,0,0,0,.6-1.756l-.438.257c-.223-.056-.388-.141-.431-.1a2.293,2.293,0,0,0-.3.444c.38.226.015.377-.06.551-.148.342-.307.678-.462,1.018l-1.059,2.33c-.053.118-.1.238-.151.356l.154.1a9.84,9.84,0,0,0,.652-.857A1.957,1.957,0,0,1,850.649,137.42Zm-12.467,8.168a1.123,1.123,0,0,0,0,.422c.3.688.616,1.367.985,2.176a7.534,7.534,0,0,0,.935-2c.049-.334-.583-.766-.9-1.159a1.427,1.427,0,0,1-.136-.279l-.9.861c.324-.479.617-.982.978-1.431a13.712,13.712,0,0,0,2.783-6.041c.033-.164.034-.335.063-.634l-1.321,3.422c-.246-.726-.246-.726-.55-.654l-.2-.607.163-.118.639.613c.4-.42.315-.8-.025-1.271a7.6,7.6,0,0,1-.841-1.715,2.8,2.8,0,0,1,.094-2.047,1.025,1.025,0,0,1,1.833-.339,3.105,3.105,0,0,1,.58,1.2,6.263,6.263,0,0,1-.227,3.128c-.206.791-.213.789.647,1.165.956-2.373,1.967-4.725,2.844-7.126a2.505,2.505,0,0,0-1.4-3.139c-.048.1-.1.2-.144.307-1.006,2.207-2.637,2.834-4.849,1.893a.953.953,0,0,0-.666.055,3,3,0,0,1-3.535-.357,15.147,15.147,0,0,1-1.441-1.852,2.133,2.133,0,0,0-.924,2.52c.476,2.672,1.762,5.029,2.837,7.477.406-.109.488-.316.388-.683a12.54,12.54,0,0,1-.377-1.766,3.688,3.688,0,0,1,.42-2.57,1.231,1.231,0,0,1,1.222-.665c.556.072.76.5.9.97a4.074,4.074,0,0,1-.841,3.609c-.406.6-.415.6-.008,1.188l.659-.585.107.112-.194,1.315-.035,0-.043-.827-.112-.016-.36.717L836,137.642a1,1,0,0,0-.033.328,14.7,14.7,0,0,0,2.468,5.785,1.478,1.478,0,0,0,.385.263l-.279.6-2.354-3.267c.537,1.43,1.164,2.806,1.8,4.177C838,145.569,838.114,145.569,838.182,145.588Zm.726,7.809c.144-.284.243-.463.327-.649,2.02-4.45,4.053-8.893,6.05-13.353a32.689,32.689,0,0,1,4.118-7.46c.537-.663,1.168-1.25,1.775-1.891h-6.36a3.094,3.094,0,0,1,.788,3.968c-.32.683-.567,1.4-.86,2.094a129.332,129.332,0,0,1-5.22,11.918l-.673,1.235c-.169-.346-.289-.579-.4-.817-1.608-3.56-3.251-7.1-4.8-10.688a50.72,50.72,0,0,1-1.726-4.838,2.417,2.417,0,0,1,.7-2.829h-6.5a1.918,1.918,0,0,0,.708.509c.488.206.722.485.473,1.037a2.807,2.807,0,0,0-.121.722c.529-.011.345.377.4.627.079.342.166.683.249,1.024l.176-.034V131.54l.2-.086a18.932,18.932,0,0,1,1.513,2.285c1.945,4.068,3.833,8.164,5.737,12.252C836.6,148.418,837.725,150.848,838.908,153.4Zm-3.153-25.564.752.457-.02.2c-.308.1-.623.185-.922.306a2.616,2.616,0,0,0-.446.291,2.7,2.7,0,0,0,.495.263c.279.083.572.12.858.176l-.02.165a2.25,2.25,0,0,1-.3.062.794.794,0,0,0-.811.816,1.517,1.517,0,0,0,1.076,1.5,2.55,2.55,0,0,0,2.065-.316c-1.875-1.872-1.8-4.276.149-6.724a9.026,9.026,0,0,0-.98-.645,5.511,5.511,0,0,0-7.156,2.391,4.278,4.278,0,0,0-.25,1.141,2.182,2.182,0,0,1-.192.411c-.1-.132-.277-.268-.272-.4a9.279,9.279,0,0,1,.169-1.108l-.15-.068-1.4,2.954h5.217a1.626,1.626,0,0,0-1.129-1.357c.4-.248.864-.594,1.177-.49.343.113.547.643.811.992l.122.023c-.035-.662-.07-1.325-.109-2.065l.777.323.276-1.048C836.167,126.369,836.209,126.75,835.755,127.832Zm3.64,3.947a8.276,8.276,0,0,0,.92.313,1.7,1.7,0,0,0,2.207-1.06.889.889,0,0,0-.845-1.284.719.719,0,0,1-.213-.1l.006-.162a7.807,7.807,0,0,0,.955-.145c.146-.039.258-.2.385-.311a2.3,2.3,0,0,0-.387-.236c-.329-.122-.667-.22-1-.328l.013-.2q.371-.215.741-.432c-.473-1.061-.408-1.556.223-1.711l.293.993.806-.329.138.109a2.075,2.075,0,0,0-.19,1.936l.818-1.03c.29.343,1.013-.038,1.121.642-.766.358-.946.582-1.026,1.274H849.4a6.829,6.829,0,0,0-1.449-2.967,9.434,9.434,0,0,1,.2,1.129c.008.142-.149.294-.231.442-.082-.138-.236-.278-.234-.414a2.661,2.661,0,0,0-.759-1.9,5.742,5.742,0,0,0-4.21-2.148,4.512,4.512,0,0,0-3.4,1.205C841.126,127.273,841.43,129.806,839.4,131.779Zm-10.942.307-.191.075c.033.409.044.82.1,1.225a23.958,23.958,0,0,0,2.521,7.349c.5,1,.73,1.119,1.833.842.121-.031.237-.081.381-.132-.047-.116-.078-.2-.117-.286-1.138-2.444-2.259-4.9-3.425-7.327A17.093,17.093,0,0,0,828.453,132.086Zm21.286.823-.205-.065c-1.966,2.635-3.073,5.709-4.513,8.8a11.637,11.637,0,0,0,1.244-.013.645.645,0,0,0,.449-.287c.659-1.414,1.379-2.809,1.906-4.274C849.1,135.724,849.374,134.3,849.739,132.909Zm-17.847,9.559,3.247,6.58c.945-1.211.945-1.211.328-2.541l-2.213-4.765-.559.662Zm13.019-.512c-.13.261-.224.435-.305.614q-1.074,2.37-2.145,4.741c-.41.9-.394.985.348,1.692l3.229-6.544h-.781Zm-5.964-16.47c-.882,1.1-.92,2.083-.128,3.577l-1.011.15a3.527,3.527,0,0,0,1.168,2.236,3.463,3.463,0,0,0,1.12-2.238l-.994-.162C839.919,127.646,839.864,126.476,838.947,125.487Zm1.377,20.535,2.3-5.3-.818-.548-.233.6.547.17-2.888,3.794Zm.9-6.953a8.056,8.056,0,0,0,.539-3.5c-.048-.41-.193-.844-.724-.868-.547-.025-.75.373-.842.818A4.466,4.466,0,0,0,841.221,139.069Zm-4.517,0a4.534,4.534,0,0,0,1.045-3.47c-.077-.466-.271-.909-.843-.891-.591.02-.716.512-.753.966A8.4,8.4,0,0,0,836.7,139.065Zm6.195,11.11a6.531,6.531,0,0,0-.627,3.855c.052.275.366.5.56.75.247-.219.641-.395.719-.663A5.091,5.091,0,0,0,842.9,150.175Zm-7.888.018a5.118,5.118,0,0,0-.621,3.974.932.932,0,0,0,.644.571c.2.006.556-.347.6-.587A6.272,6.272,0,0,0,835.01,150.193Zm11.824-4.937c.843-.153,1.731-.152,1.322-1.363a.857.857,0,0,0-.3.094c-.264.19-.506.411-.761.615-.63.5-1.274.993-1.887,1.516a2.407,2.407,0,0,0-.386.569l2.618-.986Zm-13.8,1.394c-.17-.638-2.85-2.818-3.306-2.672-.331,1.135.573,1.113,1.308,1.3l-.526.443Zm16.936,1.4c.194.311.318.682.734.342l-1.247-2.44c.015.543.144,1.059.162,1.578a13.094,13.094,0,0,1-.118,1.556l.156.026Zm-21.557-2.01-1.191,2.358.112.159.65-.362.3.911.131-.037Zm22.3-13.826-.119-.65a2.256,2.256,0,0,0-.626,2.391C850.675,133.65,850.042,132.727,850.717,132.211Zm-8.121-4.369-.5.375.8.473c-.074-1.2-.247-1.533-.86-1.476Zm-7.263.005.562-.653c-.63-.021-.842.393-.856,1.5l.787-.483Zm5.053-.412-.152.014c-.039.6-.448,1.227.315,1.859Zm-3.018,1.842c.848-.609.3-1.232.351-1.816l-.183-.015Zm-2.455,1.9.15-.034.178-1.439-.443-.2C834.842,130.138,834.878,130.655,834.913,131.172Zm7.534-1.322c.727.363.256.893.33,1.353a1.285,1.285,0,0,0,.143-1.631Zm1.772-1.531-.253-.068-.261,1.223.194.044Zm-10.268-.069-.255.086.355,1.2.2-.058Q834.1,128.865,833.95,128.25Zm-1.424,13.781-.056-.234-.853.185c.023.085.061.245.067.244C831.967,142.169,832.246,142.1,832.526,142.03Zm12.917-.186-.02.132a2.48,2.48,0,0,0,.541.286c.1.026.237-.1.357-.161-.094-.086-.176-.224-.283-.247A2.947,2.947,0,0,0,845.443,141.844Z" transform="translate(-779.456 -122.711)" fill="#9f9f9f"/><path d="M766.448,209.773a14.835,14.835,0,0,1,1.845-7.174,8.875,8.875,0,0,1,13.2-2.652,10.074,10.074,0,0,1,3.469,6.193,15.338,15.338,0,0,1-1.174,10.048,8.874,8.874,0,0,1-13.454,3.023,10.293,10.293,0,0,1-3.521-6.352C766.62,211.844,766.565,210.8,766.448,209.773Zm15.994.7a13.42,13.42,0,0,0-1.132-6.3,6.406,6.406,0,0,0-3.11-3.242,5.674,5.674,0,0,0-7.331,2.581,11.729,11.729,0,0,0-1.478,5.691,11.22,11.22,0,0,0,1.766,6.9,5.6,5.6,0,0,0,9.57-.083A10.743,10.743,0,0,0,782.442,210.475Z" transform="translate(-748.557 -162.053)" fill="#9f9f9f"/><path d="M841.581,198.949h2.7v.687c.006,4.4,0,8.8.027,13.206a8.632,8.632,0,0,0,.91,3.994,4.04,4.04,0,0,0,3.655,2.359,4.246,4.246,0,0,0,4.166-2.294,9.8,9.8,0,0,0,.984-4.774c.024-4.157.008-8.313.008-12.47v-.7h2.651c.011.192.032.391.032.59,0,4.27.01,8.54,0,12.81a12.993,12.993,0,0,1-.72,4.393,6.919,6.919,0,0,1-6.86,4.834c-2.791.022-5.048-.946-6.339-3.531a12.073,12.073,0,0,1-.958-3,15.7,15.7,0,0,1-.243-2.984c-.025-4.138-.01-8.275-.01-12.413Z" transform="translate(-788.193 -162.529)" fill="#9f9f9f"/><path d="M947.6,198.934h3.238c2.326,7.408,4.65,14.808,6.988,22.252h-2.86l-2.186-6.965h-7.245c-.529,1.739-1.051,3.469-1.584,5.2-.182.59-.234,1.38-.642,1.7-.383.3-1.157.088-1.759.1-.28,0-.559,0-.917,0Zm4.583,12.985-3.042-10.1-3,10.1Z" transform="translate(-840.455 -162.521)" fill="#9f9f9f"/><path d="M917.745,212.175v8.776h-2.692v-.621q0-10.372-.011-20.745c0-.491.12-.676.631-.74a22.247,22.247,0,0,1,6.935-.079c3.687.7,5.337,3.486,5.083,7.027-.308,4.293-3.389,6.058-6.4,6.364C920.139,212.273,918.965,212.175,917.745,212.175Zm-.008-11.12c0,2.818-.006,5.552.016,8.287a.573.573,0,0,0,.359.425,16.737,16.737,0,0,0,2.365.125,4.5,4.5,0,0,0,4.505-5.546,3.671,3.671,0,0,0-2.3-3.056A8.836,8.836,0,0,0,917.737,201.055Z" transform="translate(-826.952 -162.304)" fill="#9f9f9f"/><path d="M735.275,221.176l-6.7-22.3c.951,0,1.815-.017,2.676.019.123.005.294.254.343.42,1,3.4,2.01,6.8,2.967,10.211.769,2.74,1.47,5.5,2.2,8.249a2.52,2.52,0,0,0,.114.27c.36-1.333.667-2.617,1.054-3.875,1.526-4.955,3.081-9.9,4.613-14.853.1-.319.223-.465.58-.453.771.027,1.545.009,2.4.009-.068.246-.112.439-.173.627q-3.462,10.53-6.918,21.063c-.155.474-.36.655-.868.621C736.817,221.14,736.06,221.176,735.275,221.176Z" transform="translate(-728.577 -162.487)" fill="#9f9f9f"/><path d="M881.874,217.207a8.739,8.739,0,0,0,5.525,1.4,3.7,3.7,0,0,0,3.339-2.558,3.771,3.771,0,0,0-1.326-4.255,13.473,13.473,0,0,0-2.468-1.355,12.551,12.551,0,0,1-3.405-1.987,5.852,5.852,0,0,1,1.324-9.608c2.652-1.285,5.3-.935,7.972.266l-.715,2.33a15.417,15.417,0,0,0-2.423-.775,8.7,8.7,0,0,0-2.743-.022,2.977,2.977,0,0,0-2.531,2.443,3.18,3.18,0,0,0,1.283,3.5,20.183,20.183,0,0,0,2.875,1.557,10.519,10.519,0,0,1,3.535,2.295,6.367,6.367,0,0,1-3.4,10.4,10.263,10.263,0,0,1-6.991-.875c-.395-.195-.569-.394-.395-.864C881.551,218.512,881.685,217.885,881.874,217.207Z" transform="translate(-809.131 -162.044)" fill="#9f9f9f"/><path d="M816.262,218.774h8.724V221.2h-11.35V198.973h2.627Z" transform="translate(-773.452 -162.542)" fill="#9f9f9f"/><path d="M778.359,156.683h5.265l.09,1.069c-.1-.006-.168,0-.172-.011-.217-.682-.751-.815-1.375-.808-.584.008-1.168,0-1.791,0v1.975a11.963,11.963,0,0,0,1.8-.026c.3-.047.563-.368.842-.565v1.768c-.621-1.415-1.745-.608-2.672-.91,0,.69-.028,1.289.021,1.881.011.135.283.342.447.353a7.853,7.853,0,0,0,1.75-.012,3.266,3.266,0,0,0,1.079-.524,2.544,2.544,0,0,0,.449-.475c-.012.935-.407,1.351-1.21,1.351H778.47c.005-.059,0-.121.012-.122.855-.149.857-.13.885-1.119.023-.83.006-1.661,0-2.491C779.37,157.007,779.368,157.007,778.359,156.683Z" transform="translate(-754.841 -140.23)" fill="#9f9f9f"/><path d="M796.627,156.5v1.618l-.094.036c-.06-.115-.13-.226-.179-.346a1.842,1.842,0,0,0-2.395-.971.993.993,0,0,0-.521.591c-.03.174.212.488.411.592.682.359,1.4.649,2.1.971.85.389,1.234.867,1.157,1.43a1.56,1.56,0,0,1-1.472,1.206,11.984,11.984,0,0,1-1.845-.065c-.36-.012-.722,0-1.122,0v-1.7a2.7,2.7,0,0,1,.261.353,2.028,2.028,0,0,0,2.585,1.06c.262-.106.592-.393.621-.631a.975.975,0,0,0-.468-.735c-.637-.361-1.334-.615-1.995-.935-.88-.427-1.191-.871-1.072-1.468a1.689,1.689,0,0,1,1.617-1.11c.428-.017.858.08,1.289.1C795.865,156.513,796.225,156.5,796.627,156.5Z" transform="translate(-762.342 -140.076)" fill="#9f9f9f"/><path d="M899.744,161.577a3.333,3.333,0,0,0,2.862-2.045,12.649,12.649,0,0,1-1.74.12,1.352,1.352,0,0,1-1.254-.99,1.592,1.592,0,0,1,.387-1.624,2.3,2.3,0,0,1,2.8-.387,2.139,2.139,0,0,1,.909,2.6A3.834,3.834,0,0,1,899.744,161.577Zm.709-3.734c.011.9.529,1.509,1.276,1.5.822-.013,1.138-.3,1.135-1.038,0-.961-.579-1.675-1.338-1.662A1.084,1.084,0,0,0,900.453,157.843Z" transform="translate(-818.769 -140.051)" fill="#9f9f9f"/><path d="M910.455,161.609c1.961-.565,2.5-.954,3.006-2.153-.381.087-.731.189-1.088.245a1.75,1.75,0,0,1-1.914-.981,1.727,1.727,0,0,1,.812-2.04,2.356,2.356,0,0,1,2.561.1,2.183,2.183,0,0,1,.735,2.438A3.982,3.982,0,0,1,910.455,161.609ZM913.7,158.3c0-.956-.581-1.671-1.339-1.657a1.051,1.051,0,0,0-1.058,1.2c0,.905.512,1.509,1.263,1.5C913.41,159.326,913.7,159.058,913.7,158.3Z" transform="translate(-824.486 -140.055)" fill="#9f9f9f"/><path d="M921.393,161.6a3.483,3.483,0,0,0,2.955-2.172c-.334.09-.588.173-.849.228a1.736,1.736,0,0,1-2.255-1.206,1.9,1.9,0,0,1,1.824-2.086,2.171,2.171,0,0,1,2.2,3.2A3.974,3.974,0,0,1,921.393,161.6Zm3.14-3.242c.008-.987-.521-1.7-1.27-1.713a1.053,1.053,0,0,0-1.115,1.147c-.013.909.479,1.541,1.211,1.556C924.2,159.368,924.527,159.094,924.533,158.361Z" transform="translate(-830.215 -140.058)" fill="#9f9f9f"/><path d="M805.246,161.7c1.054-.309,1.054-.309,1.054-1.322,0-1.109,0-2.218,0-3.317-1.288-.272-1.736-.111-2.332.771l.061-1.17h5.56l.063,1.148c-.518-1.107-1.458-.807-2.352-.819,0,1.378-.006,2.712,0,4.045,0,.6.549.473.886.664Z" transform="translate(-768.352 -140.22)" fill="#9f9f9f"/><path d="M893.1,161.47h-2.448c.286-.156.623-.232.748-.437a1.768,1.768,0,0,0,.058-.828c0-.791,0-1.583,0-2.374,0-.887-.023-.909-.9-.961l1.752-.648v2.565c0,.49,0,.98,0,1.47C892.316,160.819,892.2,161.467,893.1,161.47Z" transform="translate(-814.035 -139.987)" fill="#9f9f9f"/><path d="M853.278,122.523l.215-.659.172-.007.208.76.51-.076c-.042.2-.025.445-.137.588a.811.811,0,0,1-1.394-.054,1.412,1.412,0,0,1-.118-.507Z" transform="translate(-794.08 -121.857)" fill="#9f9f9f"/><path d="M854.562,190a.726.726,0,0,1-1.45-.071.667.667,0,0,1,.7-.711A.715.715,0,0,1,854.562,190Zm-.684-.639c-.631.144-.745.5-.385,1.021C854.065,190.2,853.679,189.7,853.878,189.364Z" transform="translate(-794.279 -157.396)" fill="#9f9f9f"/><path d="M816.93,166.869l-.479-.66c.2-.128.417-.364.614-.352.175.011.333.3.5.46Z" transform="translate(-774.937 -145.071)" fill="#9f9f9f"/><path d="M853.307,143.549a.6.6,0,0,1,.032-1,.664.664,0,0,1,1.007.075.655.655,0,0,1-.062,1.005c-.333.274-.707.352-1-.1.83,0,.333-.653.6-1.071C853.146,142.662,853.25,143.116,853.307,143.549Z" transform="translate(-794.247 -132.67)" fill="#9f9f9f"/><path d="M854.089,147.564c-.215-.357-.439-.564-.425-.754.012-.165.327-.457.448-.43a.718.718,0,0,1,.477.478C854.605,147.031,854.34,147.23,854.089,147.564Z" transform="translate(-794.57 -134.794)" fill="#9f9f9f"/><path d="M869.64,140.086h3.429a.881.881,0,0,1-.959.635c-.617-.04-1.238-.008-1.857-.01C869.716,140.708,869.716,140.706,869.64,140.086Z" transform="translate(-802.999 -131.474)" fill="#9f9f9f"/><path d="M831.983,140.066h3.242l-.041.633c-.867,0-1.711.037-2.547-.023-.246-.018-.473-.313-.709-.481Z" transform="translate(-783.103 -131.464)" fill="#9f9f9f"/><path d="M828.724,137.82h5.368C833.679,138.222,829.177,138.2,828.724,137.82Z" transform="translate(-781.412 -130.279)" fill="#9f9f9f"/><path d="M868.065,137.705h5.277l.041.122a2.205,2.205,0,0,1-.615.2q-2.092.027-4.184,0a2,2,0,0,1-.562-.18Z" transform="translate(-802.145 -130.218)" fill="#9f9f9f"/><path d="M854.255,179.165c-.055.459-.257.657-.711.617a7.993,7.993,0,0,0-1.349,0c-.451.037-.658-.155-.713-.617Z" transform="translate(-793.419 -152.091)" fill="#9f9f9f"/><path d="M869.682,143.706l.128-.622h2.175c-.094.4-.256.662-.742.629C870.738,143.679,870.229,143.706,869.682,143.706Z" transform="translate(-803.021 -133.056)" fill="#9f9f9f"/><path d="M834.481,143c.618,0,1.239-.034,1.851.023.161.015.3.311.443.478l-.106.153a15.993,15.993,0,0,1-1.737-.022c-.2-.021-.362-.3-.542-.465Z" transform="translate(-784.402 -133.007)" fill="#9f9f9f"/><path d="M870.583,146.016c-.462,1.053-1.311.417-1.974.629C868.752,145.871,868.938,145.817,870.583,146.016Z" transform="translate(-802.455 -134.551)" fill="#9f9f9f"/><path d="M836.054,146c.457,0,.869.028,1.276-.008.445-.04.618.149.6.567C836.938,146.861,836.3,146.7,836.054,146Z" transform="translate(-785.28 -134.589)" fill="#9f9f9f"/><path d="M869.134,149.054c-.345,1.036-1.156.425-1.734.636C867.494,148.937,867.37,148.94,869.134,149.054Z" transform="translate(-801.817 -136.176)" fill="#9f9f9f"/><path d="M839.238,149.552c-1.249.21-1.483.138-1.677-.514C838.67,148.762,839.1,148.895,839.238,149.552Z" transform="translate(-786.075 -136.125)" fill="#9f9f9f"/><path d="M840.617,152.583c-1.428.152-1.467.139-1.672-.543C840.061,151.8,840.411,151.9,840.617,152.583Z" transform="translate(-786.805 -137.718)" fill="#9f9f9f"/><path d="M840.32,155.009c1.426-.151,1.456-.14,1.654.554C840.944,155.835,840.53,155.706,840.32,155.009Z" transform="translate(-787.53 -139.306)" fill="#9f9f9f"/><path d="M867.808,152.017c-.245.719-.3.739-1.611.581C866.3,151.889,866.3,151.889,867.808,152.017Z" transform="translate(-801.182 -137.735)" fill="#9f9f9f"/><path d="M843.368,158.655c-1.332.182-1.449.139-1.64-.6C843.4,157.941,843.208,157.958,843.368,158.655Z" transform="translate(-788.273 -140.926)" fill="#9f9f9f"/><path d="M844.735,161.595c-1.374.145-1.382.142-1.636-.535C844.017,160.751,844.531,160.909,844.735,161.595Z" transform="translate(-788.996 -142.46)" fill="#9f9f9f"/><path d="M855.316,176.675c.274-.736.274-.736,1.6-.623C856.757,176.773,856.757,176.773,855.316,176.675Z" transform="translate(-795.442 -150.42)" fill="#9f9f9f"/><path d="M844.507,164.054c1.432-.11,1.432-.11,1.61.612C844.735,164.812,844.735,164.812,844.507,164.054Z" transform="translate(-789.739 -144.091)" fill="#9f9f9f"/><path d="M866.512,155.063c-.165.686-.165.686-1.476.591C864.927,154.958,865.193,154.9,866.512,155.063Z" transform="translate(-800.558 -139.337)" fill="#9f9f9f"/><path d="M847.275,170.054c1.361-.138,1.361-.138,1.578.582C847.647,170.83,847.525,170.788,847.275,170.054Z" transform="translate(-791.2 -147.247)" fill="#9f9f9f"/><path d="M850.085,176.047c1.337-.135,1.337-.135,1.554.575C850.491,176.852,850.279,176.773,850.085,176.047Z" transform="translate(-792.682 -150.41)" fill="#9f9f9f"/><path d="M865.163,158.027c-.174.728-.3.777-1.5.584C863.83,157.885,863.954,157.836,865.163,158.027Z" transform="translate(-799.844 -140.889)" fill="#9f9f9f"/><path d="M852.872,182.1h1.487c-.1.325-.081.662-.57.668S852.884,182.753,852.872,182.1Z" transform="translate(-794.152 -153.637)" fill="#9f9f9f"/><path d="M862.491,161.568c.14-.671.356-.752,1.415-.531C863.724,161.719,863.5,161.8,862.491,161.568Z" transform="translate(-799.227 -142.47)" fill="#9f9f9f"/><path d="M862.6,164.064c-.2.718-.2.718-1.38.577C861.372,163.909,861.469,163.869,862.6,164.064Z" transform="translate(-798.558 -144.072)" fill="#9f9f9f"/><path d="M859.906,170.064c-.229.711.033.686-1.4.622C858.62,169.975,858.639,169.965,859.906,170.064Z" transform="translate(-797.126 -147.267)" fill="#9f9f9f"/><path d="M848.749,173.1c1.1-.223,1.334-.142,1.5.5C849.177,173.84,848.913,173.751,848.749,173.1Z" transform="translate(-791.977 -148.835)" fill="#9f9f9f"/><path d="M845.931,167.1c1.192-.178,1.337-.133,1.554.461C846.736,167.894,846.132,167.729,845.931,167.1Z" transform="translate(-790.49 -145.68)" fill="#9f9f9f"/><path d="M858.447,173.116c-.164.642-.271.681-1.412.516C857.175,172.967,857.422,172.877,858.447,173.116Z" transform="translate(-796.349 -148.837)" fill="#9f9f9f"/><path d="M861.3,167.114c-.193.678-.193.678-1.32.553C860.071,166.993,860.125,166.969,861.3,167.114Z" transform="translate(-797.901 -145.696)" fill="#9f9f9f"/><path d="M873.156,139.455h-3.435v-.02h3.448Z" transform="translate(-803.041 -131.131)" fill="#9f9f9f"/><ellipse cx="2.382" cy="0.011" rx="2.382" ry="0.011" transform="translate(47.94 8.3)" fill="#9f9f9f"/></g></g></svg>