<svg xmlns="http://www.w3.org/2000/svg" width="161.635" height="42.042" viewBox="0 0 161.635 42.042"><g transform="translate(0)"><path d="M74.749,32.479,72.84,37.5A9.976,9.976,0,0,0,63.4,30.872c-7.335,0-6.832,4.823-6.832,4.823s-.4,3.014,4.622,4.823,15.573,3.818,15.573,10.55-8.44,8.741-12.358,8.741a24.306,24.306,0,0,1-12.76-3.717l2.31-5.828S56.463,58.5,64.4,58.6s8.238-4.621,8.238-5.927-.8-4.723-6.732-5.928S52.847,42.828,52.847,37.2s6.43-7.837,10.55-7.837S73.543,31.575,74.749,32.479Z" transform="translate(-51.641 -29.365)" fill="#9f9f9f" fill-rule="evenodd"/><path d="M263.881,33.423,262.145,38.3s-1.92-6.432-8.6-6.432-6.221,4.678-6.221,4.678-.362,2.925,4.207,4.679,14.176,3.7,14.176,10.234-7.684,8.48-11.249,8.48a21.128,21.128,0,0,1-11.613-3.607l2.1-5.652s2.287,7.992,9.513,8.088,7.5-4.481,7.5-5.748-.733-4.582-6.129-5.752-11.887-3.8-11.887-9.259,5.853-7.6,9.6-7.6A24.043,24.043,0,0,1,263.881,33.423Z" transform="translate(-104.076 -29.649)" fill="#9f9f9f" fill-rule="evenodd"/><g transform="translate(26.323 1.247)"><path d="M102.177,31.083A14.522,14.522,0,1,0,116.445,45.6,14.394,14.394,0,0,0,102.177,31.083Zm8.938,19.543c0,4.69-4.069,8.492-9.088,8.492s-9.088-3.8-9.088-8.492V40.476c0-4.689,4.069-8.492,9.088-8.492s9.088,3.8,9.088,8.492Z" transform="translate(-87.91 -31.083)" fill="#9f9f9f" fill-rule="evenodd"/></g><path d="M143.451,59.7v.566H134.6V59.7c1.9-.15,2.022-2.561,2.022-2.561l.013-24.164s-4.384-.05-5.388,0a4.28,4.28,0,0,0-2.964,1.507,3.6,3.6,0,0,0-1.105,2.261h-.5V31.622h24.917v5.125h-.653a5.074,5.074,0,0,0-1.607-2.663,5.224,5.224,0,0,0-3.215-1.105h-4.572l-.012,24.164S141.743,59.553,143.451,59.7Z" transform="translate(-72.217 -29.984)" fill="#9f9f9f" fill-rule="evenodd"/><path d="M171.712,44.664V56.67s-.15,2.6,2.185,2.6v.9h-8.74v-.9c2.11-.114,1.959-2.6,1.959-2.6V33.913a1.84,1.84,0,0,0-1.959-1.733v-.905h8.74v.905s-2.185.075-2.185,1.733v9.6h15v-9.6c0-1.658-2.186-1.733-2.186-1.733v-.905h8.741v.905a1.839,1.839,0,0,0-1.959,1.733V56.67s-.151,2.486,1.959,2.6v.9h-8.741v-.9c2.336,0,2.186-2.6,2.186-2.6V44.664Z" transform="translate(-82.771 -29.889)" fill="#9f9f9f" fill-rule="evenodd"/><path d="M221.862,48.041V56.7s-.151,2.486,1.959,2.6v.9H215.08v-.9c2.336,0,2.185-2.6,2.185-2.6v-8.51l-10-15a2.712,2.712,0,0,0-1.759-1.03v-.779h9.043v.779s-1.685.075-1.534,1.03,7.912,13.312,7.912,13.312l6.857-11a5.158,5.158,0,0,0,.2-1.231,2.267,2.267,0,0,0-2.085-2.06v-.754h7.662v.629a2.514,2.514,0,0,0-1.709.653,11.928,11.928,0,0,0-1.482,1.658C229.825,35.206,221.862,48.041,221.862,48.041Z" transform="translate(-93.837 -29.92)" fill="#9f9f9f" fill-rule="evenodd"/><path d="M137.951,80.994v3.018h-1.534v-7.84c1.161-.035,1.861-.053,2.1-.053q4.892,0,4.893,2.286,0,2.641-4.326,2.643Q138.825,81.048,137.951,80.994Zm0-3.858v2.9q.974.054,1.028.054,2.853,0,2.854-1.568,0-1.434-3.045-1.434C138.582,77.082,138.3,77.1,137.951,77.136Z" transform="translate(-74.889 -42.186)" fill="#9f9f9f"/><path d="M154.2,84.068l-1.139-2.477H149.7l-1.173,2.477h-1.685l4.479-7.947h.4l4.154,7.947Zm-2.754-5.892-1.35,2.628h2.536Z" transform="translate(-77.747 -42.187)" fill="#9f9f9f"/><path d="M168.485,84.039l-2.69-3.365q-.462,0-1.459-.054v3.419H162.96V76.2q.076,0,1.071-.04t1.448-.041q3.633,0,3.632,2.248a1.845,1.845,0,0,1-.585,1.33,2.539,2.539,0,0,1-1.39.736l2.923,3.607Zm-4.148-6.877V79.71a8.985,8.985,0,0,0,.963.054,3.948,3.948,0,0,0,1.8-.31,1.155,1.155,0,0,0,.564-1.108.982.982,0,0,0-.606-.949,4.7,4.7,0,0,0-1.911-.289Q164.94,77.109,164.336,77.163Z" transform="translate(-82.168 -42.186)" fill="#9f9f9f"/><path d="M178.107,83.959v-7.84h1.215v7.84Z" transform="translate(-86.322 -42.186)" fill="#9f9f9f"/><path d="M184.939,83.735l.616-.984a5.505,5.505,0,0,0,1.176.367,6.189,6.189,0,0,0,1.262.147,3.184,3.184,0,0,0,1.585-.341,1,1,0,0,0,.6-.872,1.038,1.038,0,0,0-.334-.737,4.5,4.5,0,0,0-1.674-.741l-1-.294a4.146,4.146,0,0,1-1.766-.888,1.649,1.649,0,0,1,.477-2.693,4.888,4.888,0,0,1,2.513-.578,6.688,6.688,0,0,1,2.85.424l-.5.93a5.281,5.281,0,0,0-1.031-.3,6.235,6.235,0,0,0-1.282-.145,2.522,2.522,0,0,0-1.353.311.92.92,0,0,0-.494.8.9.9,0,0,0,.179.546,1.39,1.39,0,0,0,.493.413,9.089,9.089,0,0,0,1.294.464l1.012.3a4.14,4.14,0,0,1,1.775.908,1.84,1.84,0,0,1,.509,1.34,1.766,1.766,0,0,1-1.117,1.5,6.2,6.2,0,0,1-2.989.616A7.193,7.193,0,0,1,184.939,83.735Z" transform="translate(-88.186 -42.186)" fill="#9f9f9f"/></g></svg>