<svg xmlns="http://www.w3.org/2000/svg" width="161.635" height="29.099" viewBox="0 0 161.635 29.099"><path d="M1110.555,543.081c-1.455-.4-2.91-.808-4.365-1.186a1.833,1.833,0,0,1-1.509-2.29,20.948,20.948,0,0,0,.027-2.64c.727.3,1.213.512,1.67.7a14.417,14.417,0,0,0,9.188,1.078,5.866,5.866,0,0,0,2.263-1.078,3.386,3.386,0,0,0-.189-5.6,37.6,37.6,0,0,0-4.446-2.156c-1.724-.835-3.556-1.536-5.2-2.506a6.428,6.428,0,0,1-3.125-6.9,6.612,6.612,0,0,1,4.634-5.577c1.131-.4,2.317-.647,3.475-.943h4.581c1.374.4,2.748.754,4.1,1.239a1.555,1.555,0,0,1,.943.943,26.937,26.937,0,0,1,.054,3.341c-.835-.323-1.428-.539-1.994-.755a13.335,13.335,0,0,0-8.191-.647c-1.778.458-2.8,1.509-2.937,2.937-.135,1.643.943,2.452,2.182,3.072,1.7.808,3.449,1.536,5.173,2.236,3.26,1.32,6.008,3.179,7.113,6.763v3.233c-.889,3.611-3.26,5.6-6.844,6.278-.593.108-1.185.3-1.778.458Z" transform="translate(-962.365 -513.982)" fill="#9f9f9f"/><path d="M.154,603.494a11.233,11.233,0,0,0,6.116-.108c2.721-.754,5.416-1.617,8.137-2.344a15.9,15.9,0,0,1,7.464-.431,7.434,7.434,0,0,1,4.85,3.152c-4.473-1.212-8.164.647-11.99,1.751-2.048.593-4.15,1.078-6.332,1.644v5.793c0,.943.673.754,1.239.754h16.84a28.405,28.405,0,0,1-.054,3.422c-.027.3-.7.727-1.1.727-2.29.081-4.58.027-6.871.027-4.392,0-8.783-.027-13.2.027-1.185.027-1.563-.378-1.536-1.536.081-2.964,0-5.928.027-8.891a1.511,1.511,0,0,0-.943-1.563,26.8,26.8,0,0,1-2.641-1.886C.154,603.844.154,603.683.154,603.494Z" transform="translate(-0.154 -589.214)" fill="#9f9f9f"/><path d="M730.871,532.987c1.509-2.29,2.883-4.365,4.257-6.466,1.994-3.045,3.961-6.089,5.955-9.134a3.345,3.345,0,0,1,3.853-1.185,1.222,1.222,0,0,1,.485.97q.04,13.055.027,26.108c0,.754-.269,1-1.024,1.051-3.5.216-3.5.243-3.5-3.287V525.2a13.03,13.03,0,0,0-.889,1.186c-2.613,4.015-5.227,8.056-7.84,12.07-1.024,1.563-1.563,1.563-2.614,0-2.532-3.88-5.038-7.732-7.571-11.613a3.606,3.606,0,0,0-1.24-1.239v1.374c0,5.308-.027,10.589.027,15.9,0,1.185-.35,1.536-1.536,1.509-2.991-.054-2.991,0-2.991-3.018q0-11.639.027-23.279c0-.674-.458-1.617.674-1.913a3.212,3.212,0,0,1,3.5.943c2.586,3.934,5.146,7.895,7.733,11.828C729.039,530.185,729.874,531.451,730.871,532.987Z" transform="translate(-623.958 -515.716)" fill="#9f9f9f"/><path d="M457.756,607v6.655h1.59c5.065,0,10.158.027,15.223-.027,1.024,0,1.32.3,1.293,1.293-.108,3.449.485,2.883-2.91,2.91-6.008.027-12.044-.027-18.052.027-1.293,0-1.832-.243-1.778-1.7.135-2.829,0-5.659.054-8.487a1.729,1.729,0,0,0-1.078-1.886,8.668,8.668,0,0,1-2.479-2.1c4.257.7,7.948-.97,11.748-2.1a22.9,22.9,0,0,1,8.73-1.266,7.742,7.742,0,0,1,5.955,3.287c-4.9-1.213-8.918.97-13.148,2.155C461.232,606.276,459.507,606.6,457.756,607Z" transform="translate(-391.717 -589.14)" fill="#9f9f9f"/><path d="M272.428,541.041h1.644c4.338,0,8.7.027,13.041-.027.97,0,1.374.243,1.32,1.267-.108,3.422.431,2.91-2.91,2.937-5.389.027-10.751-.027-16.139.027-1.24,0-1.724-.323-1.724-1.644q.081-12.569,0-25.165c0-1.186.35-1.563,1.536-1.536,3.8.108,3.179-.485,3.206,3.206.027,6.413,0,12.825,0,19.238C272.428,539.828,272.428,540.313,272.428,541.041Z" transform="translate(-233.198 -516.522)" fill="#9f9f9f"/><path d="M28.194,528.925V523.59c0-1.805.027-3.583-.027-5.389-.027-.889.216-1.293,1.213-1.293,6.763.027,13.553.027,20.316,0,.943,0,1.239.323,1.239,1.24,0,2.937.054,2.937-2.883,2.937-4.662,0-9.323.027-13.984-.027-.916,0-1.32.216-1.24,1.185.081.835.027,1.7.027,2.56C32.828,527.6,31.319,529.006,28.194,528.925Z" transform="translate(-24.557 -516.531)" fill="#9f9f9f"/><path d="M477.645,529.837V517.955h22.606v3.287c0,.916-.7.755-1.266.755H484.058c-2.129,0-1.913-.243-1.913,1.967v1.752C482.118,528.6,480.717,529.891,477.645,529.837Z" transform="translate(-416.132 -517.443)" fill="#9f9f9f"/><path d="M1013.992,530.891c0,4.2-.027,8.433.027,12.637.027,1.213-.4,1.536-1.563,1.536-3.126-.027-3.126.027-3.126-3.152,0-7.841.027-15.708-.027-23.549,0-1.294.377-1.7,1.671-1.671,3.557.108,2.99-.323,3.018,3.018C1014.019,523.454,1013.992,527.172,1013.992,530.891Z" transform="translate(-879.301 -516.341)" fill="#9f9f9f"/></svg>