<svg xmlns="http://www.w3.org/2000/svg" width="131.192" height="18.018" viewBox="0 0 131.192 18.018"><g transform="translate(0 0)"><path d="M-6054-349.058c.036-.21.075-.419.106-.63a8.836,8.836,0,0,1,2.426-4.965,8.41,8.41,0,0,1,4.428-2.482,8.9,8.9,0,0,1,7.868,1.834,8.351,8.351,0,0,1,1.311,1.4l-2.319,1.712c-.134-.165-.252-.324-.381-.471a5.585,5.585,0,0,0-3.847-1.922,5.86,5.86,0,0,0-4.5,1.395,5.868,5.868,0,0,0-1.939,3.413,6.834,6.834,0,0,0,.352,4,5.485,5.485,0,0,0,3.96,3.442,6.1,6.1,0,0,0,5.316-1.023,5.472,5.472,0,0,0,2.021-3.439h-5.223v-2.754h8.313c0,.441,0,.872,0,1.3a9.712,9.712,0,0,1-.26,2.233,8.576,8.576,0,0,1-2.071,3.8,8.614,8.614,0,0,1-5.279,2.738c-.362.051-.73.056-1.095.085a1.067,1.067,0,0,0-.163.038h-.722l-.583-.084a8.778,8.778,0,0,1-5.344-2.769,8.758,8.758,0,0,1-2.227-4.544c-.052-.3-.1-.6-.145-.9Z" transform="translate(6054.001 357.37)" fill="#9f9f9f"/><path d="M-2820.407-328.25c-.92,0-1.84.005-2.759,0a.273.273,0,0,1-.188-.1q-2.4-3.211-4.792-6.428l-4.518-6.071a.471.471,0,0,0-.051-.044v12.638h-2.755v-17.135c.063,0,.122-.008.18-.008.836,0,1.672,0,2.507,0a.3.3,0,0,1,.269.134q3.379,4.559,6.763,9.115,1.209,1.627,2.419,3.253c.037.05.079.1.152.184v-12.668c.06-.007.1-.015.14-.015h2.543a.713.713,0,0,1,.089.011Z" transform="translate(2951.599 345.835)" fill="#9f9f9f"/><path d="M-5439.113-327.389c-.276-.048-.554-.086-.828-.147a7.382,7.382,0,0,1-5.585-4.806,7.053,7.053,0,0,1-.442-2.577q.007-4.9,0-9.795v-.245h2.746v.232q0,4.861,0,9.722a4.787,4.787,0,0,0,.855,2.85,4.573,4.573,0,0,0,3.553,2.025,4.69,4.69,0,0,0,4.923-3.544,5.3,5.3,0,0,0,.152-1.32c.013-3.241.007-6.482.007-9.722v-.244h2.748v.2c0,3.307.015,6.614-.006,9.921a7.273,7.273,0,0,1-1.955,4.947,7.4,7.4,0,0,1-4.827,2.466.585.585,0,0,0-.115.037Z" transform="translate(5467.906 345.407)" fill="#9f9f9f"/><path d="M-4448.495-333.948v5.75h-2.744v-17.139h7.307a5.6,5.6,0,0,1,5.182,3.55,5.7,5.7,0,0,1-.523,5.363,5.326,5.326,0,0,1-3.057,2.216c-.022.007-.046.013-.068.022a.252.252,0,0,0-.045.036l5.424,5.956c-.081.006-.132.012-.182.012-1.052,0-2.1,0-3.157,0a.34.34,0,0,1-.278-.126q-2.545-2.775-5.1-5.541a.33.33,0,0,0-.208-.11c-.823-.007-1.648,0-2.471,0A.665.665,0,0,0-4448.495-333.948Zm.006-2.761h.233q2.01,0,4.022,0c.173,0,.348-.009.52-.024a2.944,2.944,0,0,0,2.622-2.817,2.939,2.939,0,0,0-2.975-3c-1.419-.005-2.838,0-4.257,0-.052,0-.1.006-.166.01Z" transform="translate(4509.068 345.771)" fill="#9f9f9f"/><path d="M-4905.912-345.058h11.752v2.733h-9v4.443h8.326v2.764h-8.331v4.445h9.006v2.749h-11.752Z" transform="translate(4947.337 345.502)" fill="#9f9f9f"/><path d="M-3587.732-328.254h-1.323c-.475,0-.95-.005-1.425,0a.226.226,0,0,1-.251-.166c-.495-1.218-1-2.432-1.492-3.65a.26.26,0,0,0-.287-.195q-3.608.008-7.214,0a.246.246,0,0,0-.273.186c-.484,1.222-.977,2.44-1.467,3.659-.036.09-.064.166-.2.165-.9-.007-1.8,0-2.706,0a1.267,1.267,0,0,1-.126-.015c.035-.094.063-.178.1-.259l2.476-6.167q2.123-5.29,4.243-10.581a.182.182,0,0,1,.2-.135q1.361.006,2.723,0a.192.192,0,0,1,.206.149q1.394,3.486,2.793,6.971,1.429,3.558,2.861,7.116.554,1.378,1.1,2.759C-3587.772-328.375-3587.759-328.329-3587.732-328.254Zm-5.648-6.723c-.911-2.306-1.815-4.6-2.734-6.923l-2.733,6.923Z" transform="translate(3692.874 345.844)" fill="#9f9f9f"/><path d="M-3946.553-330.628H-3939v2.745h-10.256v-17.131h2.7Z" transform="translate(4025.196 345.46)" fill="#9f9f9f"/><path d="M-3048.841-345.045h2.729v17.131h-2.729Z" transform="translate(3157.271 345.49)" fill="#9f9f9f"/></g></svg>