<svg xmlns="http://www.w3.org/2000/svg" width="123.473" height="59.036" viewBox="0 0 123.473 59.036"><g transform="translate(42.539 0)"><g transform="translate(0)"><path d="M4403.7-1150.118c.008-.292.131-.466.44-.465,1.206,0,2.415-.049,3.617.016a17.083,17.083,0,0,1,7.131,2.2,19.138,19.138,0,0,1,4.636,3.492,20.714,20.714,0,0,1,4.391,6.912,21.262,21.262,0,0,1,1.094,7.121,19.375,19.375,0,0,1-1.544,6.9,19.641,19.641,0,0,1-4.9,6.9,18.506,18.506,0,0,1-6.09,3.759c-.773.286-1.572.5-2.36.748-.253.078-.393-.042-.392-.293,0-1.271.007-2.543.043-3.814a.581.581,0,0,1,.339-.4,15.611,15.611,0,0,0,5.185-2.862,14.432,14.432,0,0,0,3.667-4.584,12.1,12.1,0,0,0,1.341-3.889,40.005,40.005,0,0,0,.285-4.422c0-.524-.241-.589-.676-.588-3.769.011-7.538,0-11.307,0-.639,0-.666.03-.665.681,0,1.2,0,1.2-1.167,1.2-.857,0-1.716-.016-2.574,0-.438.01-.585-.16-.583-.6C4403.632-1134.923,4403.687-1149.6,4403.7-1150.118Zm9.925,12.423v.008q2.528,0,5.057,0c.488,0,.6-.167.355-.584a23.011,23.011,0,0,0-1.442-2.284,14.364,14.364,0,0,0-5.16-4.185,12.635,12.635,0,0,0-3.865-1.263c-.386-.053-.571.091-.571.5,0,2.375-.012,4.751-.014,7.126,0,.559.121.679.674.682C4410.316-1137.691,4411.97-1137.7,4413.626-1137.7Z" transform="translate(-4386.45 1150.601)" fill="#9f9f9f"/><path d="M4238.292-1108.343c0,.488-.191.711-.67.707-1.144-.009-2.292.03-3.435-.032a16.33,16.33,0,0,1-5.987-1.628,18.939,18.939,0,0,1-5.264-3.63,18.622,18.622,0,0,1-4.491-6.524,32.525,32.525,0,0,1-1.205-4.133,14.864,14.864,0,0,1-.248-5.028,18.809,18.809,0,0,1,2.38-7.611,19.565,19.565,0,0,1,4.185-5.123,19.292,19.292,0,0,1,6.291-3.7c.591-.206,1.191-.389,1.791-.57.364-.11.542.013.537.423q-.025,1.724-.005,3.448a.491.491,0,0,1-.4.56,15.177,15.177,0,0,0-5.783,3.361,14.075,14.075,0,0,0-3.315,4.523,14.973,14.973,0,0,0-1.029,9.729,15.037,15.037,0,0,0,3.3,6.575,13.48,13.48,0,0,0,5.229,3.781,32.162,32.162,0,0,0,3.125,1.007c.555.163.683.044.688-.55.018-2.345.012-4.689.051-7.033.02-1.226,0-1.045-1.065-1.055-.858-.008-1.716-.009-2.575,0-.432.007-.6-.175-.59-.608.04-1.132.062-2.265.08-3.4.005-.356.234-.385.5-.385q1.723,0,3.447,0c1.332,0,2.666.024,4-.007.474-.01.532.218.532.586C4238.353-1122.471,4238.277-1111.055,4238.292-1108.343Z" transform="translate(-4216.892 1146.112)" fill="#9f9f9f"/></g></g><g transform="translate(0 44.987)"><g transform="translate(0 0)"><path d="M4533.038-647.272c-.148-.252-.292-.507-.445-.756-.233-.377-.474-.748-.708-1.124q-.449-.716-.9-1.434c-.384-.62-.764-1.242-1.15-1.861-.312-.5-.635-.995-.947-1.5-.426-.684-.845-1.372-1.272-2.056-.33-.528-.671-1.049-1-1.576-.224-.357-.436-.722-.658-1.079-.261-.417-.526-.829-.793-1.25v11.826c.273,0,.547.01.82,0,.149-.007.219.026.192.185a1.253,1.253,0,0,0,0,.161h-6.093a.2.2,0,0,1-.191-.285.18.18,0,0,1,.137-.067c.474,0,.947,0,1.439,0l-1.271-3.937h-4.23c-.435,1.3-.875,2.616-1.315,3.935h.925c.21,0,.213,0,.212.219v.126h-5.629v-.318h1.006v-11.631l-.389,1.182c-.218.664-.438,1.328-.655,1.993-.141.431-.274.864-.415,1.294-.19.584-.386,1.166-.578,1.75-.233.712-.461,1.425-.7,2.135-.19.572-.393,1.141-.583,1.713-.076.227-.134.461-.208.689-.106.329-.219.656-.33.984-.039.115-.08.23-.121.344l-.054.008-4.178-11.675-.021,0v11.2c.292,0,.585,0,.879,0,.22,0,.235.01.233.224,0,.033,0,.065,0,.12h-.182c-1.115,0-2.231.006-3.348,0a2.3,2.3,0,0,1-1.368-.52,2.487,2.487,0,0,1-.722-.866,2.87,2.87,0,0,1-.348-1.179c-.034-.735-.031-1.471-.078-2.205a2.728,2.728,0,0,0-.2-.872,1.548,1.548,0,0,0-.835-.825,4.479,4.479,0,0,0-1.859-.239h-.586v6.377c.483,0,.965.008,1.446,0,.143,0,.133.069.132.158s.021.189-.122.18c-.021,0-.043,0-.066,0h-8.081a.926.926,0,0,1-.022-.253c.007-.038.09-.089.139-.09.478-.007.958,0,1.443,0-.115-.364-.232-.732-.35-1.1-.22-.692-.438-1.384-.661-2.075-.077-.243-.163-.484-.25-.724a.106.106,0,0,0-.083-.049q-2.035,0-4.069.006c-.038,0-.1.022-.108.048-.14.416-.268.836-.407,1.253s-.284.8-.418,1.2c-.152.456-.292.916-.439,1.374a.375.375,0,0,1-.059.08c.355,0,.7.005,1.04,0,.132,0,.149.063.147.168s0,.173-.131.173c-.753,0-1.505,0-2.26,0a.169.169,0,0,1-.012-.05c.012-.284.013-.283.322-.283.058,0,.116-.009.173-.008.379.009.377,0,.488-.35.153-.485.317-.967.477-1.45.142-.432.282-.866.429-1.3s.309-.868.458-1.3c.112-.328.21-.661.321-.99s.238-.672.354-1.01c.179-.522.354-1.046.533-1.568.2-.577.4-1.153.594-1.731.163-.486.313-.976.476-1.461s.333-.949.5-1.425c.076-.219.145-.44.216-.66h.1a.792.792,0,0,0,.023.141c.077.226.164.449.236.677.15.468.29.94.441,1.407.133.412.28.819.417,1.23.07.208.131.419.2.627.153.467.311.934.463,1.4.083.255.155.513.24.767.147.44.305.876.45,1.316.164.5.316,1,.478,1.5.126.391.258.781.386,1.172.071.214.137.429.208.642.148.44.3.878.447,1.317.109.324.214.651.327.974a.138.138,0,0,0,.094.082c.605,0,1.212,0,1.823,0v-.18q0-6,0-12c0-.15-.028-.224-.192-.189a.7.7,0,0,1-.145.007h-.689c0-.093.006-.165,0-.235-.011-.1.041-.117.122-.117,1.111,0,2.223.005,3.334.015.454,0,.908,0,1.358.051a3.965,3.965,0,0,1,1.31.383,3.294,3.294,0,0,1,.948.669,2.669,2.669,0,0,1,.691,1.254,5.305,5.305,0,0,1,.085.955,2.59,2.59,0,0,1-.493,1.585,2.9,2.9,0,0,1-1.829,1.266c.181.052.35.087.508.15a2.377,2.377,0,0,1,1.441,1.63,4.891,4.891,0,0,1,.168,1.18c.026.686.013,1.374.005,2.061a1.936,1.936,0,0,0,.136.792,1.025,1.025,0,0,0,.955.714c.246.007.493.008.74.009.371,0,.744,0,1.125,0v-12.366h-1.007a.893.893,0,0,0,0-.158c-.033-.156.054-.192.183-.191.705.007,1.41.028,2.115.012a.273.273,0,0,1,.324.232c.069.224.167.439.244.661.2.576.39,1.156.588,1.731.231.666.467,1.33.7,2,.166.471.334.941.5,1.413.119.344.228.692.347,1.036.177.5.362,1.006.542,1.509.134.377.266.754.4,1.132.067.194.13.389.2.611.173-.542.33-1.051.5-1.556.208-.625.43-1.245.64-1.87.2-.6.4-1.209.6-1.813.192-.577.395-1.151.586-1.729.176-.534.337-1.072.516-1.605s.383-1.09.565-1.638c.028-.086.05-.106.139-.106.749,0,1.5-.007,2.248-.012.121,0,.149.071.143.177s-.014.179-.151.175c-.261-.008-.524,0-.777,0v12.351h.138c.444,0,.889.009,1.333.008a.132.132,0,0,0,.1-.067c.1-.276.183-.554.273-.831.124-.373.247-.746.375-1.117.107-.312.222-.621.328-.934.124-.362.238-.727.361-1.09.105-.316.215-.63.324-.944.121-.349.244-.7.364-1.048.084-.248.161-.5.247-.748.1-.3.213-.593.313-.893.107-.321.2-.648.306-.969.166-.487.346-.971.514-1.457.134-.39.261-.784.391-1.176s.256-.781.388-1.17c.092-.269.189-.537.285-.805h.066c.023.082.044.164.071.245.114.339.231.677.345,1.016.069.208.132.419.2.627.112.345.229.689.34,1.034.069.213.129.429.2.641.116.344.244.684.357,1.029.162.5.312,1,.475,1.494.155.472.325.939.482,1.411s.305.957.462,1.434.332.978.5,1.467q.218.654.427,1.31c.152.472.3.944.445,1.418a.15.15,0,0,0,.174.122c.438-.007.879-.03,1.316-.006.181.01.2-.028.2-.186q-.005-6.08,0-12.166c-.292,0-.581,0-.87,0-.112,0-.155-.046-.136-.147.014-.075-.07-.194.117-.193q1.182.012,2.363-.007a.382.382,0,0,1,.4.2c.16.292.343.571.518.855l.652,1.057c.239.389.475.781.717,1.168s.5.779.743,1.171c.267.429.529.861.794,1.292.213.348.429.7.644,1.043.242.394.481.789.726,1.182.255.411.514.819.771,1.229.169.27.336.542.515.83v-9.686c-.305,0-.6,0-.9,0-.212,0-.093-.166-.116-.258,0-.016.076-.074.117-.075q.719-.012,1.437-.01c1.269,0,2.537.006,3.807.006.282,0,.563-.016.844-.024v.363h-.979v12.367h.979v.33h-3.523v-.336h.976v-12.361h-2.3v13.159Zm-38.515-7.473a15.591,15.591,0,0,0,1.648-.11,2.282,2.282,0,0,0,.894-.413,2.112,2.112,0,0,0,.71-.9,3.817,3.817,0,0,0,.3-.843,3.416,3.416,0,0,0-.227-1.948,2.268,2.268,0,0,0-.618-.887,2.455,2.455,0,0,0-1.6-.589c-.152,0-.305-.013-.458-.015-.213,0-.427,0-.643,0Zm-10.52,2.36a1.419,1.419,0,0,0,.157.019l1.823,0c.618,0,1.235,0,1.853,0,.091,0,.191,0,.141-.148-.091-.263-.178-.528-.266-.792-.2-.6-.4-1.2-.6-1.807-.171-.528-.336-1.057-.506-1.585-.13-.409-.264-.818-.4-1.227l-.172-.54c-.06.186-.11.344-.162.5q-.179.548-.359,1.095c-.123.368-.248.734-.371,1.1-.066.2-.126.407-.193.608-.108.322-.222.641-.33.963-.071.212-.132.428-.2.639C4484.284-653.167,4484.144-652.782,4484-652.385Zm36.078.005c-.656-2.033-1.306-4.042-1.964-6.08-.167.509-.322.989-.484,1.467-.132.394-.277.785-.407,1.18-.124.374-.229.754-.352,1.128-.175.526-.359,1.05-.539,1.574-.083.245-.167.49-.25.73Z" transform="translate(-4414.479 661.321)" fill="#9f9f9f"/><path d="M3754.236-652.851c.04-.2.074-.394.119-.589.071-.308.137-.619.226-.922a7.057,7.057,0,0,1,.668-1.552A8,8,0,0,1,3756-657a6.5,6.5,0,0,1,.868-.867,4.6,4.6,0,0,1,.9-.569,5.757,5.757,0,0,1,1.05-.395,3.851,3.851,0,0,1,1.527-.106,4.12,4.12,0,0,1,1.439.557.794.794,0,0,0,1.213-.505h.268v4a.828.828,0,0,1-.193.027.129.129,0,0,1-.09-.081,9.257,9.257,0,0,0-.175-.934,4.374,4.374,0,0,0-1.021-1.9,2.76,2.76,0,0,0-1.279-.775,2.931,2.931,0,0,0-1.125-.037,2.858,2.858,0,0,0-1.147.412,2.844,2.844,0,0,0-1.022,1.091,8.9,8.9,0,0,0-.516,1.137,5.376,5.376,0,0,0-.211.924q-.115.669-.2,1.343a6.653,6.653,0,0,0-.036.735c-.005.539-.018,1.078,0,1.616.019.481.074.962.127,1.441a9.259,9.259,0,0,0,.174,1.166,10.032,10.032,0,0,0,.406,1.2,3.3,3.3,0,0,0,.818,1.211,2.576,2.576,0,0,0,1.156.614,2.768,2.768,0,0,0,1.247.051,2.483,2.483,0,0,0,1.423-.814,3.107,3.107,0,0,0,.678-1.508.555.555,0,0,0,0-.1c0-.836,0-1.671,0-2.506,0-.125-.019-.171-.163-.163-.3.016-.6,0-.893,0-.108,0-.148-.024-.134-.129s-.053-.225.13-.221.4,0,.594,0h2.992v.345c-.293,0-.586,0-.879,0-.034,0-.076.057-.1.1s0,.075,0,.114v4.9h-.347a2.784,2.784,0,0,0-.078-.273.673.673,0,0,0-.9-.489,2.325,2.325,0,0,0-.936.475,3.05,3.05,0,0,1-.985.5,3.682,3.682,0,0,1-1.234.1,4.308,4.308,0,0,1-2.442-1.019,6.6,6.6,0,0,1-1.4-1.566,8.749,8.749,0,0,1-.7-1.365,7.969,7.969,0,0,1-.513-1.83c-.018-.108-.043-.216-.065-.323Z" transform="translate(-3754.236 659.183)" fill="#9f9f9f"/><path d="M4041.1-655h-.912c-.16,0-.1-.124-.109-.2s-.018-.135.112-.134c1.053.007,2.106,0,3.16,0,.4,0,.8-.008,1.192.013a4.432,4.432,0,0,1,1.534.346,2.946,2.946,0,0,1,1.582,1.475,3.045,3.045,0,0,1,.19,2.161,3.045,3.045,0,0,1-1.3,1.767,2.844,2.844,0,0,1-.91.394c.208.078.45.152.677.257a2.1,2.1,0,0,1,.941.842,2.963,2.963,0,0,1,.434,1.481c.015.91.008,1.821.041,2.73a1.452,1.452,0,0,0,.485,1.1,1.029,1.029,0,0,0,1.33.005c.065-.05.084-.053.125,0l.145.2a1.486,1.486,0,0,1-.99.394,2.279,2.279,0,0,1-1.146-.273,2.632,2.632,0,0,1-.87-.726,3.566,3.566,0,0,1-.621-1.457,2.289,2.289,0,0,1-.043-.482c-.005-.522,0-1.044,0-1.566a3.076,3.076,0,0,0-.24-1.285,1.589,1.589,0,0,0-.837-.818,4.882,4.882,0,0,0-1.917-.246c-.173,0-.345,0-.526,0v6.374c.456,0,.914.009,1.371,0,.169-.005.233.04.2.207a.916.916,0,0,0,0,.138h-4.116v-.339c.241,0,.484,0,.726,0,.29,0,.29.007.29-.287V-655Zm1.517.013v5.5c0,.022-.009.051,0,.065.023.03.057.075.085.074.529-.015,1.06-.007,1.585-.064a1.8,1.8,0,0,0,.9-.448,2.7,2.7,0,0,0,.735-.967,2.874,2.874,0,0,0,.294-1.106,3.549,3.549,0,0,0-.311-1.683,2.194,2.194,0,0,0-.97-1.056,2.32,2.32,0,0,0-1.205-.314C4043.365-654.98,4043-654.991,4042.612-654.991Z" transform="translate(-4013.789 655.894)" fill="#9f9f9f"/><path d="M4309.454-650.343a7.11,7.11,0,0,1-.589,1.717,7.5,7.5,0,0,1-.876,1.409,5.6,5.6,0,0,1-1.171,1.124,4.945,4.945,0,0,1-1.764.788,4.452,4.452,0,0,1-1.588.066,4.6,4.6,0,0,1-1.891-.748,6.075,6.075,0,0,1-1.449-1.369,6.852,6.852,0,0,1-.894-1.513,8.5,8.5,0,0,1-.5-1.46,5.317,5.317,0,0,1-.146-.958,15.266,15.266,0,0,1,0-1.582,4.953,4.953,0,0,1,.188-.969,7.165,7.165,0,0,1,.339-1.037c.191-.435.421-.853.651-1.27a5.366,5.366,0,0,1,1.025-1.294,7.087,7.087,0,0,1,.9-.718,4.285,4.285,0,0,1,1.356-.587,4.058,4.058,0,0,1,2.141.026,4.742,4.742,0,0,1,1.468.738,5.953,5.953,0,0,1,1.241,1.2,10.712,10.712,0,0,1,.808,1.278,9.083,9.083,0,0,1,.482,1.03,5.6,5.6,0,0,1,.2.69,6.1,6.1,0,0,1,.242,1.793A12.779,12.779,0,0,1,4309.454-650.343Zm-1.871-2.236c.017,0-.066-1.131-.118-1.7a7.263,7.263,0,0,0-.453-1.94,3.9,3.9,0,0,0-1.144-1.72,2.544,2.544,0,0,0-.977-.5,3.308,3.308,0,0,0-1.393-.045,2.687,2.687,0,0,0-1.305.63,3.589,3.589,0,0,0-.931,1.359,8.454,8.454,0,0,0-.4,1.295,8.692,8.692,0,0,0-.17,1.067c-.054.468-.113.937-.128,1.408a15.693,15.693,0,0,0,.094,2.5c.058.455.074.919.176,1.363a6.648,6.648,0,0,0,.515,1.536,3.589,3.589,0,0,0,.964,1.236,2.641,2.641,0,0,0,1.206.529,3.211,3.211,0,0,0,1.313-.047,2.735,2.735,0,0,0,1.256-.682,3.88,3.88,0,0,0,.9-1.439,6.137,6.137,0,0,0,.4-1.465c.072-.545.157-1.09.188-1.638C4307.607-651.407,4307.583-651.994,4307.583-652.579Z" transform="translate(-4248.517 659.1)" fill="#9f9f9f"/><path d="M3915.206-651.966a5.738,5.738,0,0,1,.215-1.83,8.649,8.649,0,0,1,.752-1.9,7.16,7.16,0,0,1,1.421-1.852,4.642,4.642,0,0,1,1.563-.985,4.257,4.257,0,0,1,1.909-.273,4.437,4.437,0,0,1,1.594.474,5.455,5.455,0,0,1,1.627,1.3,9.535,9.535,0,0,1,.864,1.169,9.7,9.7,0,0,1,.478.975,6.812,6.812,0,0,1,.508,1.548,6.286,6.286,0,0,1,.144,1.832,7.7,7.7,0,0,1-.167,1.2,8.264,8.264,0,0,1-.862,2.24,6.991,6.991,0,0,1-1,1.345,7.6,7.6,0,0,1-.92.759,3.986,3.986,0,0,1-1.106.564,4.725,4.725,0,0,1-1.26.248,4.073,4.073,0,0,1-1.579-.2,5.134,5.134,0,0,1-1.822-1.1,7.071,7.071,0,0,1-1.382-1.774,7.643,7.643,0,0,1-.831-2.211A10.165,10.165,0,0,1,3915.206-651.966Zm5.508-6.508a2.448,2.448,0,0,0-1.175.222,2.934,2.934,0,0,0-1.435,1.424,4.935,4.935,0,0,0-.269.634c-.127.368-.255.737-.347,1.115a6.809,6.809,0,0,0-.138.926c-.052.507-.122,1.015-.126,1.524a21.224,21.224,0,0,0,.189,3.288,6.421,6.421,0,0,0,.294,1.314,4.218,4.218,0,0,0,1.017,1.782,2.686,2.686,0,0,0,1.461.739,2.969,2.969,0,0,0,1.748-.2,2.71,2.71,0,0,0,1.137-.913,4.874,4.874,0,0,0,.787-1.716c.121-.516.241-1.035.311-1.56a14.946,14.946,0,0,0,.1-1.53c.013-.47.006-.942-.01-1.412-.013-.386-.04-.773-.084-1.157a7.434,7.434,0,0,0-.169-1c-.117-.461-.255-.918-.415-1.366a3.673,3.673,0,0,0-.6-1.056,2.739,2.739,0,0,0-1.071-.844A2.567,2.567,0,0,0,3920.714-658.474Z" transform="translate(-3900.397 659.055)" fill="#9f9f9f"/><path d="M4147.013-645.573a.922.922,0,0,0-.312-.645.807.807,0,0,0-.9-.032,5.838,5.838,0,0,0-.883.523,2.75,2.75,0,0,1-.966.413,3.681,3.681,0,0,1-1.568,0,4.056,4.056,0,0,1-1.31-.513,5.809,5.809,0,0,1-1.146-.909,7.144,7.144,0,0,1-1.091-1.458,8.349,8.349,0,0,1-.845-2.07,7.008,7.008,0,0,1-.25-1.823,9.526,9.526,0,0,1,.125-1.161,7.628,7.628,0,0,1,.867-2.552,6.656,6.656,0,0,1,1.267-1.69,7.742,7.742,0,0,1,.842-.651,4.082,4.082,0,0,1,1.506-.65,4.147,4.147,0,0,1,1.559-.095,5.458,5.458,0,0,1,1.482.577,1.071,1.071,0,0,0,.518.071.648.648,0,0,0,.607-.6h.282v4c-.005,0-.013.014-.021.016-.24.05-.275.023-.3-.229a4.882,4.882,0,0,0-.767-2.186,2.914,2.914,0,0,0-1.518-1.222,2.756,2.756,0,0,0-1.227-.08,2.832,2.832,0,0,0-1.26.458,3.023,3.023,0,0,0-.933.987,5.458,5.458,0,0,0-.535,1.215,11.376,11.376,0,0,0-.3,1.367,10.545,10.545,0,0,0-.126,1.672c0,.432-.038.864-.027,1.3.016.582.039,1.166.1,1.744a8.426,8.426,0,0,0,.266,1.407,4.738,4.738,0,0,0,.94,1.9,2.69,2.69,0,0,0,1.431.86,2.706,2.706,0,0,0,1.574-.069,2.466,2.466,0,0,0,1.149-.849,2.649,2.649,0,0,0,.563-1.536c.029-.823.021-1.647.027-2.471,0-.1-.051-.132-.147-.129-.319.01-.638.017-.957.016a.141.141,0,0,1-.1-.09,1.373,1.373,0,0,1,0-.251c.087-.006.168-.015.249-.016h3.281c.238,0,.236,0,.232.237,0,.095-.037.117-.121.116-.3,0-.607,0-.9,0v4.809C4147.366-645.531,4147.366-645.531,4147.013-645.573Z" transform="translate(-4102.482 659.147)" fill="#9f9f9f"/><path d="M3875.044-655.344c.013.335-.012.349-.324.326-.226-.017-.454,0-.674,0v12.347c.264,0,.537.006.811,0,.142,0,.222.029.193.19a.864.864,0,0,0,0,.152h-3.538c-.006-.007-.018-.015-.019-.023-.023-.3-.023-.3.288-.3h.722v-12.365c-.29,0-.581,0-.872,0-.155,0-.138-.1-.144-.2s.006-.142.138-.141c1.1.006,2.194,0,3.291-.005A.72.72,0,0,1,3875.044-655.344Z" transform="translate(-3860.703 655.914)" fill="#9f9f9f"/><path d="M4255.75-655.005c-.277,0-.546,0-.814,0-.182,0-.27-.133-.192-.293.012-.026.076-.037.115-.037q1.377-.007,2.753-.01c.18,0,.36.011.541,0,.127-.005.193.026.182.167-.01.118-.022.178-.182.16a4.735,4.735,0,0,0-.654.024,1.494,1.494,0,0,1-.219-.024v12.361c.274,0,.548,0,.823,0,.125,0,.226,0,.231.17.005.128-.043.177-.166.177l-3.38,0a.122.122,0,0,1-.031-.009c-.006-.009-.016-.017-.016-.026-.017-.3-.017-.3.282-.3.239,0,.477,0,.726,0Z" transform="translate(-4208.698 655.896)" fill="#9f9f9f"/></g></g></svg>