<svg xmlns="http://www.w3.org/2000/svg" width="28.306" height="59.036" viewBox="0 0 28.306 59.036"><g transform="translate(0)"><path d="M2636.057-1299.317a12.65,12.65,0,0,0-4.287-4.147c-.172.212-.348.41-.5.624-1.036,1.419-2.063,2.845-3.1,4.262a9.446,9.446,0,0,0-1.414,3.479q-.778,3.2-1.517,6.419a.731.731,0,0,0,.067.529c.371.518.782,1.006,1.235,1.578.2-.863.388-1.653.565-2.445.328-1.466.659-2.93.969-4.4a2.217,2.217,0,0,0-.175-1.572h3.547c-.1.442-.183.856-.281,1.266q-1.155,4.832-2.319,9.661a.741.741,0,0,0,.135.7c.6.76,1.174,1.534,1.763,2.3a8.95,8.95,0,0,1,2,4.457,6.83,6.83,0,0,1-.165,2.715,10.433,10.433,0,0,1-6.229,7.125,9.217,9.217,0,0,1-1.428.406.408.408,0,0,0-.359.354c-.5,2.1-1.016,4.2-1.526,6.294-.022.091-.043.183-.057.276-.142.976.239,1.508,1.223,1.5,1.756-.013,3.518-.033,5.265-.186,2.577-.226,5.148-.542,7.714-.879,1.057-.139,2.094-.432,3.2-.668a12.607,12.607,0,0,0-.754,1.367,1.655,1.655,0,0,1-1.844,1.085c-5.77-.053-11.54-.026-17.311-.026h-.489c1.071-2.895,1.4-5.917,2.157-8.833-.849-.161-1.63-.28-2.4-.461a14.968,14.968,0,0,1-6.5-3.468c-.1-.083-.206-.259-.178-.355.242-.847.514-1.686.794-2.583a14.013,14.013,0,0,0,5.5,5.208,8.543,8.543,0,0,0,2.926.825c.224-1.023.446-2.027.665-3.031q1.363-6.248,2.73-12.5a.956.956,0,0,0-.254-.955c-.372-.384-.718-.793-1.136-1.259-.085.372-.149.674-.222.974-.207.833-.4,1.671-.633,2.495a3.147,3.147,0,0,0,.192,2.258h-3.134c.006.021-.014-.016-.005-.027.79-.862.732-1.985.926-3.027.285-1.529.545-3.063.837-4.591a.867.867,0,0,0-.215-.807c-.853-.983-1.679-1.989-2.537-2.968-3.257-3.717-2.027-8.862.577-11.407a25.767,25.767,0,0,1,2.316-1.858c.163-.126.258-.21.208-.448-.664-3.176-1.3-6.358-1.98-9.53-.158-.74-.451-1.451-.7-2.245.293,0,.647,0,1,0a10.816,10.816,0,0,0,1.166-.031c.349-.042.48.067.565.412.852,3.421,1.723,6.838,2.59,10.256.029.116.067.23.1.344a18.027,18.027,0,0,1,2.2-.21c1.107.023,2.214.142,3.316.263a.468.468,0,0,0,.548-.223c2.285-3.49,4.59-6.967,6.86-10.467a1.318,1.318,0,0,1,1.375-.752,16.077,16.077,0,0,0,1.734.013c-.007.025,0,.071-.026.09a24.894,24.894,0,0,0-3.373,4.141c-1.788,2.4-3.549,4.818-5.32,7.229-.078.107-.151.218-.249.36.142.062.26.117.38.165a14.655,14.655,0,0,1,3.768,2.212.455.455,0,0,1,.17.354C2636.521-1300.915,2636.3-1300.158,2636.057-1299.317Zm-11.244,32.2a7.392,7.392,0,0,0,5.62-5.521,8.348,8.348,0,0,0-2.488-7.6C2626.9-1275.864,2625.864-1271.514,2624.813-1267.114Zm-2.009-35.437c.028-.007.01-.008,0,0-.134.131-.269.261-.4.4a6.778,6.778,0,0,0-1.763,7.207,11.885,11.885,0,0,0,2.153,3.512,1.55,1.55,0,0,1,.14.291A18.01,18.01,0,0,0,2622.8-1302.551Zm4.191,4.1.131,0,3.579-5.483a7.889,7.889,0,0,0-5.172-.144C2626.029-1302.172,2626.512-1300.312,2627-1298.451Z" transform="translate(-2613.061 1316.253)" fill="#9f9f9f"/></g></svg>