<svg xmlns="http://www.w3.org/2000/svg" width="131.191" height="19.681" viewBox="0 0 131.191 19.681"><g transform="translate(0)"><g transform="translate(0 0)"><path d="M2235.439-921.7v13.53h-.182c-.961,0-1.923,0-2.884,0-.148,0-.2-.032-.2-.191q.007-9.322,0-18.643c0-.051.005-.1.009-.171h.177c1.445,0,2.89,0,4.335,0a.217.217,0,0,1,.245.172q1.085,2.934,2.183,5.864.847,2.267,1.7,4.534c.2.529.4,1.056.61,1.618.079-.193.149-.358.213-.526q1.035-2.705,2.067-5.411,1.1-2.866,2.2-5.729c.05-.129.107-.256.147-.388a.164.164,0,0,1,.186-.133q2.22,0,4.439,0c.028,0,.056,0,.1.006v18.983h-3.227V-921.71l-.038-.013c-.033.078-.067.156-.1.236q-1.032,2.7-2.062,5.394-.758,1.986-1.514,3.973-.732,1.922-1.462,3.845a.147.147,0,0,1-.163.113c-.527,0-1.054,0-1.581,0a.155.155,0,0,1-.172-.123q-.726-1.97-1.46-3.938-1.036-2.778-2.075-5.555-.713-1.911-1.422-3.824a.935.935,0,0,0-.049-.1Z" transform="translate(-2195.719 927.516)" fill="#9f9f9f"/><path d="M3407.414-927.275a10.323,10.323,0,0,1-.8,4.018,9.209,9.209,0,0,1-2.308,3.293,9.461,9.461,0,0,1-4.866,2.365,10.522,10.522,0,0,1-5.558-.465,9.357,9.357,0,0,1-4.88-4.039,9.69,9.69,0,0,1-1.355-4.215,10.182,10.182,0,0,1,.606-4.554,9.528,9.528,0,0,1,1.876-3.065,9.491,9.491,0,0,1,3.068-2.247,9.762,9.762,0,0,1,2.953-.834,10.733,10.733,0,0,1,5.047.554,9.293,9.293,0,0,1,3.266,2.039,9.33,9.33,0,0,1,2.057,2.929,9.708,9.708,0,0,1,.837,3.306C3407.385-927.886,3407.4-927.581,3407.414-927.275Zm-9.89,6.763a6.258,6.258,0,0,0,2.37-.435,5.987,5.987,0,0,0,3.152-2.833,7.338,7.338,0,0,0,.817-3.984,7.044,7.044,0,0,0-1.088-3.427,5.962,5.962,0,0,0-2.783-2.355,6.436,6.436,0,0,0-2.807-.474,6.249,6.249,0,0,0-2.823.79,6.084,6.084,0,0,0-2.735,3.22,7.466,7.466,0,0,0-.349,4.223,6.562,6.562,0,0,0,1.844,3.483A6.094,6.094,0,0,0,3397.525-920.512Z" transform="translate(-3310.998 937.105)" fill="#9f9f9f"/><path d="M1644.949-927.256a10.338,10.338,0,0,1-1.076,4.6,9.214,9.214,0,0,1-3.624,3.881,9.877,9.877,0,0,1-4.02,1.3,10.593,10.593,0,0,1-4.612-.494,9.476,9.476,0,0,1-3.558-2.175,9.371,9.371,0,0,1-2.016-2.834,9.926,9.926,0,0,1-.9-3.57,10.213,10.213,0,0,1,.572-4.156,9.412,9.412,0,0,1,3.655-4.706,9.647,9.647,0,0,1,4.208-1.575,10.713,10.713,0,0,1,4.92.462,9.189,9.189,0,0,1,4.789,3.669,9.628,9.628,0,0,1,1.572,4.389C1644.9-928.063,1644.92-927.658,1644.949-927.256Zm-3.551,0c0-.035-.006-.092-.007-.149a7.066,7.066,0,0,0-1.055-3.7,5.97,5.97,0,0,0-2.441-2.245,6.342,6.342,0,0,0-3.163-.649,6.249,6.249,0,0,0-2.977.861,6.11,6.11,0,0,0-2.526,2.924,7.409,7.409,0,0,0-.58,3.091,7.176,7.176,0,0,0,1.022,3.673,5.947,5.947,0,0,0,2.776,2.441,6.489,6.489,0,0,0,3.885.4,5.875,5.875,0,0,0,3.742-2.365A7.024,7.024,0,0,0,1641.4-927.26Z" transform="translate(-1609.763 937.086)" fill="#9f9f9f"/><path d="M3995.289-927.113h.158c2.832,0,5.664-.007,8.5.007a8.487,8.487,0,0,1,3.329.632,4.759,4.759,0,0,1,2.979,3.608,6.875,6.875,0,0,1-.184,3.508,4.637,4.637,0,0,1-2.019,2.574,5.962,5.962,0,0,1-1.7.717c-.037.01-.073.025-.133.045l5.08,7.9h-.92c-.958,0-1.916,0-2.873-.007a.238.238,0,0,1-.171-.09q-1.466-2.274-2.923-4.555-.821-1.281-1.647-2.56a.247.247,0,0,0-.174-.1c-1.315-.006-2.629,0-3.944,0-.028,0-.056,0-.11.009v.221q0,3.44,0,6.88c0,.169-.031.228-.217.226-.95-.01-1.9,0-2.85,0h-.185Zm3.259,3.032c-.005.055-.011.095-.011.134q0,2.666,0,5.333c0,.127.042.144.161.144,1.5-.008,3-.006,4.5-.012a5.577,5.577,0,0,0,2.111-.4,2.619,2.619,0,0,0,1.692-2.588,2.276,2.276,0,0,0-1.713-2.306,7.362,7.362,0,0,0-2.252-.3c-.768-.012-1.536,0-2.3,0Z" transform="translate(-3897.56 927.462)" fill="#9f9f9f"/><path d="M4467.272-927.126h.341c2.294,0,4.589-.006,6.884,0a11.118,11.118,0,0,1,4.434.889,8.618,8.618,0,0,1,4.186,3.714,9.339,9.339,0,0,1,1.145,3.638,10.645,10.645,0,0,1-.25,3.834,8.735,8.735,0,0,1-3.2,4.908,9.613,9.613,0,0,1-3.867,1.738,14.054,14.054,0,0,1-2.975.277q-3.232,0-6.464,0c-.231,0-.231,0-.231-.221v-18.782Zm3.254,15.938a.669.669,0,0,0,.086.013c1.427-.007,2.854,0,4.28-.028a6.288,6.288,0,0,0,2.712-.694,5.505,5.505,0,0,0,2.5-2.5,7.02,7.02,0,0,0,.707-3.061,7.466,7.466,0,0,0-.306-2.309,5.82,5.82,0,0,0-1.912-2.923,6.663,6.663,0,0,0-4.323-1.4c-.928,0-1.855,0-2.782,0h-.96Z" transform="translate(-4353.141 927.475)" fill="#9f9f9f"/><path d="M2978.677-923.657c0,.6,0,1.176,0,1.748,0,1.225,0,2.451,0,3.676,0,.141.021.193.187.193q4.86-.008,9.722,0h.113v3.032h-10.01v7.316h-3.263v-18.976h14.052v3.012Z" transform="translate(-2913.137 927.032)" fill="#9f9f9f"/><path d="M1189.678-923.749h-6.5v-3.021h16.133v3.018h-6.371V-907.8c-.079.007-.145.017-.211.017-.944,0-1.888,0-2.832.005-.178,0-.221-.047-.221-.222q.007-7.749,0-15.5Z" transform="translate(-1183.176 927.129)" fill="#9f9f9f"/></g></g></svg>