<svg xmlns="http://www.w3.org/2000/svg" width="215.272" height="12.292" viewBox="0 0 215.272 12.292"><g transform="translate(0 0)"><g transform="translate(0 0)"><path d="M-1042.086-1216.1h-4.068v-1.569h9.779v1.569h-4.029v10.339h-1.683Z" transform="translate(1046.154 1217.898)" fill="#9f9f9f"/><path d="M228.59-1205.811h-1.708v-6.281l-4.431-5.636h2.043l3.242,4.087,3.148-4.087h2.143l-4.438,5.636Z" transform="translate(-147.838 1217.95)" fill="#9f9f9f"/><path d="M-74.141-1217.673l-3.727,4.833-3.727-4.833h-1.693v11.913h1.693v-9.161l3.514,4.424a.275.275,0,0,0,.424,0l3.515-4.424v9.161h1.693v-11.913Z" transform="translate(139.918 1217.898)" fill="#9f9f9f"/><path d="M-419.141-1217.673l-3.726,4.833-3.727-4.833h-1.693v11.913h1.693v-9.161l3.515,4.424a.275.275,0,0,0,.424,0l3.514-4.424v9.161h1.693v-11.913Z" transform="translate(464.627 1217.898)" fill="#9f9f9f"/><path d="M-770.266-1221.5a6.191,6.191,0,0,0-6.234,6.146,6.191,6.191,0,0,0,6.234,6.146,6.191,6.191,0,0,0,6.235-6.146A6.191,6.191,0,0,0-770.266-1221.5Zm0,10.727a4.614,4.614,0,0,1-4.646-4.581,4.614,4.614,0,0,1,4.646-4.581,4.614,4.614,0,0,1,4.646,4.581A4.614,4.614,0,0,1-770.266-1210.773Z" transform="translate(792.36 1221.5)" fill="#9f9f9f"/></g><g transform="translate(120.444 0.048)"><path d="M1965.71-1217.96s-.536-.208-.772-.316a8.124,8.124,0,0,0-3.528-.821,4.619,4.619,0,0,0-2.261.647,4.092,4.092,0,0,0-1.631,1.69,4.818,4.818,0,0,0-.338,3.66,4.054,4.054,0,0,0,1.307,2,4.551,4.551,0,0,0,2.259,1.01,6.659,6.659,0,0,0,3.321-.356,1.212,1.212,0,0,0,.146-.074v-2.382H1962v-1.558h3.923v5.048a9.4,9.4,0,0,1-2.162.749,11.914,11.914,0,0,1-2.606.223,6.018,6.018,0,0,1-3.847-1.4,5.747,5.747,0,0,1-2.109-4.453,6.2,6.2,0,0,1,.318-2.229,6.141,6.141,0,0,1,2.282-3.025,6.586,6.586,0,0,1,3.7-1.135,7.247,7.247,0,0,1,2.385.356c.491.154,1.824.74,1.824.74Z" transform="translate(-1899.118 1220.683)" fill="#9f9f9f"/><path d="M1003.346-1212.724h6.613v-5.162h1.609l.023,11.889h-1.632v-5.127h-6.613V-1206h-1.661v-11.889h1.661Z" transform="translate(-1001.685 1218.051)" fill="#9f9f9f"/><path d="M2461.711-1211.2v5.127h-1.667v-11.865c.121-.008.237-.023.352-.023.916,0,1.833-.013,2.749,0a4.888,4.888,0,0,1,1.856.374,3.166,3.166,0,0,1,1.834,3.56,2.99,2.99,0,0,1-1.682,2.227l-.191.095a.677.677,0,0,0,.111.138,6.66,6.66,0,0,1,1.853,2.2c.616,1.005,1.24,2.005,1.934,2.957.068.093.127.193.239.365h-.683c-.346,0-.691-.011-1.036,0a.467.467,0,0,1-.475-.264q-.81-1.321-1.663-2.613a8.567,8.567,0,0,0-1.332-1.67,2.1,2.1,0,0,0-1.5-.611C2462.2-1211.195,2461.986-1211.2,2461.711-1211.2Zm.021-1.576a5.966,5.966,0,0,0,2.035-.092,1.6,1.6,0,0,0,1.257-1.231,3.644,3.644,0,0,0,.04-.752,1.469,1.469,0,0,0-1.04-1.442,6.355,6.355,0,0,0-2.292-.182Z" transform="translate(-2374.271 1218.124)" fill="#9f9f9f"/><path d="M2246.046-1217.572h6.652v1.53l-4.965.013v3.585l4.783.008v1.5l-4.783.025v3.675h5.126v1.5l-6.813.021Z" transform="translate(-2172.86 1217.755)" fill="#9f9f9f"/><path d="M1640.453-1212.439v1.579h-4.575l-.008,5.472H1634.2v-11.82l6.256-.026v1.5l-4.575.014v3.27Z" transform="translate(-1596.996 1217.437)" fill="#9f9f9f"/><path d="M1432.788-1217.495h1.675v10.329l5.235.008v1.531h-6.91Z" transform="translate(-1407.432 1217.682)" fill="#9f9f9f"/><path d="M1289.615-1205.576h-1.657v-11.87h1.657Z" transform="translate(-1271.121 1217.636)" fill="#9f9f9f"/><path d="M1841.615-1205.576h-1.657v-11.87h1.657Z" transform="translate(-1790.654 1217.636)" fill="#9f9f9f"/></g><rect width="18.115" height="2.882" transform="translate(92.995 0.089)" fill="#9f9f9f"/><rect width="18.115" height="2.882" transform="translate(92.995 9.322)" fill="#9f9f9f"/><rect width="8.881" height="5.646" transform="translate(92.995 3.323)" fill="#9f9f9f"/><rect width="8.881" height="5.646" transform="translate(111.11 8.969) rotate(180)" fill="#9f9f9f" opacity="0.7"/></g></svg>