<svg xmlns="http://www.w3.org/2000/svg" width="125.318" height="50.461" viewBox="0 0 125.318 50.461"><g transform="translate(0 0)"><g transform="translate(0 0)"><path d="M-3107-2909.062a5.957,5.957,0,0,1,3.338-4.885,14.544,14.544,0,0,1,3.035-1.2,16.631,16.631,0,0,1,8.981-.21,11.593,11.593,0,0,1,1.935.8.817.817,0,0,0,.906.007c.58-.354,1.188-.663,1.794-.973a6.005,6.005,0,0,1,.747-.257v5.411c-.426.223-.52-.1-.656-.411a7.916,7.916,0,0,0-9.352-4.12,6.261,6.261,0,0,0-4.052,7.319,5.9,5.9,0,0,0,6.176,5.1,7.746,7.746,0,0,0,7.368-4.625c.077-.158.276-.258.551-.5v5.615a5.084,5.084,0,0,1-.8-.24c-.666-.327-1.3-.92-1.977-.962-.625-.039-1.28.514-1.934.778a10.456,10.456,0,0,1-4.2.585,20.64,20.64,0,0,1-7.638-1.294,6.087,6.087,0,0,1-4.042-4.409c-.073-.341-.123-.687-.183-1.03Z" transform="translate(3107 2941.37)" fill="#9f9f9f"/><path d="M-516.874-4078a5.633,5.633,0,0,1,2.7,2.6,3.422,3.422,0,0,0,1.909,1.8,3.165,3.165,0,0,1,1.245.931l-1.838-.989-.124.123,1.867,2.91c-.712.1-.762.056-.757-.588,0-.021,0-.047-.007-.06-.767-.926-.97-2.287-2.23-2.837a19.246,19.246,0,0,1-2.5-1.2,4.109,4.109,0,0,1-1.186-1.287.95.95,0,0,1,.3-1.4Zm2.849,3.65.186-.189c-.6-.775-1.176-1.579-1.826-2.314a3.35,3.35,0,0,0-1.114-.748.8.8,0,0,0-.725.066.762.762,0,0,0-.059.726,3.434,3.434,0,0,0,.972,1.151C-515.777-4075.151-514.884-4074.778-514.024-4074.35Z" transform="translate(574.754 4078)" fill="#9f9f9f"/><path d="M1494.69-2896.187H1486.2v6.173h2.1c.01.231.018.4.028.611h-10.239c-.014-.172-.028-.342-.048-.585h2.165V-2902.4c-.579,0-1.151-.016-1.722,0-.418.016-.5-.175-.4-.564h10.192c.129.382.048.574-.372.563-.553-.015-1.107,0-1.7,0v5.458h8.486v-5.425h-2.121c-.015-.235-.026-.4-.039-.6h10.223c.1.357.1.593-.383.573-.554-.021-1.11,0-1.709,0v12.384h2.1l.054.613h-10.26v-.6h2.141Z" transform="translate(-1377.491 2928.741)" fill="#9f9f9f"/><path d="M-1987.188-2915.763a19.884,19.884,0,0,1,9.836,2.25,5.291,5.291,0,0,1,2.853,6.061,5.375,5.375,0,0,1-2.63,3.441,16.716,16.716,0,0,1-6.713,2.18,20.29,20.29,0,0,1-11.129-1.533,8.823,8.823,0,0,1-2.182-1.38,5.209,5.209,0,0,1,.653-8.461,15.506,15.506,0,0,1,6.419-2.276C-1988.961-2915.645-1987.826-2915.7-1987.188-2915.763Zm.688,13.434c.553-.058,1.109-.093,1.658-.177a4.919,4.919,0,0,0,4.426-4.188,10.582,10.582,0,0,0,.2-2.453c-.111-2.491-1.08-4.532-3.545-5.447-2.6-.966-5.121-.817-7.263,1.2a6.016,6.016,0,0,0-1.748,4.423C-1992.913-2904.277-1989.634-2902.313-1986.5-2902.329Z" transform="translate(2023.319 2941.25)" fill="#9f9f9f"/><path d="M383.376-2915.341v5.4c-.434.224-.511-.092-.642-.38a7.931,7.931,0,0,0-9.23-4.192,6.442,6.442,0,0,0-3.686,8.994,6.09,6.09,0,0,0,6.824,3.413,7.769,7.769,0,0,0,6.213-4.539c.067-.138.243-.223.369-.333.082.116.234.231.235.347.016,1.646.011,3.294.011,5.08a5.047,5.047,0,0,1-.848-.235c-.611-.3-1.2-.645-1.81-.942a.671.671,0,0,0-.546-.034,9.576,9.576,0,0,1-5.682,1.372,21.876,21.876,0,0,1-7.418-1.177,6.57,6.57,0,0,1-3.981-3.4,5.635,5.635,0,0,1,2.115-7.126,13.078,13.078,0,0,1,5.469-2.015,15.489,15.489,0,0,1,7.65.313c.543.184,1.043.494,1.583.687a1.141,1.141,0,0,0,.776,0c.637-.289,1.236-.661,1.859-.981A5.414,5.414,0,0,1,383.376-2915.341Z" transform="translate(-286.577 2940.936)" fill="#9f9f9f"/><path d="M-890.7-2902.7v.593h-12.828v-.582h2.769c-.3-.35-.5-.593-.712-.825-.626-.685-1.242-1.381-1.9-2.037a1.165,1.165,0,0,0-.73-.332c-2.932-.022-5.864-.018-8.8-.008a.811.811,0,0,0-.554.167c-.818.948-1.606,1.922-2.493,3h2.853l.063.625h-6.2c-.011-.171-.022-.343-.036-.548a1.675,1.675,0,0,1,.45-.044c1.508.3,2.415-.419,3.322-1.576,2.967-3.779,6.056-7.463,9.1-11.183.539-.659.586-.661,1.167-.028q5.665,6.179,11.323,12.366a1.126,1.126,0,0,0,.959.424C-892.22-2902.727-891.5-2902.7-890.7-2902.7Zm-18.185-8.756-3.939,4.882h8.478Z" transform="translate(967.236 2941.44)" fill="#9f9f9f"/><path d="M-703.573-3933.473l-3.281-3,.112-.159a3.437,3.437,0,0,1,.873.238c.583.339.89.027,1.149-.417a4.589,4.589,0,0,0,.479-1,1.443,1.443,0,0,1,1.363-1.047,3.959,3.959,0,0,0,1.13-.384c-.488,0-.711-.16-.544-.689a2.12,2.12,0,0,1,.459-.055c.7.061,1.07-.292,1.01-.948-.051-.554.2-1.122-.168-1.68a3.462,3.462,0,0,1-.222-1.2,3.187,3.187,0,0,1,.853.016,5,5,0,0,1,.93.455c-.181.3-.3.758-.557.868-.533.225-.59.605-.661,1.236l1.073-1.2a11,11,0,0,1,.27,1.4,16.834,16.834,0,0,1,0,2.224,3.177,3.177,0,0,1-.4.927l.462.038.279,1.158.3-.029c.231-1.894.067-3.795.118-5.8a43.052,43.052,0,0,1,11.815.011c0,.674,0,1.274.012,1.872a1.921,1.921,0,0,0,.325.052l-.1-.993.831-.4.766.428c-.141.971.209,2.136-.783,3.015-.284-.433-.807-.767-.7-1.439.011-.071-.127-.165-.2-.247-.088.086-.249.171-.251.258-.016.845-.027,1.692.008,2.536.017.424.328.6.736.568.514-.038,1.027-.1,1.541-.137.229-.017.46,0,.69,0l.009.184c-.308.032-.618.056-.925.1a5.249,5.249,0,0,0-4.291,3.811,1.22,1.22,0,0,1-.965.889c-.621.136-1.238.292-1.909.452v.99l1.241.079.071.212c-.193.1-.38.282-.579.3-2.5.165-3.238.069-3.492-.489l1.146-.1a2.056,2.056,0,0,0,.055-.662c-.041-.164-.223-.4-.366-.417a9.987,9.987,0,0,1-3.973-1.468,5.676,5.676,0,0,0-4.434-.478c-.641.15-1.272.355-1.9.568a9.779,9.779,0,0,1-5.553.183,2.964,2.964,0,0,0-.3-.063,1.52,1.52,0,0,0-.307.086c.5.482.946.885,1.356,1.32a1.321,1.321,0,0,1,.4.673c.094.981.146,1.968.161,2.955,0,.2-.216.407-.442.559v.735l-1.134-.074a2.636,2.636,0,0,1,.311-.582,2.522,2.522,0,0,0,.609-2.059,1.993,1.993,0,0,0-.963-1.752,24.222,24.222,0,0,1-2.221-1.565,4.685,4.685,0,0,1-1.487-2.29,13.177,13.177,0,0,0,7.41,1.979A21.964,21.964,0,0,0-703.573-3933.473Zm8.435-3.293h-3.135a4.027,4.027,0,0,0,2.248,4.078,7.416,7.416,0,0,0,6,.19.857.857,0,0,0,.4-.484,7.6,7.6,0,0,1,1.94-2.9c.236-.217.488-.417.884-.753-1.275-.443-2.461-.085-3.655-.291v-5.117h-4.683v5.279Zm-9.845,1.727c.908,1.039,1.492,1.177,2.113.532.427-.444.1-1.25-.819-1.994Zm7.381-6.63c.265,1.076-.1,2.124.751,2.839.867-.743.451-1.787.706-2.839Zm-3.933,3.9c-.4,0-.785-.027-1.167.008-.32.03-.414.324-.151.445.627.288.67.87.859,1.388.114.312.217.628.326.942l.133-.026Zm15.368-3.324c.034.531.041,1,.108,1.46.017.117.211.252.348.288.062.016.252-.183.264-.3.052-.477.058-.958.081-1.451Zm-7.049,9.622c.017.349.034.68.05,1.014h.714l.117-1.014Z" transform="translate(766.203 3946.781)" fill="#9f9f9f"/><path d="M424.338-3587.366a4.837,4.837,0,0,1,4.878,4.914,4.882,4.882,0,0,1-4.954,4.921,4.91,4.91,0,0,1-4.894-4.934A4.886,4.886,0,0,1,424.338-3587.366Zm.191,4.194.145.046,2.491-2.611a4.009,4.009,0,0,0-2.636-1.053Zm4.161,1h-3.744l2.725,2.523A4.3,4.3,0,0,0,428.69-3582.172Zm-7.67-3.114a3.228,3.228,0,0,0-.977,2.571h3.63Zm3.037,2.238v-3.946l-2.568,1.116Zm4.6.4a3.6,3.6,0,0,0-.918-2.45l-2.578,2.45Zm-4.129.866v3.716a4.07,4.07,0,0,0,2.508-1.019Zm-3.589,2.141,2.641-2.534H419.97A4.18,4.18,0,0,0,420.942-3579.641Zm3.083-1.97-.174-.094-2.344,2.6a4.069,4.069,0,0,0,2.518.98Z" transform="translate(-342.039 3598.125)" fill="#9f9f9f"/><path d="M-1204.022-3662.874a1.888,1.888,0,0,1,.262-.466,2.947,2.947,0,0,0,.567-2.892c-.13-.766-.3-1.526-.407-2.3-.018-.133.187-.325.327-.444.348-.294.737-.552.6-1.184a6.445,6.445,0,0,1-3.251,1.919,1.042,1.042,0,0,0-.79,1.16c.078.735.255,1.459.381,2.139.949.114,1.079.436.612,1.347-.648-.661-1.521-1.071-1.523-2.181a8.4,8.4,0,0,0-.195-1.593,1.211,1.211,0,0,1,.527-1.334c.383-.278.739-.594,1.111-.888a.611.611,0,0,0,.206-.853c-.45-.958-.4-.926.467-1.467,1.066-.663,2.108-1.372,3.108-2.129a.843.843,0,0,1,.958-.078c.134.062.151.412.192.636.1.537-.105.815-.647,1.041a16.213,16.213,0,0,0-2.031,1.189l.081.131c.543-.268,1.071-.571,1.631-.8.895-.361,1.482,0,1.574.977.054.567.01,1.144.01,1.821l-1.9-.168a17.767,17.767,0,0,0-.263,1.912c-.039,1.121.044,2.247-.016,3.366a1.677,1.677,0,0,1-.533,1.015c-.219.2-.625.207-.948.3Z" transform="translate(1249.133 3683.084)" fill="#9f9f9f"/><path d="M-270.164-3457.529a3.475,3.475,0,0,1,3.484,3.506,3.483,3.483,0,0,1-3.515,3.48,3.537,3.537,0,0,1-3.505-3.518A3.494,3.494,0,0,1-270.164-3457.529Zm.218.4v2.531l1.821-1.735Zm-2.522,5.108,1.732-1.839h-2.5Zm2.827-1.846,1.821,1.7.7-1.7Zm1.855-2.046-1.89,1.637h2.545Zm-2.193,2.384v2.487l1.793-.781Zm-.423,2.5v-2.485l-1.75,1.739Zm-1.752-5.276,1.774,1.677v-2.5Zm1.453,1.983-1.829-1.663-.673,1.663Z" transform="translate(335.832 3471.135)" fill="#9f9f9f"/><path d="M-737.189-3678.589c-1.2-.562-2.355-1.091-3.495-1.651a.822.822,0,0,1-.328-.473,3.637,3.637,0,0,1-.141-.849c-.1-1.585-.258-1.44,1.393-1.447,1.791-.006,2.775.728,3.114,2.213A2.872,2.872,0,0,1-737.189-3678.589Z" transform="translate(793.09 3691.67)" fill="#9f9f9f"/><path d="M-1182.591-3881.731l-1.255.8,1.394-3.1a3.018,3.018,0,0,1,2.054,1.9c.353.844.752,1.668,1.191,2.632l-3.433,2.285C-1182.4-3878.848-1181.873-3880.286-1182.591-3881.731Z" transform="translate(1226.019 3888.287)" fill="#9f9f9f"/><path d="M-743.636-1982.374c.539-.182.783-.006.949.451.341.94.735,1.86,1.161,2.923.482-1.092.888-2.048,1.332-2.987.088-.185.315-.418.481-.421s.4.227.488.41c.445.945.852,1.908,1.327,2.992.418-1.03.819-1.923,1.139-2.844.177-.508.427-.713,1.016-.526-.585,1.38-1.153,2.761-1.761,4.124-.166.372-.647.291-.845-.131-.341-.726-.657-1.463-.988-2.193-.1-.22-.211-.434-.382-.782-.44,1-.811,1.9-1.231,2.775-.1.217-.362.493-.553.5s-.444-.283-.54-.5C-742.59-1979.825-743.1-1981.082-743.636-1982.374Z" transform="translate(795.462 2028.398)" fill="#9f9f9f"/><path d="M-990.758-1975.943c-.134.137-.266.389-.4.392-1.339.03-2.678.018-4.065.018v-4.339h4.352l.043.622h-3.721v1.146h3.418v.662h-3.422v1.294h3.643Z" transform="translate(1041.535 2025.882)" fill="#9f9f9f"/><path d="M293.618-1981.393v1.418h-.652v-4.4c1.216.055,2.424.058,3.618.185a1.143,1.143,0,0,1,1.008,1.1,1.24,1.24,0,0,1-.735,1.362c-.1.05-.2.11-.361.195l1.226,1.523a.844.844,0,0,1-1.148-.373c-.629-1.18-1.673-1.287-2.83-1.118C293.727-1981.5,293.713-1981.476,293.618-1981.393Zm.044-.739c.873,0,1.678.024,2.48-.01a.7.7,0,0,0,.745-.743.689.689,0,0,0-.749-.732c-.816-.028-1.634-.008-2.475-.008Z" transform="translate(-218.408 2030.287)" fill="#9f9f9f"/><path d="M-33.521-1978.932a3.327,3.327,0,0,1-2.286-.786,1.835,1.835,0,0,1-.083-2.823,3.643,3.643,0,0,1,4.751-.011,1.881,1.881,0,0,1-.047,2.8A3.34,3.34,0,0,1-33.521-1978.932Zm-.012-.651.079.154a10.181,10.181,0,0,0,1.721-.842,1.126,1.126,0,0,0,.1-1.741,2.745,2.745,0,0,0-3.789.029,1.15,1.15,0,0,0,.049,1.662A2.533,2.533,0,0,0-33.533-1979.583Z" transform="translate(103.845 2029.36)" fill="#9f9f9f"/><path d="M-1308.36-1988.8a5.059,5.059,0,0,1,.943.513c1.073.96,2.121,1.949,3.32,3.061,0-1.076.015-1.99-.006-2.9-.01-.438.128-.627.63-.481v4.457a4.052,4.052,0,0,1-.969-.456c-1.047-.929-2.059-1.9-3.206-2.962v3.266h-.712Z" transform="translate(1347.802 2034.615)" fill="#9f9f9f"/><path d="M-1354.425-3615a7.826,7.826,0,0,1,.425-3.308,1.806,1.806,0,0,1,1.565-1.6,2.777,2.777,0,0,0,.633-.243c.962-.421.966-.425.559-1.4a.918.918,0,0,1,.2-1.129,5.8,5.8,0,0,1,1.137-.892,7.3,7.3,0,0,0-.188.986,5.108,5.108,0,0,0,.026,1.584.888.888,0,0,1-.273,1,2.775,2.775,0,0,1-1.965.994,1.146,1.146,0,0,0-.756.516,3.887,3.887,0,0,0-.61,2.565C-1353.612-3615.326-1353.759-3615.156-1354.425-3615Z" transform="translate(1392.919 3633.539)" fill="#9f9f9f"/><path d="M573.7-1983.84h.584v2.118c1.608-.567,2.626-2.183,4.409-2.181l.092.15-2.463,1.684,2.322,2.522a1.064,1.064,0,0,1-1.26-.342c-.515-.613-1.095-1.172-1.672-1.78-.911.419-1.761.857-1.362,2.151h-.65Z" transform="translate(-492.982 2029.825)" fill="#9f9f9f"/><path d="M-802.029-3450.086c-.018-1.029-.246-2.034.772-2.706a1.606,1.606,0,0,0,.182-.167c1.031-.932,1.009-.917.245-2.111a2.938,2.938,0,0,1-.2-1.04,3.456,3.456,0,0,1,1.1,0,.616.616,0,0,1,.416.919,1.069,1.069,0,0,0,.1.875c.334.494.116.692-.276.975a3.316,3.316,0,0,0-1.535,1.7.709.709,0,0,0-.023.384C-801.061-3450.689-801.273-3450.31-802.029-3450.086Z" transform="translate(852.608 3469.796)" fill="#9f9f9f"/><path d="M-854.528-3576.518l-3.1.878c.039-.93-.2-1.828.39-2.642.182-.249.3-.358.635-.261C-855.458-3578.209-855.288-3578.062-854.528-3576.518Z" transform="translate(906.975 3589.531)" fill="#9f9f9f"/><path d="M-574.9-3686.109a1.833,1.833,0,0,1,2.691.285,7.446,7.446,0,0,1,1.508,2.975l-1.549.55C-572.327-3684.125-572.5-3685.889-574.9-3686.109Z" transform="translate(630.428 3695.154)" fill="#9f9f9f"/><path d="M-281.279-1982.332a1,1,0,0,1,1.247.4c.424.554.906,1.064,1.406,1.644.487-.579.965-1.11,1.4-1.675a.932.932,0,0,1,1.2-.36c-.507.6-.956,1.2-1.486,1.728a2.306,2.306,0,0,0-.792,2.139,1.726,1.726,0,0,1-.019.373c-.462.171-.709.045-.629-.448a2.27,2.27,0,0,0-.8-2.077C-280.285-1981.13-280.743-1981.718-281.279-1982.332Z" transform="translate(343.244 2028.362)" fill="#9f9f9f"/><path d="M-1155.759-3919.182a1.728,1.728,0,0,1-1.263-1.182c-.249-.562-.444-1.149-.7-1.709a2.781,2.781,0,0,0-2.816-1.8,1.8,1.8,0,0,1-.439-.093c0-.061-.009-.122-.014-.182a5.338,5.338,0,0,1,.842-.2,3.07,3.07,0,0,1,3.223,1.9c.235.521.381,1.082.572,1.624S-1155.969-3919.765-1155.759-3919.182Z" transform="translate(1203.664 3927.734)" fill="#9f9f9f"/><path d="M-857.082-3437.631c.46.714.239,1.19-.565,1.336-.02-.951-.2-1.86.76-2.582s.909-.8.254-1.79a5.187,5.187,0,0,1-.321-.688l.747-.266c.319.533.611,1.042.926,1.537a.467.467,0,0,1-.138.734,3.315,3.315,0,0,0-.591.442C-856.392-3438.488-856.742-3438.04-857.082-3437.631Z" transform="translate(906.999 3455.575)" fill="#9f9f9f"/><path d="M-670.761-3408.808c.613.365,1.2.7,1.767,1.063a.834.834,0,0,1,.35.44c.16.654.256,1.323.413,1.978.078.328.131.6-.238.783-.087.044-.193.222-.167.294.325.89-.383.627-.777.7a1.409,1.409,0,0,1-.348-.034,3.725,3.725,0,0,1,.213-.456,2.639,2.639,0,0,0-.962-3.953C-670.908-3408.226-671-3408.438-670.761-3408.808Z" transform="translate(724.314 3423.482)" fill="#9f9f9f"/><path d="M-1122.7-3419.878c.038.616.072,1.126.1,1.637.038.676.067,1.354.107,2.03.022.372.226.8-.328.979-.047.016-.088.088-.109.143-.311.809-.4.852-1.307.551.218-.246.371-.537.611-.664a1.168,1.168,0,0,0,.614-1.358,15.188,15.188,0,0,0-.653-2.023c-.078-.226-.2-.439-.306-.683Z" transform="translate(1167.713 3434.31)" fill="#9f9f9f"/><path d="M-1216.752-3747.157c.571,1.733-.45,2.522-1.707,3.387.213-.639.367-1.132.542-1.617a6.164,6.164,0,0,1,.471-1.126A3.558,3.558,0,0,1-1216.752-3747.157Z" transform="translate(1259.873 3754.412)" fill="#9f9f9f"/><path d="M-543.741-3641.3l-1.119-.128a2.968,2.968,0,0,0-.224-3.727C-543.818-3644.969-543.4-3643.249-543.741-3641.3Z" transform="translate(601.265 3654.642)" fill="#9f9f9f"/><path d="M-829.181-3672.823l1.394-.165c.085.715.164,1.381.25,2.108-.491-.176-.949-.321-1.389-.509a.5.5,0,0,1-.242-.354C-829.2-3672.087-829.181-3672.435-829.181-3672.823Z" transform="translate(879.138 3681.87)" fill="#9f9f9f"/><path d="M-1253.511-3853.246l-.515-.236c-.147.393-.769.744.059,1.179l-.775,1.011-.609-.451c.253-.652.459-1.272.732-1.863.252-.546.675-.165,1.016-.094.1.021.156.229.232.352Z" transform="translate(1295.956 3858.81)" fill="#9f9f9f"/><path d="M-1294.093-3890.951l-.833,1.888-.789-1.412Z" transform="translate(1335.434 3895.053)" fill="#9f9f9f"/><path d="M-1336.8-3796.107l-.641.263.551,1.985c-.2-.105-.371-.138-.423-.235a15.247,15.247,0,0,1-.646-1.383c-.139-.344-.124-.658.365-.709.254-.027.506-.068.76-.1Z" transform="translate(1376.824 3802.468)" fill="#9f9f9f"/><path d="M-883.185-3663.361l-.663.059v-1.312h.663Z" transform="translate(932.599 3673.679)" fill="#9f9f9f"/><path d="M-1301.463-3666.4l1.305-.138c-.122.519-.353.86-.876.746-.2-.044-.358-.292-.535-.447Z" transform="translate(1341.16 3675.559)" fill="#9f9f9f"/><path d="M-1203.232-3910.2c.429.3,1.235.279.876,1.123l-.747-.206Z" transform="translate(1244.98 3913.877)" fill="#9f9f9f"/><path d="M-1277.359-3737.362l1.054.706v.157c-.288.022-.658.164-.844.036-.221-.15-.284-.531-.415-.812Z" transform="translate(1317.681 3744.832)" fill="#9f9f9f"/><path d="M-1324.991-3875.839v-1.47l.876,1.258Z" transform="translate(1364.069 3881.711)" fill="#9f9f9f"/><path d="M154.515-3838.12h3.678c.016.2.041.381.041.559,0,2.6-.019,5.2-.007,7.793,0,.41-.108.627-.534.625-.922,0-1.845.012-2.765-.035a.624.624,0,0,1-.4-.459C154.508-3832.44,154.515-3835.244,154.515-3838.12Zm.542,4.763c.838,0,1.6.012,2.355-.013a.422.422,0,0,0,.29-.292c.02-1.3.013-2.591.013-3.971-.829,0-1.608-.009-2.386.012a.373.373,0,0,0-.26.256C155.052-3836.052,155.057-3834.738,155.057-3833.357Zm.758.509c.414.489.964.464,1.181,0Z" transform="translate(-82.993 3843.381)" fill="#9f9f9f"/><path d="M12.923-3602.838h2.6v3.383C14.211-3599.472,12.913-3601.126,12.923-3602.838Z" transform="translate(55.494 3613.258)" fill="#9f9f9f"/><path d="M348.134-3600.82h2.412l-2.412,3.592Z" transform="translate(-272.366 3611.284)" fill="#9f9f9f"/><path d="M38.2-3827.223c.289.13.527.185.528.246.01.476-.025.953-.046,1.429H38.37Z" transform="translate(30.775 3832.723)" fill="#9f9f9f"/></g></g></svg>