<svg xmlns="http://www.w3.org/2000/svg" width="125.319" height="26.294" viewBox="0 0 125.319 26.294"><g transform="translate(0 0)"><path d="M-1388.561,1346.036l-.729-.066a9.879,9.879,0,0,1-4.506-1.414,7.3,7.3,0,0,1-3.114-4.27,13.757,13.757,0,0,1-.515-3.886c0-3.834.005-7.669-.008-11.5a16.631,16.631,0,0,0-.152-1.662,1.459,1.459,0,0,0-.085-.288,1.116,1.116,0,0,0-.782-.758,7.708,7.708,0,0,0-1.911-.311c-.105,0-.211,0-.329,0v-1.555h11.121v1.555h-.262a6.6,6.6,0,0,0-2,.283c-.126.041-.247.1-.37.152a1.067,1.067,0,0,0-.578.955,10.444,10.444,0,0,0-.115,1.433q-.013,5.885,0,11.771a13.2,13.2,0,0,0,.3,3.092,4.561,4.561,0,0,0,3.622,3.652,8.684,8.684,0,0,0,2.362.181,7.73,7.73,0,0,0,2.723-.548,4.483,4.483,0,0,0,2.672-3.087,14.378,14.378,0,0,0,.436-3.831q.007-5.223-.006-10.446a8.56,8.56,0,0,0-.255-2.172,1.484,1.484,0,0,0-.938-1.034,6.488,6.488,0,0,0-1.621-.394c-.143-.02-.288-.038-.429-.071a.147.147,0,0,1-.089-.107c-.006-.457,0-.915,0-1.384h9.276c0,.471,0,.939-.006,1.406,0,.032-.078.082-.126.09-.429.071-.864.114-1.288.207a5.633,5.633,0,0,0-.933.311,1.286,1.286,0,0,0-.734.842,6.656,6.656,0,0,0-.29,1.711c-.029.507-.038,1.016-.038,1.524,0,3.231.009,6.461-.01,9.692a13.843,13.843,0,0,1-.792,4.864,7.269,7.269,0,0,1-4.272,4.293,11.077,11.077,0,0,1-3.655.745,1.8,1.8,0,0,0-.194.03Z" transform="translate(1429.556 -1319.742)" fill="#9f9f9f"/><path d="M971.861,1329.294c-.265-.03-.529-.058-.793-.091a12.913,12.913,0,0,1-2.937-.761c-.37-.138-.749-.253-1.124-.378a1.248,1.248,0,0,0-.13-.034c-.4-.087-.554-.006-.672.377-.07.228-.116.464-.182.695-.013.046-.065.115-.1.116-.479.008-.959.005-1.453.005l-1.185-8.719h.175c.425,0,.849,0,1.274,0a.205.205,0,0,1,.227.142c.238.559.47,1.121.731,1.669a9.426,9.426,0,0,0,2.346,3.223,6.1,6.1,0,0,0,4.159,1.483,3.928,3.928,0,0,0,2.615-.947,3.19,3.19,0,0,0,1.115-2.158,4.3,4.3,0,0,0-.45-2.661,4.347,4.347,0,0,0-1.352-1.441c-1.265-.877-2.545-1.731-3.822-2.591-.976-.658-1.979-1.278-2.928-1.972A7.6,7.6,0,0,1,965,1312.5a6,6,0,0,1-.561-3.306,6.7,6.7,0,0,1,.641-2.376,6.35,6.35,0,0,1,4.333-3.584c.437-.105.891-.141,1.337-.209.048-.008.1-.02.144-.03h.939a.563.563,0,0,0,.094.023,10.314,10.314,0,0,1,2.438.54c.66.217,1.319.444,1.992.614.38.1.674.017.8-.389.081-.259.14-.526.209-.789h1.476c.04.417.077.833.119,1.249q.174,1.691.352,3.381.142,1.357.283,2.714c.047.453.092.906.138,1.365h-1.655c-.1-.389-.2-.769-.308-1.142a9.155,9.155,0,0,0-1.306-2.752,6.178,6.178,0,0,0-2.268-1.838,5,5,0,0,0-3.45-.527,2.749,2.749,0,0,0-1.924,1.407,3.269,3.269,0,0,0,.431,3.475,9.682,9.682,0,0,0,2.118,1.813c1.408.916,2.837,1.8,4.243,2.716a16.3,16.3,0,0,1,3.431,2.847,5.378,5.378,0,0,1,1.374,3.08,10.6,10.6,0,0,1-.069,2.372,6.081,6.081,0,0,1-1.136,2.879,7.891,7.891,0,0,1-5.45,3.155c-.285.042-.573.067-.86.1Z" transform="translate(-855.136 -1303)" fill="#9f9f9f"/><path d="M282.856,1303c.049.561.095,1.123.147,1.684q.142,1.517.29,3.035.177,1.842.354,3.684c.012.122.018.245.027.378-.054,0-.1.008-.151.009-.453,0-.905,0-1.358,0-.111,0-.16-.019-.188-.145a9.977,9.977,0,0,0-1.368-3.463,6.2,6.2,0,0,0-4.3-2.719,3.59,3.59,0,0,0-2.524.417,2.7,2.7,0,0,0-1.311,2.765,3.559,3.559,0,0,0,1.3,2.36,16.871,16.871,0,0,0,2.479,1.819c1.345.848,2.7,1.688,4.024,2.563a10.209,10.209,0,0,1,2.452,2.164,8.1,8.1,0,0,1,1.3,2.08,6.807,6.807,0,0,1,.421,2.594,6.578,6.578,0,0,1-1.363,4.016,7.629,7.629,0,0,1-3.252,2.417,8.718,8.718,0,0,1-2.748.607,1.378,1.378,0,0,0-.161.029h-1.04c-.264-.03-.529-.058-.793-.091a12.845,12.845,0,0,1-2.937-.761q-.555-.208-1.126-.373a1.87,1.87,0,0,0-.5-.044.243.243,0,0,0-.249.2c-.075.291-.153.582-.236.871-.013.047-.064.117-.1.117-.479.008-.959.005-1.455.005l-1.184-8.71c.059,0,.107-.009.156-.009.436,0,.872,0,1.308,0a.187.187,0,0,1,.2.128c.243.563.476,1.131.739,1.684a9.527,9.527,0,0,0,2.182,3.079,5.928,5.928,0,0,0,5.153,1.537,3.243,3.243,0,0,0,2.723-2.252,4.1,4.1,0,0,0-1.307-4.619c-.989-.786-2.046-1.473-3.1-2.164-1.166-.764-2.345-1.51-3.5-2.291a8.859,8.859,0,0,1-2.436-2.39,5.809,5.809,0,0,1-1-3.528,6.933,6.933,0,0,1,1.324-3.969,6.264,6.264,0,0,1,4.17-2.582c.329-.053.66-.09.99-.135h.939a.226.226,0,0,0,.06.022,10.372,10.372,0,0,1,2.581.579c.617.207,1.234.42,1.866.572.439.106.7,0,.823-.4.08-.254.137-.515.2-.773Z" transform="translate(-182.497 -1303)" fill="#9f9f9f"/><path d="M-2238.8,1313.664c-.5,0-.975,0-1.449-.005a.225.225,0,0,1-.147-.121c-.277-.565-.537-1.14-.823-1.7a10.168,10.168,0,0,0-1.454-2.241,6.281,6.281,0,0,0-3.375-1.961,7.659,7.659,0,0,0-4.764.359,7.987,7.987,0,0,0-4.791,5.419,18.216,18.216,0,0,0-.612,4.666,15.709,15.709,0,0,0,.314,3.587,8.833,8.833,0,0,0,4.149,6,7.544,7.544,0,0,0,3.59,1.067,10.706,10.706,0,0,0,4.669-.852c.282-.118.554-.258.618-.6a1.686,1.686,0,0,0,.029-.3c0-2.146,0-4.292-.017-6.438a8.033,8.033,0,0,0-.118-1.046,1.117,1.117,0,0,0-1.028-1.026c-.578-.086-1.162-.134-1.744-.2a2.079,2.079,0,0,0-.211,0v-1.406h10.076v1.554a2.3,2.3,0,0,0-.295,0c-.392.049-.785.1-1.174.162a1.014,1.014,0,0,0-.863.865,6.772,6.772,0,0,0-.157,1.274q-.022,3.521,0,7.043a1.186,1.186,0,0,1-.565,1.063,8.188,8.188,0,0,1-1.671.837,21.723,21.723,0,0,1-3.055.98,17.9,17.9,0,0,1-5.4.486,13.741,13.741,0,0,1-5.511-1.506,12.178,12.178,0,0,1-5.43-5.4,12.358,12.358,0,0,1-1.2-4.174,15.7,15.7,0,0,1,.016-3.726,13.06,13.06,0,0,1,2.578-6.411,12.314,12.314,0,0,1,3.826-3.353,11.9,11.9,0,0,1,3.9-1.343,14.306,14.306,0,0,1,5.2.066c.742.15,1.47.369,2.2.557.454.116.907.234,1.362.348a1.307,1.307,0,0,0,.82-.067.839.839,0,0,0,.3-.228,1.512,1.512,0,0,0,.343-.807h1.278c.239,0,.239,0,.249.246q.057,1.464.114,2.929.082,2.066.168,4.133C-2238.843,1312.809-2238.823,1313.226-2238.8,1313.664Z" transform="translate(2261.317 -1304.944)" fill="#9f9f9f"/><path d="M-528.454,1319.847v-1.53h19.93l.14,6.146h-1.742c-.056-.27-.108-.547-.171-.822a7.448,7.448,0,0,0-.567-1.677,1.822,1.822,0,0,0-1.217-1.012,8.935,8.935,0,0,0-2.219-.29c-2.005-.019-4.011-.012-6.017-.01-.418,0-.422.014-.462.424-.008.078-.011.156-.011.234q0,3.866,0,7.73v.157c.046,0,.077.01.109.01,1.861,0,3.723,0,5.584-.012a8.992,8.992,0,0,0,1.229-.139,1.549,1.549,0,0,0,1.266-1.1,11.859,11.859,0,0,0,.556-2.1c.011-.059.028-.117.042-.176h1.589v9.339c-.536,0-1.065,0-1.593-.005-.033,0-.084-.074-.094-.121-.106-.49-.192-.985-.312-1.472a3.44,3.44,0,0,0-.565-1.293,1.43,1.43,0,0,0-1.006-.5,12.256,12.256,0,0,0-1.6-.14c-1.688-.017-3.376-.006-5.064-.006-.039,0-.078,0-.143.006v.179q0,4.234,0,8.468a2.46,2.46,0,0,0,.039.416.508.508,0,0,0,.545.487c.739.063,1.48.121,2.221.132q1.5.023,3-.032a12.885,12.885,0,0,0,3.1-.489,4.08,4.08,0,0,0,2.093-1.483,10.733,10.733,0,0,0,1.371-2.311.576.576,0,0,1,.659-.425c.419.041.846.01,1.269.01h.2l-1.878,7.073h-20.282c0-.472,0-.941.005-1.409,0-.031.076-.079.122-.088.565-.1,1.133-.191,1.694-.309a5.7,5.7,0,0,0,.757-.262.66.66,0,0,0,.392-.429,4.408,4.408,0,0,0,.224-1.516q.015-3.89.009-7.78,0-4.653-.01-9.306a3.942,3.942,0,0,0-.317-1.665,1,1,0,0,0-.591-.534,6.742,6.742,0,0,0-1.652-.331C-528.025,1319.864-528.231,1319.86-528.454,1319.847Z" transform="translate(586.573 -1317.803)" fill="#9f9f9f"/></g></svg>