<svg xmlns="http://www.w3.org/2000/svg" width="127.756" height="42.886" viewBox="0 0 127.756 42.886">
  <g id="Grupo_142" data-name="Grupo 142" transform="translate(0)">
    <path id="Trazado_1" data-name="Trazado 1" d="M-1236.793,4509.957h-4.31c0-.033,0-.331,0-.364h9.073c0,.184,0,.649,0,.848q-.013,18.241-.026,36.484c0,1.063.006,2.214-.018,3.276-.007.3.1.39.375.39q3.719-.006,7.438,0c.327,0,.412-.118.411-.446-.009-7.63-.009-15.349.007-22.979,0-.424-.137-.528-.529-.523-1.151.016-2.3,0-3.453,0h-.455c0-.045,0-.356,0-.4h9.168V4550.6h4.425c0,.054,0,.374,0,.428h-26.479c0-.042,0-.349,0-.391h4.376Z" transform="translate(1265.904 -4509.593)" fill="#fff"/>
    <path id="Trazado_2" data-name="Trazado 2" d="M-962.888,4697.65c.167.433.276.734.4,1.03q3.218,7.808,6.438,15.617c.157.381.275.781.453,1.151a.611.611,0,0,0,.1.144.388.388,0,0,0,.633-.092l0,0c.564-1.281,1.116-2.567,1.665-3.854q2.361-5.528,4.716-11.058c.4-.933.789-1.869,1.241-2.939h-4.97c0-.059,0-.382,0-.44h15.566v24.391h4.425c0,.054,0,.373,0,.426h-13.6c0-.033-.006-.332-.008-.364.149-.01.3-.027.448-.028,1.181-.006,2.361-.021,3.542-.005.416.006.537-.122.536-.556-.014-7.57-.008-15.23-.006-22.8,0-.618,0-.625-.607-.625-1.417,0-2.833.007-4.25,0a.568.568,0,0,0-.61.429c-1.062,2.56-2.152,5.107-3.232,7.659q-2.059,4.867-4.115,9.735-1.342,3.179-2.674,6.36c-.213.512-.387,1.038-.615,1.652-.29-.736-.54-1.389-.8-2.036q-2.293-5.647-4.59-11.292-2.406-5.935-4.789-11.879a.847.847,0,0,0-.947-.639c-.9.039-1.8.012-2.7.009-.149,0-.3-.016-.447-.025,0-.046,0-.357.006-.4h13.753c0,.058,0,.381,0,.44Z" transform="translate(1020.279 -4680.588)" fill="#fff"/>
    <path id="Trazado_3" data-name="Trazado 3" d="M-1505.16,4688.646a12.224,12.224,0,0,1,3.506,1.269,14.1,14.1,0,0,1,7.028,8.421,11.172,11.172,0,0,1-1.32,9.5,13.746,13.746,0,0,1-7.545,6.02,11.352,11.352,0,0,1-8-.133,13.578,13.578,0,0,1-8.261-8.273,10.975,10.975,0,0,1,.947-9.7,14.609,14.609,0,0,1,8.892-6.985A11.4,11.4,0,0,1-1505.16,4688.646Zm-10.09,13c.085,1.4.127,2.446.264,3.839a11.723,11.723,0,0,0,1.828,5.586,4.982,4.982,0,0,0,2.96,2.239,11.417,11.417,0,0,0,4.953.182,5.4,5.4,0,0,0,3.733-2.284,12.429,12.429,0,0,0,1.995-6.253c.148-1.634.092-2.933.115-4.578a18.66,18.66,0,0,0-.96-6.442,6.21,6.21,0,0,0-4.357-4.439,9.487,9.487,0,0,0-5.622.158,5.281,5.281,0,0,0-2.677,1.941,8.735,8.735,0,0,0-1.481,3.021A31.034,31.034,0,0,0-1515.25,4701.645Z" transform="translate(1520.47 -4672.613)" fill="#fff"/>
    <path id="Trazado_4" data-name="Trazado 4" d="M-321.323,4689.682h9.034c0,1.478,0,2.832,0,4.272,0,.354.023,1.015.312,1.038.1-.231.213-.459.307-.694a8.636,8.636,0,0,1,4.4-4.913,5.076,5.076,0,0,1,1.531-.374,5.754,5.754,0,0,1,4.116.784,4.487,4.487,0,0,1,1.853,3.638c0,.442.008.885,0,1.328a1.874,1.874,0,0,1-1.331,1.881,4.393,4.393,0,0,1-2.739.069,1.366,1.366,0,0,1-.881-1.808c.121-.363.256-.722.4-1.079a4.158,4.158,0,0,0,.185-2.437c-.344-1.552-1.533-1.683-2.989-1.135a7.34,7.34,0,0,0-3.5,3.259,10.458,10.458,0,0,0-1.544,5.682c-.015,4.871-.02,9.476-.05,14.346,0,.423.128.522.52.521,1.387,0,4.568.038,4.568.038v.4h-14.187c0-.039,0-.344,0-.382h4.4a3.529,3.529,0,0,0,0-.446c.005-7.631.006-15.35.019-22.98,0-.425-.093-.6-.56-.588-1.136.034-2.273.013-3.409.012-.153,0-.305-.015-.458-.023C-321.325,4690.041-321.324,4689.729-321.323,4689.682Z" transform="translate(427.522 -4673.059)" fill="#fff"/>
    <path id="Trazado_5" data-name="Trazado 5" d="M-551.583,4699.427a34.1,34.1,0,0,0,.4,8.283,6.754,6.754,0,0,0,2.721,4.682,5.83,5.83,0,0,0,2.961,1.167,11.088,11.088,0,0,0,5.769-.694,8.679,8.679,0,0,0,4.948-5.622c.036-.12.24.37.218.452a8.862,8.862,0,0,1-7.765,6.573,15.238,15.238,0,0,1-6.329-.626,11.729,11.729,0,0,1-8.224-9.318,13.072,13.072,0,0,1,2.784-11.107,12.744,12.744,0,0,1,6.332-4.409,10.49,10.49,0,0,1,10.47,2.287,10.2,10.2,0,0,1,3.077,6.375c.062.468.107.938.194,1.4.073.39-.046.526-.447.523-1.741-.009-3.482.008-5.223.009q-5.8,0-11.6,0C-551.378,4699.4-551.464,4699.417-551.583,4699.427Zm6.2-.875s3.57,0,5.355,0c.758,0,.758,0,.841-.764.008-.073.025-.146.031-.219a12.116,12.116,0,0,0-.429-4.991,4.149,4.149,0,0,0-2.336-3,6.259,6.259,0,0,0-5.741.33,6.358,6.358,0,0,0-2.9,3.773,18.765,18.765,0,0,0-.925,4.324c-.067.54-.068.549.479.55C-549.134,4698.555-547.26,4698.552-545.386,4698.552Z" transform="translate(642.475 -4672.462)" fill="#fff"/>
    <path id="Trazado_6" data-name="Trazado 6" d="M-633.791,4515.693a2.9,2.9,0,0,1-2.826-2.958,2.9,2.9,0,0,1,3.1-2.809,3.006,3.006,0,0,1,2.726,2.951A2.987,2.987,0,0,1-633.791,4515.693Z" transform="translate(714.892 -4509.89)" fill="#fff"/>
    <path id="Trazado_7" data-name="Trazado 7" d="M-1049.725,4515.718a2.891,2.891,0,0,1-2.857-2.923,2.888,2.888,0,0,1,3.063-2.842,3.009,3.009,0,0,1,2.764,2.958A3.012,3.012,0,0,1-1049.725,4515.718Z" transform="translate(1094.018 -4509.916)" fill="#fff"/>
  </g>
</svg>
